G04 Layer: InnerLayer1*
G04 EasyEDA v6.5.39, 2024-02-11 14:55:05*
G04 31a22d7060634c1a9507d93259deef13,6aaf4e428e1e4843910fb14260956013,10*
G04 Gerber Generator version 0.2*
G04 Scale: 100 percent, Rotated: No, Reflected: No *
G04 Dimensions in millimeters *
G04 leading zeros omitted , absolute positions ,4 integer and 5 decimal *
%FSLAX45Y45*%
%MOMM*%

%AMMACRO1*21,1,$1,$2,0,0,$3*%
%ADD10C,1.5000*%
%ADD11C,1.0000*%
%ADD12C,0.4000*%
%ADD13C,0.7500*%
%ADD14C,1.6000*%
%ADD15C,1.3000*%
%ADD16C,2.0000*%
%ADD17C,3.0000*%
%ADD18C,2.8000*%
%ADD19C,2.7940*%
%ADD20C,1.8000*%
%ADD21C,2.4000*%
%ADD22R,3.0000X3.0000*%
%ADD23C,3.5000*%
%ADD24MACRO1,1.6X1.6X0.0000*%
%ADD25R,1.8000X1.6000*%
%ADD26C,1.4000*%
%ADD27O,1.9999959999999999X2.999994*%
%ADD28R,1.5000X1.5000*%
%ADD29R,2.0000X2.0000*%
%ADD30R,0.0176X2.0000*%

%LPD*%
D10*
X2540010Y4875618D02*
G01*
X2540010Y4862334D01*
X3029137Y4373206D01*
X3771783Y4373206D01*
X4241810Y4843233D01*
X4241810Y4875618D01*
X10515610Y6080544D02*
G01*
X8590213Y6080544D01*
X7955620Y5445950D01*
X7955620Y5185829D01*
X7645410Y4875618D01*
X10515610Y7250518D02*
G01*
X10783503Y7518412D01*
X11137910Y7518412D01*
D11*
X1940062Y3455606D02*
G01*
X2727335Y3455606D01*
X3908866Y2274074D01*
X3935892Y2274074D01*
X5080035Y1129931D01*
X5080035Y918222D01*
X5254863Y743394D01*
X7588691Y743394D01*
X7874010Y1028712D01*
X7595803Y2239225D02*
G01*
X6385290Y1028712D01*
X6350010Y1028712D01*
X7113203Y2239225D02*
G01*
X5902690Y1028712D01*
X5842010Y1028712D01*
D12*
X10668010Y8096211D02*
G01*
X10668010Y8512035D01*
X10668010Y8512035D02*
G01*
X10668010Y8566213D01*
X10668010Y8512035D02*
G01*
X8723640Y8512035D01*
X8534410Y8322805D01*
X5270510Y6978713D02*
G01*
X5330708Y6978713D01*
X5938428Y7586433D01*
X6587017Y7586433D01*
X7323388Y8322805D01*
X8534410Y8322805D01*
X3183417Y2705112D02*
G01*
X3183417Y2286038D01*
X3183392Y2286012D01*
X6032510Y6978713D02*
G01*
X6285392Y6725831D01*
X6285392Y3104578D01*
X6118819Y2938005D01*
X5778510Y6978713D02*
G01*
X5588518Y6788721D01*
X5588518Y2764828D01*
X5528802Y2705112D01*
X5761517Y2298712D02*
G01*
X5774192Y2311387D01*
X5774192Y2705112D01*
X5723544Y6779679D02*
G01*
X6205230Y6297993D01*
X6205230Y3162490D01*
X5774192Y2731452D01*
X5774192Y2705112D01*
X6286510Y6978713D02*
G01*
X6429258Y7121461D01*
X7902661Y7121461D01*
X8051810Y6972312D01*
X5592632Y7378712D02*
G01*
X5524510Y7446835D01*
X5524510Y7778711D01*
X7035810Y6972312D02*
G01*
X7181936Y6826186D01*
X9611776Y6826186D01*
X10058410Y7272820D01*
X6032510Y7778711D02*
G01*
X6057986Y7778711D01*
X6781810Y8502535D01*
X6781810Y8521712D01*
X6286510Y7778711D02*
G01*
X7029510Y8521712D01*
X7035810Y8521712D01*
X2167417Y6654812D02*
G01*
X2286010Y6773405D01*
X2286010Y7480312D01*
X2044710Y6290805D02*
G01*
X2156470Y6179045D01*
X2277018Y6179045D01*
X2667010Y5789053D01*
X2667010Y5765812D01*
X7162810Y6290805D02*
G01*
X7280056Y6290805D01*
X7772410Y5798451D01*
X7772410Y5778512D01*
X3759210Y6290805D02*
G01*
X3870131Y6290805D01*
X4368810Y5792127D01*
X4368810Y5765812D01*
D13*
X11303746Y4236910D02*
G01*
X10995162Y3928325D01*
X10121910Y3928325D01*
X9334535Y4715700D02*
G01*
X10121910Y3928325D01*
X10121910Y3928325D02*
G01*
X10121910Y2984512D01*
X7518410Y5778512D02*
G01*
X7518410Y5148618D01*
X7045411Y4675619D01*
X1435110Y7391412D02*
G01*
X1768891Y7057631D01*
X1768891Y6242367D01*
X2245446Y5765812D01*
X2413010Y5765812D02*
G01*
X2245446Y5765812D01*
X1435110Y7137412D02*
G01*
X1643821Y6928700D01*
X1643821Y6152603D01*
X2298100Y5498325D01*
D10*
X10515610Y6750519D02*
G01*
X10515610Y7250518D01*
X10515610Y5830531D02*
G01*
X10515610Y6080544D01*
X10515610Y6080544D02*
G01*
X10515610Y6330530D01*
D12*
X10198110Y1787512D02*
G01*
X9439310Y1028712D01*
X9398010Y1028712D01*
X9664710Y1787512D02*
G01*
X8905910Y1028712D01*
X8890010Y1028712D01*
X9105910Y1787512D02*
G01*
X8382010Y1063612D01*
X8382010Y1028712D01*
D11*
X8548303Y2239225D02*
G01*
X8548303Y1703006D01*
X7874010Y1028712D01*
X8078403Y2239225D02*
G01*
X6867890Y1028712D01*
X6858010Y1028712D01*
D12*
X2844810Y1888020D02*
G01*
X3041025Y1691805D01*
X3041025Y974991D01*
X3222635Y793381D01*
X4590679Y793381D01*
X4826010Y1028712D01*
X3746510Y7778711D02*
G01*
X3697081Y7778711D01*
X3022533Y7104164D01*
X3022533Y5693194D01*
X2214940Y4885601D01*
X2214940Y4030789D01*
X1725940Y3541788D01*
X1725940Y3253447D01*
X1823857Y3155530D01*
X1823857Y2289543D01*
X2377221Y1736178D01*
X2692968Y1736178D01*
X2844810Y1888020D01*
X2425710Y1888020D02*
G01*
X2578719Y2041029D01*
X2900512Y2041029D01*
X3810010Y1131531D01*
X3810010Y1028712D01*
X4000510Y7778711D02*
G01*
X3372901Y7151103D01*
X3206328Y7151103D01*
X3103331Y7048106D01*
X3103331Y6916813D01*
X3192790Y6827354D01*
X3286795Y6827354D01*
X3389716Y6724434D01*
X3389716Y5402567D01*
X3704320Y5087962D01*
X3923243Y5087962D01*
X3945900Y5110619D01*
X4354179Y5110619D01*
X4479401Y4985397D01*
X4479401Y3233559D01*
X3965839Y2719997D01*
X3965839Y2411641D01*
X2006610Y1888020D02*
G01*
X2794010Y1100620D01*
X2794010Y1028712D01*
X1253246Y5976937D02*
G01*
X1253246Y7429538D01*
X1511538Y7687830D01*
X2787863Y7687830D01*
X3038205Y7938173D01*
X3333048Y7938173D01*
X3382223Y7888998D01*
X1778010Y1028712D02*
G01*
X1587510Y1219212D01*
X1587510Y1888020D01*
X1587510Y1888020D02*
G01*
X1404452Y2071077D01*
X1404452Y3002648D01*
X1645599Y3243795D01*
X1645599Y4686820D01*
X2010420Y5051640D01*
X2151034Y5051640D01*
X2918063Y5818670D01*
X2918063Y7458265D01*
X3238510Y7778711D01*
X1909328Y7950212D02*
G01*
X1909328Y7983689D01*
X1909328Y7983689D02*
G01*
X2809224Y8883586D01*
X5418058Y8883586D01*
X6070610Y8231035D01*
X6070610Y8170100D01*
X716417Y4835105D02*
G01*
X489366Y5062156D01*
X489366Y7802537D01*
X797087Y8110258D01*
X1782759Y8110258D01*
X1909328Y7983689D01*
X6527810Y8521712D02*
G01*
X6218996Y8521712D01*
X6070610Y8670099D01*
D11*
X11708673Y3866832D02*
G01*
X11087110Y3245269D01*
X11087110Y2470721D01*
X11708673Y4066908D02*
G01*
X11708673Y3966883D01*
X11708673Y3966883D02*
G01*
X11708673Y3866832D01*
X11708673Y3966883D02*
G01*
X11945858Y4204068D01*
X11945858Y5755170D01*
X11605016Y6096012D01*
D12*
X9105910Y2657513D02*
G01*
X9105910Y3684612D01*
X8928110Y3862412D01*
X5528802Y2286012D02*
G01*
X5646912Y2167902D01*
X6403248Y2167902D01*
X6699564Y2464219D01*
X9471416Y2464219D01*
X9664710Y2657513D01*
X9664710Y2657513D02*
G01*
X9770907Y2763710D01*
X9770907Y3629215D01*
X9537710Y3862412D01*
X9637709Y3225812D02*
G01*
X9637709Y3580523D01*
X8991711Y4226521D01*
X8345611Y4226521D01*
X6824202Y2705112D01*
X2848518Y8216912D02*
G01*
X3006836Y8375230D01*
X4049379Y8375230D01*
X4216410Y8208200D01*
X2358501Y8216912D02*
G01*
X2837113Y8695524D01*
X3568710Y8695524D01*
X4254510Y7778711D02*
G01*
X4359666Y7883867D01*
X4359666Y8282597D01*
X3946738Y8695524D01*
X3568710Y8695524D01*
D13*
X9334535Y5215699D02*
G01*
X9325823Y5215699D01*
X8712210Y5829312D01*
X1435110Y5613412D02*
G01*
X1393022Y5571324D01*
X1393022Y5308612D01*
X11303746Y4576914D02*
G01*
X10664962Y5215699D01*
X9334535Y5215699D01*
X8051810Y7734312D02*
G01*
X8072917Y7734312D01*
X8534410Y7272820D01*
X5448310Y5240820D02*
G01*
X5407009Y5240820D01*
X4841808Y4675619D01*
X859317Y7950212D02*
G01*
X859317Y6189205D01*
X1435110Y5613412D01*
X7162810Y5240820D02*
G01*
X7096109Y5240820D01*
X6530908Y4675619D01*
X6530908Y4675619D02*
G01*
X6761972Y4444555D01*
X8014345Y4444555D01*
X8245408Y4675619D01*
X8245408Y4675619D02*
G01*
X8245408Y5362511D01*
X8712210Y5829312D01*
X4543993Y5240820D02*
G01*
X4543993Y6623342D01*
X4512523Y6654812D01*
X3759210Y5240820D02*
G01*
X4543993Y5240820D01*
X4512523Y6654812D02*
G01*
X4508510Y6658825D01*
X4508510Y6978713D01*
X4508510Y6978713D02*
G01*
X5016510Y7486713D01*
X5016510Y7778711D01*
X5016510Y7778711D02*
G01*
X5139496Y7901698D01*
X5139496Y8102612D01*
X5139496Y8102612D02*
G01*
X5307009Y8102612D01*
X5537210Y8332812D01*
X4543993Y5240820D02*
G01*
X4841808Y4943005D01*
X4841808Y4675619D01*
X4841808Y4675619D02*
G01*
X5086360Y4431068D01*
X5086360Y2250808D01*
X5334010Y2003158D01*
X5334010Y1028712D01*
D14*
G01*
X893013Y5308600D03*
G01*
X1393012Y5308600D03*
G01*
X3568700Y8195513D03*
G01*
X3568700Y8695512D03*
G01*
X4216400Y8708186D03*
G01*
X4216400Y8208187D03*
D15*
G01*
X5537200Y8332800D03*
G01*
X5537200Y8532799D03*
G01*
X9637699Y3225800D03*
G01*
X9437700Y3225800D03*
G01*
X9537700Y3862400D03*
G01*
X9537700Y4062399D03*
G01*
X8928100Y3862400D03*
G01*
X8928100Y4062399D03*
D14*
G01*
X11254993Y6096000D03*
G01*
X11605006Y6096000D03*
G01*
X6070600Y8670086D03*
G01*
X6070600Y8170087D03*
G01*
X5139486Y8102600D03*
G01*
X4639487Y8102600D03*
G01*
X4512513Y6654800D03*
G01*
X5012512Y6654800D03*
D16*
G01*
X8712200Y5829300D03*
G01*
X8712200Y6337300D03*
D17*
G01*
X1778000Y1028700D03*
G01*
X2286000Y1028700D03*
G01*
X2794000Y1028700D03*
G01*
X3302000Y1028700D03*
G01*
X3810000Y1028700D03*
G01*
X4318000Y1028700D03*
G01*
X4826000Y1028700D03*
G01*
X5334000Y1028700D03*
G01*
X5842000Y1028700D03*
G01*
X6350000Y1028700D03*
G01*
X6858000Y1028700D03*
G01*
X7366000Y1028700D03*
G01*
X7874000Y1028700D03*
G01*
X8382000Y1028700D03*
G01*
X8890000Y1028700D03*
G01*
X9398000Y1028700D03*
G01*
X9906000Y1028700D03*
G01*
X10414000Y1028700D03*
D18*
G01*
X11137900Y7010400D03*
G01*
X11137900Y7518400D03*
D19*
G01*
X3641852Y3455593D03*
G01*
X4241800Y4875606D03*
G01*
X4841798Y4675606D03*
G01*
X3641801Y4675606D03*
G01*
X4841747Y3455593D03*
G01*
X1940052Y3455593D03*
G01*
X2540000Y4875606D03*
G01*
X3139998Y4675606D03*
G01*
X1940001Y4675606D03*
G01*
X3139947Y3455593D03*
G01*
X7045452Y3455593D03*
G01*
X7645400Y4875606D03*
G01*
X8245398Y4675606D03*
G01*
X7045401Y4675606D03*
G01*
X8245347Y3455593D03*
G01*
X5330952Y3455593D03*
G01*
X5930900Y4875606D03*
G01*
X6530898Y4675606D03*
G01*
X5330901Y4675606D03*
G01*
X6530847Y3455593D03*
D20*
G01*
X9105900Y1787499D03*
G01*
X9105900Y2657500D03*
G01*
X9664700Y1787499D03*
G01*
X9664700Y2657500D03*
G01*
X10198100Y1787499D03*
G01*
X10198100Y2657500D03*
D21*
G01*
X11087100Y1110691D03*
G01*
X11087100Y2470708D03*
D22*
G01*
X11645900Y2984500D03*
D17*
G01*
X10121900Y2984500D03*
D23*
G01*
X10515600Y7250506D03*
G01*
X10515600Y6750507D03*
G01*
X10515600Y6330518D03*
G01*
X10515600Y5830519D03*
D21*
G01*
X10617200Y4406900D03*
D24*
G01*
X4114800Y5765800D03*
D14*
G01*
X4368800Y5765800D03*
D24*
G01*
X7518400Y5778500D03*
D14*
G01*
X7772400Y5778500D03*
D24*
G01*
X5803900Y5765800D03*
D14*
G01*
X6057900Y5765800D03*
D24*
G01*
X2413000Y5765800D03*
D14*
G01*
X2667000Y5765800D03*
D20*
G01*
X2286000Y7480300D03*
G01*
X2540000Y7480300D03*
D14*
G01*
X7797800Y8521700D03*
G01*
X7543800Y8521700D03*
G01*
X7289800Y8521700D03*
G01*
X7035800Y8521700D03*
G01*
X6781800Y8521700D03*
D25*
G01*
X6527800Y8521700D03*
D14*
G01*
X859307Y7950200D03*
G01*
X1909318Y7950200D03*
G01*
X10058400Y7272807D03*
G01*
X10058400Y8322818D03*
G01*
X9677400Y7272807D03*
G01*
X9677400Y8322818D03*
G01*
X9296400Y7272807D03*
G01*
X9296400Y8322818D03*
G01*
X8915400Y7272807D03*
G01*
X8915400Y8322818D03*
G01*
X2844800Y1888007D03*
G01*
X2844800Y2938018D03*
G01*
X2425700Y1888007D03*
G01*
X2425700Y2938018D03*
G01*
X2006600Y1888007D03*
G01*
X2006600Y2938018D03*
G01*
X8974607Y6972300D03*
G01*
X10024618Y6972300D03*
G01*
X1587500Y1888007D03*
G01*
X1587500Y2938018D03*
D26*
G01*
X2167407Y6654800D03*
G01*
X3217392Y6654800D03*
G01*
X3759200Y5240807D03*
G01*
X3759200Y6290792D03*
G01*
X7162800Y5240807D03*
G01*
X7162800Y6290792D03*
G01*
X5448300Y5240807D03*
G01*
X5448300Y6290792D03*
G01*
X2044700Y5240807D03*
G01*
X2044700Y6290792D03*
D20*
G01*
X8548293Y2239213D03*
G01*
X8698306Y2739212D03*
G01*
X7113193Y2239213D03*
G01*
X7263206Y2739212D03*
G01*
X7595793Y2239213D03*
G01*
X7745806Y2739212D03*
G01*
X8078393Y2239213D03*
G01*
X8228406Y2739212D03*
D14*
G01*
X6824192Y2705100D03*
G01*
X5774181Y2705100D03*
G01*
X5528792Y2286000D03*
G01*
X4478781Y2286000D03*
G01*
X4233392Y2286000D03*
G01*
X3183381Y2286000D03*
D26*
G01*
X8534400Y7272807D03*
G01*
X8534400Y8322792D03*
G01*
X5761507Y2298700D03*
G01*
X6811492Y2298700D03*
G01*
X5528792Y2705100D03*
G01*
X4478807Y2705100D03*
G01*
X3183407Y2705100D03*
G01*
X4233392Y2705100D03*
D14*
G01*
X8051800Y7734300D03*
G01*
X8051800Y6972300D03*
G01*
X7797800Y7734300D03*
G01*
X7797800Y6972300D03*
G01*
X7543800Y7734300D03*
G01*
X7543800Y6972300D03*
G01*
X7035800Y7734300D03*
G01*
X7289800Y7734300D03*
G01*
X7289800Y6972300D03*
G01*
X7035800Y6972300D03*
D20*
G01*
X716406Y4835093D03*
G01*
X1366393Y4835093D03*
G01*
X716406Y4385106D03*
G01*
X1366393Y4385106D03*
D27*
G01*
X1016000Y3410000D03*
G01*
X1016000Y2939999D03*
G01*
X10668000Y8566200D03*
G01*
X10668000Y8096199D03*
G01*
X1016000Y2089200D03*
G01*
X1016000Y1619199D03*
D28*
G01*
X6540500Y7778699D03*
D10*
G01*
X6286500Y7778699D03*
G01*
X6032500Y7778699D03*
G01*
X5778500Y7778699D03*
G01*
X5524500Y7778699D03*
G01*
X5270500Y7778699D03*
G01*
X5016500Y7778699D03*
G01*
X4762500Y7778699D03*
G01*
X4508500Y7778699D03*
G01*
X4254500Y7778699D03*
G01*
X4000500Y7778699D03*
G01*
X3746500Y7778699D03*
G01*
X3492500Y7778699D03*
G01*
X3238500Y7778699D03*
G01*
X6540500Y6978700D03*
G01*
X6286500Y6978700D03*
G01*
X6032500Y6978700D03*
G01*
X5778500Y6978700D03*
G01*
X5524500Y6978700D03*
G01*
X5270500Y6978700D03*
G01*
X5016500Y6978700D03*
G01*
X4762500Y6978700D03*
G01*
X4508500Y6978700D03*
G01*
X4254500Y6978700D03*
G01*
X4000500Y6978700D03*
G01*
X3746500Y6978700D03*
G01*
X3492500Y6978700D03*
G01*
X3238500Y6978700D03*
D16*
G01*
X11708663Y4746904D03*
G01*
X11303736Y4576902D03*
G01*
X11708663Y4406900D03*
G01*
X11303736Y4236897D03*
D29*
G01*
X11708663Y4066895D03*
D14*
G01*
X673100Y7391400D03*
G01*
X673100Y7137400D03*
G01*
X673100Y6883400D03*
G01*
X673100Y6629400D03*
G01*
X673100Y6375400D03*
G01*
X673100Y6121400D03*
G01*
X673100Y5867400D03*
G01*
X673100Y5613400D03*
G01*
X1435100Y5613400D03*
G01*
X1435100Y5867400D03*
G01*
X1435100Y6121400D03*
G01*
X1435100Y6375400D03*
G01*
X1435100Y6629400D03*
G01*
X1435100Y6883400D03*
G01*
X1435100Y7137400D03*
G01*
X1435100Y7391400D03*
G01*
X2848508Y8216900D03*
G01*
X2358491Y8216900D03*
G01*
X9334525Y4715687D03*
G01*
X9334525Y5215686D03*
D13*
G01*
X1253236Y5976924D03*
G01*
X3382213Y7888986D03*
G01*
X3965829Y2411628D03*
D11*
G01*
X2298090Y5498312D03*
D13*
G01*
X5592622Y7378700D03*
G01*
X5723534Y6779666D03*
G01*
X6118809Y2937992D03*
G01*
X1630019Y7589240D03*
M02*
