M48
METRIC,LZ,000.000
;FILE_FORMAT=3:3
;TYPE=PLATED
;Layer: PTH_Through
;EasyEDA v6.5.39, 2024-02-11 14:55:05
;31a22d7060634c1a9507d93259deef13,6aaf4e428e1e4843910fb14260956013,10
;Gerber Generator version 0.2
;Holesize 1 = 0.341 mm
T01C0.341
;Holesize 2 = 0.501 mm
T02C0.501
;Holesize 3 = 0.701 mm
T03C0.701
;Holesize 4 = 0.800 mm
T04C0.800
;Holesize 5 = 0.901 mm
T05C0.901
;Holesize 6 = 0.915 mm
T06C0.915
;Holesize 7 = 1.000 mm
T07C1.000
;Holesize 8 = 1.021 mm
T08C1.021
;Holesize 9 = 1.200 mm
T09C1.200
;Holesize 10 = 1.301 mm
T10C1.301
;Holesize 11 = 1.524 mm
T11C1.524
;Holesize 12 = 1.600 mm
T12C1.600
;Holesize 13 = 1.701 mm
T13C1.701
;Holesize 14 = 1.901 mm
T14C1.901
;Holesize 15 = 2.000 mm
T15C2.000
;Holesize 16 = 2.701 mm
T16C2.701
%
G05
G90
T01
X012532Y059769
X033822Y078890
X039658Y024116
X055926Y073787
X057235Y067797
X061188Y029380
X016300Y075892
T02
X022981Y054983
T03
X021674Y066548
X032174Y066548
X037592Y052408
X037592Y062908
X071628Y052408
X071628Y062908
X054483Y052408
X054483Y062908
X020447Y052408
X020447Y062908
X085344Y072728
X085344Y083228
X057615Y022987
X068115Y022987
X055288Y027051
X044788Y027051
X031834Y027051
X042334Y027051
X028485Y082169
X023585Y082169
T04
X055372Y083328
X055372Y085328
X096377Y032258
X094377Y032258
X095377Y038624
X095377Y040624
X089281Y038624
X089281Y040624
T05
X065405Y077787
X062865Y077787
X060325Y077787
X057785Y077787
X055245Y077787
X052705Y077787
X050165Y077787
X047625Y077787
X045085Y077787
X042545Y077787
X040005Y077787
X037465Y077787
X034925Y077787
X032385Y077787
X065405Y069787
X062865Y069787
X060325Y069787
X057785Y069787
X055245Y069787
X052705Y069787
X050165Y069787
X047625Y069787
X045085Y069787
X042545Y069787
X040005Y069787
X037465Y069787
X034925Y069787
X032385Y069787
T06
X008593Y079502
X019093Y079502
X100584Y072728
X100584Y083228
X096774Y072728
X096774Y083228
X092964Y072728
X092964Y083228
X089154Y072728
X089154Y083228
X028448Y018880
X028448Y029380
X024257Y018880
X024257Y029380
X020066Y018880
X020066Y029380
X089746Y069723
X100246Y069723
X015875Y018880
X015875Y029380
X068242Y027051
X057742Y027051
X055288Y022860
X044788Y022860
X042334Y022860
X031834Y022860
T07
X008930Y053086
X013930Y053086
X035687Y081955
X035687Y086955
X042164Y087082
X042164Y082082
X112550Y060960
X116050Y060960
X060706Y086701
X060706Y081701
X051395Y081026
X046395Y081026
X045125Y066548
X050125Y066548
X091059Y017875
X091059Y026575
X096647Y017875
X096647Y026575
X101981Y017875
X101981Y026575
X041148Y057658
X043688Y057658
X075184Y057785
X077724Y057785
X058039Y057658
X060579Y057658
X024130Y057658
X026670Y057658
X022860Y074803
X025400Y074803
X085483Y022392
X086983Y027392
X071132Y022392
X072632Y027392
X075958Y022392
X077458Y027392
X080784Y022392
X082284Y027392
X080518Y077343
X080518Y069723
X077978Y077343
X077978Y069723
X075438Y077343
X075438Y069723
X070358Y077343
X072898Y077343
X072898Y069723
X070358Y069723
X006731Y073914
X006731Y071374
X006731Y068834
X006731Y066294
X006731Y063754
X006731Y061214
X006731Y058674
X006731Y056134
X014351Y056134
X014351Y058674
X014351Y061214
X014351Y063754
X014351Y066294
X014351Y068834
X014351Y071374
X014351Y073914
X093345Y047157
X093345Y052157
T08
X077978Y085217
X075438Y085217
X072898Y085217
X070358Y085217
X067818Y085217
X065278Y085217
T09
X087122Y058293
X087122Y063373
X007164Y048351
X013664Y048351
X007164Y043851
X013664Y043851
X010160Y033700G85X010160Y034500
X010160Y029000G85X010160Y029800
X106680Y085262G85X106680Y086062
X106680Y080562G85X106680Y081362
X010160Y020492G85X010160Y021292
X010160Y015792G85X010160Y016592
T10
X117087Y047469
X113037Y045769
X117087Y044069
X113037Y042369
X117087Y040669
T11
X036419Y034556
X042418Y048756
X048418Y046756
X036418Y046756
X048417Y034556
X019401Y034556
X025400Y048756
X031400Y046756
X019400Y046756
X031399Y034556
X070455Y034556
X076454Y048756
X082454Y046756
X070454Y046756
X082453Y034556
X053310Y034556
X059309Y048756
X065309Y046756
X053309Y046756
X065308Y034556
T12
X110871Y011107
X110871Y024707
X106172Y044069
T13
X116459Y029845
X101219Y029845
T14
X111379Y070104
X111379Y075184
T15
X017780Y010287
X022860Y010287
X027940Y010287
X033020Y010287
X038100Y010287
X043180Y010287
X048260Y010287
X053340Y010287
X058420Y010287
X063500Y010287
X068580Y010287
X073660Y010287
X078740Y010287
X083820Y010287
X088900Y010287
X093980Y010287
X099060Y010287
X104140Y010287
T16
X105156Y072505
X105156Y067505
X105156Y063305
X105156Y058305
M30
