G04 Layer: BottomSolderMaskLayer*
G04 EasyEDA v6.5.39, 2024-02-11 14:55:05*
G04 31a22d7060634c1a9507d93259deef13,6aaf4e428e1e4843910fb14260956013,10*
G04 Gerber Generator version 0.2*
G04 Scale: 100 percent, Rotated: No, Reflected: No *
G04 Dimensions in millimeters *
G04 leading zeros omitted , absolute positions ,4 integer and 5 decimal *
%FSLAX45Y45*%
%MOMM*%

%AMMACRO1*1,1,$1,$2,$3*1,1,$1,$4,$5*1,1,$1,0-$2,0-$3*1,1,$1,0-$4,0-$5*20,1,$1,$2,$3,$4,$5,0*20,1,$1,$4,$5,0-$2,0-$3,0*20,1,$1,0-$2,0-$3,0-$4,0-$5,0*20,1,$1,0-$4,0-$5,$2,$3,0*4,1,4,$2,$3,$4,$5,0-$2,0-$3,0-$4,0-$5,$2,$3,0*%
%ADD10C,1.7016*%
%ADD11C,1.4016*%
%ADD12C,2.1016*%
%ADD13C,3.1016*%
%ADD14C,2.9016*%
%ADD15C,2.8956*%
%ADD16C,1.9016*%
%ADD17C,2.5016*%
%ADD18MACRO1,0.1016X-1.5X1.5X1.5X1.5*%
%ADD19C,3.6000*%
%ADD20C,2.5000*%
%ADD21MACRO1,0.1016X-0.8X-0.8X0.8X-0.8*%
%ADD22C,1.9000*%
%ADD23MACRO1,0.1016X-0.9X0.8X0.9X0.8*%
%ADD24C,1.5016*%
%ADD25O,2.101596X3.1015939999999995*%
%ADD26MACRO1,0.1016X0.75X-0.75X-0.75X-0.75*%
%ADD27C,1.6016*%
%ADD28MACRO1,0.1016X1X-1X-1X-1*%
%ADD29C,0.0139*%

%LPD*%
D10*
G01*
X893013Y5308600D03*
G01*
X1393012Y5308600D03*
G01*
X3568700Y8195513D03*
G01*
X3568700Y8695512D03*
G01*
X4216400Y8708186D03*
G01*
X4216400Y8208187D03*
D11*
G01*
X5537200Y8332800D03*
G01*
X5537200Y8532799D03*
G01*
X9637699Y3225800D03*
G01*
X9437700Y3225800D03*
G01*
X9537700Y3862400D03*
G01*
X9537700Y4062399D03*
G01*
X8928100Y3862400D03*
G01*
X8928100Y4062399D03*
D10*
G01*
X11254993Y6096000D03*
G01*
X11605006Y6096000D03*
G01*
X6070600Y8670086D03*
G01*
X6070600Y8170087D03*
G01*
X5139486Y8102600D03*
G01*
X4639487Y8102600D03*
G01*
X4512513Y6654800D03*
G01*
X5012512Y6654800D03*
D12*
G01*
X8712200Y5829300D03*
G01*
X8712200Y6337300D03*
D13*
G01*
X1778000Y1028700D03*
G01*
X2286000Y1028700D03*
G01*
X2794000Y1028700D03*
G01*
X3302000Y1028700D03*
G01*
X3810000Y1028700D03*
G01*
X4318000Y1028700D03*
G01*
X4826000Y1028700D03*
G01*
X5334000Y1028700D03*
G01*
X5842000Y1028700D03*
G01*
X6350000Y1028700D03*
G01*
X6858000Y1028700D03*
G01*
X7366000Y1028700D03*
G01*
X7874000Y1028700D03*
G01*
X8382000Y1028700D03*
G01*
X8890000Y1028700D03*
G01*
X9398000Y1028700D03*
G01*
X9906000Y1028700D03*
G01*
X10414000Y1028700D03*
D14*
G01*
X11137900Y7010400D03*
G01*
X11137900Y7518400D03*
D15*
G01*
X3641852Y3455593D03*
G01*
X4241800Y4875606D03*
G01*
X4841798Y4675606D03*
G01*
X3641801Y4675606D03*
G01*
X4841747Y3455593D03*
G01*
X1940052Y3455593D03*
G01*
X2540000Y4875606D03*
G01*
X3139998Y4675606D03*
G01*
X1940001Y4675606D03*
G01*
X3139947Y3455593D03*
G01*
X7045452Y3455593D03*
G01*
X7645400Y4875606D03*
G01*
X8245398Y4675606D03*
G01*
X7045401Y4675606D03*
G01*
X8245347Y3455593D03*
G01*
X5330952Y3455593D03*
G01*
X5930900Y4875606D03*
G01*
X6530898Y4675606D03*
G01*
X5330901Y4675606D03*
G01*
X6530847Y3455593D03*
D16*
G01*
X9105900Y1787499D03*
G01*
X9105900Y2657500D03*
G01*
X9664700Y1787499D03*
G01*
X9664700Y2657500D03*
G01*
X10198100Y1787499D03*
G01*
X10198100Y2657500D03*
D17*
G01*
X11087100Y1110691D03*
G01*
X11087100Y2470708D03*
D18*
G01*
X11645900Y2984500D03*
D13*
G01*
X10121900Y2984500D03*
D19*
G01*
X10515600Y7250506D03*
G01*
X10515600Y6750507D03*
G01*
X10515600Y6330518D03*
G01*
X10515600Y5830519D03*
D20*
G01*
X10617200Y4406900D03*
D21*
G01*
X4114800Y5765800D03*
D10*
G01*
X4368800Y5765800D03*
D21*
G01*
X7518400Y5778500D03*
D10*
G01*
X7772400Y5778500D03*
D21*
G01*
X5803900Y5765800D03*
D10*
G01*
X6057900Y5765800D03*
D21*
G01*
X2413000Y5765800D03*
D10*
G01*
X2667000Y5765800D03*
D22*
G01*
X2286000Y7480300D03*
G01*
X2540000Y7480300D03*
D10*
G01*
X7797800Y8521700D03*
G01*
X7543800Y8521700D03*
G01*
X7289800Y8521700D03*
G01*
X7035800Y8521700D03*
G01*
X6781800Y8521700D03*
D23*
G01*
X6527800Y8521700D03*
D10*
G01*
X859307Y7950200D03*
G01*
X1909318Y7950200D03*
G01*
X10058400Y7272807D03*
G01*
X10058400Y8322818D03*
G01*
X9677400Y7272807D03*
G01*
X9677400Y8322818D03*
G01*
X9296400Y7272807D03*
G01*
X9296400Y8322818D03*
G01*
X8915400Y7272807D03*
G01*
X8915400Y8322818D03*
G01*
X2844800Y1888007D03*
G01*
X2844800Y2938018D03*
G01*
X2425700Y1888007D03*
G01*
X2425700Y2938018D03*
G01*
X2006600Y1888007D03*
G01*
X2006600Y2938018D03*
G01*
X8974607Y6972300D03*
G01*
X10024618Y6972300D03*
G01*
X1587500Y1888007D03*
G01*
X1587500Y2938018D03*
D24*
G01*
X2167407Y6654800D03*
G01*
X3217392Y6654800D03*
G01*
X3759200Y5240807D03*
G01*
X3759200Y6290792D03*
G01*
X7162800Y5240807D03*
G01*
X7162800Y6290792D03*
G01*
X5448300Y5240807D03*
G01*
X5448300Y6290792D03*
G01*
X2044700Y5240807D03*
G01*
X2044700Y6290792D03*
D16*
G01*
X8548293Y2239213D03*
G01*
X8698306Y2739212D03*
G01*
X7113193Y2239213D03*
G01*
X7263206Y2739212D03*
G01*
X7595793Y2239213D03*
G01*
X7745806Y2739212D03*
G01*
X8078393Y2239213D03*
G01*
X8228406Y2739212D03*
D10*
G01*
X6824192Y2705100D03*
G01*
X5774181Y2705100D03*
G01*
X5528792Y2286000D03*
G01*
X4478781Y2286000D03*
G01*
X4233392Y2286000D03*
G01*
X3183381Y2286000D03*
D24*
G01*
X8534400Y7272807D03*
G01*
X8534400Y8322792D03*
G01*
X5761507Y2298700D03*
G01*
X6811492Y2298700D03*
G01*
X5528792Y2705100D03*
G01*
X4478807Y2705100D03*
G01*
X3183407Y2705100D03*
G01*
X4233392Y2705100D03*
D10*
G01*
X8051800Y7734300D03*
G01*
X8051800Y6972300D03*
G01*
X7797800Y7734300D03*
G01*
X7797800Y6972300D03*
G01*
X7543800Y7734300D03*
G01*
X7543800Y6972300D03*
G01*
X7035800Y7734300D03*
G01*
X7289800Y7734300D03*
G01*
X7289800Y6972300D03*
G01*
X7035800Y6972300D03*
D16*
G01*
X716406Y4835093D03*
G01*
X1366393Y4835093D03*
G01*
X716406Y4385106D03*
G01*
X1366393Y4385106D03*
D25*
G01*
X1016000Y3410000D03*
G01*
X1016000Y2939999D03*
G01*
X10668000Y8566200D03*
G01*
X10668000Y8096199D03*
G01*
X1016000Y2089200D03*
G01*
X1016000Y1619199D03*
D26*
G01*
X6540500Y7778699D03*
D27*
G01*
X6286500Y7778699D03*
G01*
X6032500Y7778699D03*
G01*
X5778500Y7778699D03*
G01*
X5524500Y7778699D03*
G01*
X5270500Y7778699D03*
G01*
X5016500Y7778699D03*
G01*
X4762500Y7778699D03*
G01*
X4508500Y7778699D03*
G01*
X4254500Y7778699D03*
G01*
X4000500Y7778699D03*
G01*
X3746500Y7778699D03*
G01*
X3492500Y7778699D03*
G01*
X3238500Y7778699D03*
G01*
X6540500Y6978700D03*
G01*
X6286500Y6978700D03*
G01*
X6032500Y6978700D03*
G01*
X5778500Y6978700D03*
G01*
X5524500Y6978700D03*
G01*
X5270500Y6978700D03*
G01*
X5016500Y6978700D03*
G01*
X4762500Y6978700D03*
G01*
X4508500Y6978700D03*
G01*
X4254500Y6978700D03*
G01*
X4000500Y6978700D03*
G01*
X3746500Y6978700D03*
G01*
X3492500Y6978700D03*
G01*
X3238500Y6978700D03*
D12*
G01*
X11708663Y4746904D03*
G01*
X11303736Y4576902D03*
G01*
X11708663Y4406900D03*
G01*
X11303736Y4236897D03*
D28*
G01*
X11708653Y4066900D03*
D10*
G01*
X673100Y7391400D03*
G01*
X673100Y7137400D03*
G01*
X673100Y6883400D03*
G01*
X673100Y6629400D03*
G01*
X673100Y6375400D03*
G01*
X673100Y6121400D03*
G01*
X673100Y5867400D03*
G01*
X673100Y5613400D03*
G01*
X1435100Y5613400D03*
G01*
X1435100Y5867400D03*
G01*
X1435100Y6121400D03*
G01*
X1435100Y6375400D03*
G01*
X1435100Y6629400D03*
G01*
X1435100Y6883400D03*
G01*
X1435100Y7137400D03*
G01*
X1435100Y7391400D03*
G01*
X2848508Y8216900D03*
G01*
X2358491Y8216900D03*
G01*
X9334525Y4715687D03*
G01*
X9334525Y5215686D03*
M02*
