G04 Layer: TopSilkscreenLayer*
G04 EasyEDA v6.5.39, 2024-02-11 14:55:05*
G04 31a22d7060634c1a9507d93259deef13,6aaf4e428e1e4843910fb14260956013,10*
G04 Gerber Generator version 0.2*
G04 Scale: 100 percent, Rotated: No, Reflected: No *
G04 Dimensions in millimeters *
G04 leading zeros omitted , absolute positions ,4 integer and 5 decimal *
%FSLAX45Y45*%
%MOMM*%

%ADD10C,0.2000*%
%ADD11C,0.3200*%
%ADD12C,0.1000*%
%ADD13C,0.1524*%
%ADD14C,0.2540*%
%ADD15C,0.3000*%
%ADD16C,0.6000*%
%ADD17C,0.0134*%

%LPD*%
G36*
X9791852Y6522669D02*
G01*
X9779254Y6522466D01*
X9766757Y6521805D01*
X9754311Y6520586D01*
X9742017Y6518909D01*
X9729165Y6516674D01*
X9716617Y6514084D01*
X9704476Y6511188D01*
X9692640Y6507937D01*
X9681210Y6504381D01*
X9670135Y6500520D01*
X9659366Y6496304D01*
X9649002Y6491732D01*
X9638995Y6486906D01*
X9629343Y6481724D01*
X9620046Y6476187D01*
X9611106Y6470396D01*
X9602571Y6464198D01*
X9594342Y6457746D01*
X9586518Y6450939D01*
X9579051Y6443878D01*
X9571939Y6436410D01*
X9565182Y6428689D01*
X9558782Y6420612D01*
X9552787Y6412280D01*
X9547148Y6403594D01*
X9541865Y6394551D01*
X9536938Y6385255D01*
X9532366Y6375654D01*
X9528200Y6365697D01*
X9524390Y6355435D01*
X9520986Y6344920D01*
X9517888Y6334048D01*
X9515195Y6322872D01*
X9512909Y6311392D01*
X9510928Y6299606D01*
X9509353Y6287516D01*
X9507598Y6266789D01*
X9520377Y6266789D01*
X9520580Y6281826D01*
X9521190Y6295644D01*
X9522104Y6307734D01*
X9523476Y6317691D01*
X9525660Y6326886D01*
X9528759Y6337096D01*
X9532315Y6347104D01*
X9536379Y6356908D01*
X9540951Y6366459D01*
X9545980Y6375755D01*
X9551466Y6384798D01*
X9557359Y6393637D01*
X9563709Y6402171D01*
X9570415Y6410452D01*
X9577578Y6418478D01*
X9585096Y6426200D01*
X9592970Y6433616D01*
X9601149Y6440728D01*
X9609734Y6447586D01*
X9618624Y6454089D01*
X9627768Y6460236D01*
X9637268Y6466128D01*
X9646970Y6471615D01*
X9656978Y6476796D01*
X9667240Y6481622D01*
X9677704Y6486093D01*
X9688423Y6490157D01*
X9699345Y6493865D01*
X9710420Y6497218D01*
X9721646Y6500164D01*
X9733076Y6502704D01*
X9744659Y6504838D01*
X9756343Y6506565D01*
X9768128Y6507835D01*
X9780066Y6508699D01*
X9792055Y6509156D01*
X9804095Y6509156D01*
X9816185Y6508699D01*
X9828377Y6507784D01*
X9840518Y6506362D01*
X9852710Y6504533D01*
X9864902Y6502196D01*
X9877501Y6499250D01*
X9890302Y6495643D01*
X9902850Y6491528D01*
X9915144Y6486855D01*
X9927082Y6481673D01*
X9938664Y6476034D01*
X9949942Y6469888D01*
X9960813Y6463334D01*
X9971328Y6456273D01*
X9981387Y6448856D01*
X9991090Y6440982D01*
X10000284Y6432753D01*
X10009022Y6424117D01*
X10017302Y6415176D01*
X10025075Y6405880D01*
X10032339Y6396228D01*
X10039045Y6386322D01*
X10045192Y6376111D01*
X10050729Y6365646D01*
X10055707Y6354876D01*
X10060076Y6343904D01*
X10063784Y6332728D01*
X10066172Y6323736D01*
X10067544Y6314490D01*
X10068763Y6302349D01*
X10070592Y6271768D01*
X10071608Y6236665D01*
X10071811Y6218936D01*
X10071709Y6193637D01*
X10071354Y6178600D01*
X10070744Y6165697D01*
X10069880Y6155486D01*
X10068814Y6148527D01*
X10068153Y6146495D01*
X10067442Y6145530D01*
X10065359Y6143955D01*
X10063276Y6141872D01*
X10061194Y6139230D01*
X10059212Y6136132D01*
X10055352Y6128359D01*
X10051745Y6118656D01*
X10048341Y6107176D01*
X10045242Y6093968D01*
X10042448Y6079083D01*
X10039959Y6062675D01*
X10037047Y6037275D01*
X10053675Y6037275D01*
X10053777Y6045860D01*
X10054742Y6062116D01*
X10056571Y6077153D01*
X10057790Y6084163D01*
X10059212Y6090818D01*
X10060838Y6097168D01*
X10062616Y6103112D01*
X10064597Y6108750D01*
X10066731Y6113983D01*
X10069068Y6118809D01*
X10071557Y6123279D01*
X10074148Y6127343D01*
X10076942Y6131001D01*
X10079837Y6134201D01*
X10082885Y6136995D01*
X10086086Y6139383D01*
X10089388Y6141313D01*
X10092791Y6142786D01*
X10096296Y6143752D01*
X10099954Y6144310D01*
X10103662Y6144361D01*
X10107472Y6143904D01*
X10111384Y6142990D01*
X10115346Y6141516D01*
X10119410Y6139586D01*
X10123525Y6137097D01*
X10127183Y6134455D01*
X10130332Y6131763D01*
X10133025Y6128816D01*
X10135209Y6125667D01*
X10136987Y6122212D01*
X10138257Y6118402D01*
X10139070Y6114135D01*
X10139426Y6109411D01*
X10139324Y6104128D01*
X10138765Y6098286D01*
X10137749Y6091783D01*
X10134396Y6076543D01*
X10129164Y6058001D01*
X10123373Y6039561D01*
X10118191Y6025337D01*
X10112857Y6012738D01*
X10107422Y6001867D01*
X10101935Y5992672D01*
X10099192Y5988659D01*
X10093807Y5982004D01*
X10091115Y5979312D01*
X10088473Y5977026D01*
X10085882Y5975197D01*
X10083342Y5973775D01*
X10080853Y5972810D01*
X10078466Y5972251D01*
X10076078Y5972149D01*
X10073792Y5972454D01*
X10071608Y5973216D01*
X10069525Y5974435D01*
X10067493Y5976010D01*
X10065613Y5978093D01*
X10063835Y5980582D01*
X10062159Y5983528D01*
X10059212Y5990742D01*
X10056825Y5999683D01*
X10055047Y6010452D01*
X10053980Y6022949D01*
X10053675Y6037275D01*
X10037047Y6037275D01*
X10034778Y6012738D01*
X10033254Y6001207D01*
X10031272Y5990793D01*
X10028682Y5981141D01*
X10025430Y5971997D01*
X10021366Y5963005D01*
X10016337Y5953912D01*
X10010241Y5944362D01*
X10002926Y5934049D01*
X9984689Y5909818D01*
X9974783Y5895797D01*
X9965791Y5882284D01*
X9954768Y5864301D01*
X9951110Y5858713D01*
X9947706Y5854293D01*
X9944455Y5850991D01*
X9941255Y5848858D01*
X9937953Y5847842D01*
X9934498Y5847943D01*
X9930688Y5849112D01*
X9926472Y5851347D01*
X9921697Y5854598D01*
X9916261Y5858916D01*
X9905949Y5867755D01*
X9897059Y5874207D01*
X9892334Y5877153D01*
X9882378Y5882487D01*
X9871811Y5887059D01*
X9860737Y5890971D01*
X9849256Y5894120D01*
X9837420Y5896559D01*
X9825329Y5898235D01*
X9819233Y5898845D01*
X9806889Y5899454D01*
X9794544Y5899353D01*
X9782251Y5898489D01*
X9770059Y5896965D01*
X9758121Y5894679D01*
X9752228Y5893308D01*
X9740747Y5889955D01*
X9729724Y5885891D01*
X9719157Y5881065D01*
X9709251Y5875578D01*
X9704527Y5872581D01*
X9695637Y5865977D01*
X9685934Y5857494D01*
X9681006Y5853582D01*
X9676587Y5850585D01*
X9672624Y5848604D01*
X9669018Y5847689D01*
X9665665Y5847740D01*
X9662464Y5848908D01*
X9659315Y5851093D01*
X9656064Y5854395D01*
X9652660Y5858814D01*
X9649053Y5864352D01*
X9641890Y5876290D01*
X9633915Y5888685D01*
X9624517Y5902350D01*
X9614916Y5915609D01*
X9597136Y5939078D01*
X9590176Y5949086D01*
X9584537Y5958281D01*
X9579965Y5966968D01*
X9576409Y5975553D01*
X9573615Y5984443D01*
X9571532Y5994044D01*
X9569856Y6004712D01*
X9567418Y6029452D01*
X9564573Y6054648D01*
X9560966Y6078982D01*
X9559188Y6089142D01*
X9556140Y6102807D01*
X9554159Y6110579D01*
X9552025Y6117132D01*
X9549587Y6122924D01*
X9546640Y6128410D01*
X9542932Y6133998D01*
X9538309Y6140246D01*
X9532467Y6147511D01*
X9531350Y6149289D01*
X9529216Y6155283D01*
X9527286Y6164122D01*
X9525558Y6175349D01*
X9524034Y6188456D01*
X9522764Y6202984D01*
X9521698Y6218580D01*
X9520986Y6234684D01*
X9520529Y6250940D01*
X9520377Y6266789D01*
X9507598Y6266789D01*
X9507067Y6255969D01*
X9506813Y6242812D01*
X9506915Y6229400D01*
X9507423Y6215634D01*
X9508286Y6201613D01*
X9509506Y6187236D01*
X9513011Y6155232D01*
X9493453Y6155080D01*
X9488271Y6154623D01*
X9483496Y6153810D01*
X9479026Y6152692D01*
X9474962Y6151270D01*
X9471202Y6149543D01*
X9467850Y6147409D01*
X9464802Y6144971D01*
X9462160Y6142177D01*
X9459823Y6139027D01*
X9457842Y6135522D01*
X9456216Y6131661D01*
X9454946Y6127445D01*
X9453981Y6122822D01*
X9453372Y6117844D01*
X9453129Y6111189D01*
X9465310Y6111189D01*
X9466021Y6116777D01*
X9467392Y6121857D01*
X9469374Y6126530D01*
X9472015Y6130645D01*
X9475114Y6134252D01*
X9478772Y6137249D01*
X9482836Y6139586D01*
X9487255Y6141313D01*
X9492081Y6142380D01*
X9497110Y6142685D01*
X9502444Y6142228D01*
X9507931Y6141008D01*
X9513570Y6138926D01*
X9519259Y6135979D01*
X9522561Y6133693D01*
X9525711Y6130848D01*
X9528657Y6127496D01*
X9531451Y6123686D01*
X9534042Y6119418D01*
X9536430Y6114796D01*
X9538665Y6109766D01*
X9540697Y6104483D01*
X9542576Y6098844D01*
X9544253Y6093002D01*
X9547047Y6080658D01*
X9549130Y6067806D01*
X9550450Y6054699D01*
X9551009Y6041644D01*
X9550806Y6028893D01*
X9549841Y6016853D01*
X9548114Y6005677D01*
X9546996Y6000546D01*
X9545624Y5995771D01*
X9544100Y5991402D01*
X9542373Y5987389D01*
X9540443Y5983884D01*
X9538360Y5980887D01*
X9536023Y5978347D01*
X9533534Y5976467D01*
X9530842Y5975146D01*
X9527946Y5974435D01*
X9524847Y5974435D01*
X9521545Y5975146D01*
X9519259Y5976162D01*
X9516922Y5977636D01*
X9514535Y5979668D01*
X9509556Y5985103D01*
X9507016Y5988456D01*
X9501886Y5996432D01*
X9496704Y6005880D01*
X9491573Y6016650D01*
X9486595Y6028537D01*
X9481769Y6041390D01*
X9477298Y6055004D01*
X9473133Y6069279D01*
X9469424Y6083960D01*
X9466224Y6098895D01*
X9465360Y6105245D01*
X9465310Y6111189D01*
X9453129Y6111189D01*
X9453168Y6106668D01*
X9453575Y6100470D01*
X9454286Y6093917D01*
X9456724Y6079540D01*
X9460484Y6063488D01*
X9465665Y6045200D01*
X9471304Y6027674D01*
X9477044Y6012383D01*
X9479991Y6005525D01*
X9485985Y5993485D01*
X9489084Y5988253D01*
X9492234Y5983528D01*
X9495434Y5979261D01*
X9498736Y5975553D01*
X9502089Y5972251D01*
X9505543Y5969457D01*
X9509150Y5967120D01*
X9512808Y5965190D01*
X9516567Y5963767D01*
X9520478Y5962700D01*
X9524492Y5962091D01*
X9535210Y5961532D01*
X9540494Y5960567D01*
X9544202Y5959043D01*
X9545929Y5957062D01*
X9548317Y5946292D01*
X9554718Y5914948D01*
X9557816Y5902655D01*
X9561474Y5890260D01*
X9565640Y5877864D01*
X9570262Y5865368D01*
X9575342Y5852922D01*
X9580829Y5840526D01*
X9586671Y5828131D01*
X9592919Y5815838D01*
X9601926Y5799429D01*
X9704070Y5799429D01*
X9704324Y5802884D01*
X9705035Y5806236D01*
X9706203Y5809488D01*
X9707829Y5812688D01*
X9709861Y5815736D01*
X9712248Y5818682D01*
X9715093Y5821527D01*
X9718243Y5824220D01*
X9725609Y5829249D01*
X9734245Y5833719D01*
X9743897Y5837580D01*
X9754565Y5840831D01*
X9760204Y5842254D01*
X9771989Y5844489D01*
X9784334Y5846013D01*
X9797135Y5846775D01*
X9810191Y5846724D01*
X9823399Y5845860D01*
X9836607Y5844133D01*
X9843211Y5842914D01*
X9856114Y5839764D01*
X9863175Y5837580D01*
X9869576Y5835243D01*
X9875367Y5832754D01*
X9880549Y5830062D01*
X9885070Y5827217D01*
X9888982Y5824169D01*
X9892284Y5820968D01*
X9894976Y5817514D01*
X9897059Y5813907D01*
X9898532Y5810097D01*
X9899396Y5806033D01*
X9899599Y5801817D01*
X9899243Y5797346D01*
X9898278Y5792622D01*
X9896652Y5787694D01*
X9894468Y5782564D01*
X9891674Y5777179D01*
X9888270Y5771540D01*
X9884257Y5765647D01*
X9879685Y5759500D01*
X9874859Y5753557D01*
X9870135Y5748172D01*
X9861092Y5739079D01*
X9856774Y5735370D01*
X9852660Y5732221D01*
X9848799Y5729579D01*
X9845141Y5727547D01*
X9841738Y5725972D01*
X9838588Y5725007D01*
X9835743Y5724550D01*
X9833254Y5724601D01*
X9831070Y5725210D01*
X9829292Y5726328D01*
X9827869Y5727954D01*
X9826904Y5730087D01*
X9826345Y5732780D01*
X9826193Y5735980D01*
X9826599Y5739638D01*
X9827463Y5743854D01*
X9828834Y5748528D01*
X9830765Y5753760D01*
X9833254Y5759450D01*
X9844836Y5781700D01*
X9835896Y5788660D01*
X9832238Y5790895D01*
X9827463Y5792673D01*
X9821824Y5794095D01*
X9815576Y5795162D01*
X9808921Y5795772D01*
X9802012Y5795975D01*
X9795154Y5795822D01*
X9788499Y5795213D01*
X9782302Y5794248D01*
X9776714Y5792876D01*
X9772091Y5791047D01*
X9768484Y5788863D01*
X9760102Y5782106D01*
X9768027Y5765241D01*
X9771126Y5757926D01*
X9773361Y5751118D01*
X9774732Y5744819D01*
X9775291Y5739180D01*
X9775037Y5734304D01*
X9774072Y5730240D01*
X9772396Y5727039D01*
X9770008Y5724855D01*
X9766960Y5723737D01*
X9763252Y5723737D01*
X9758984Y5724956D01*
X9754158Y5727547D01*
X9750399Y5730189D01*
X9746437Y5733491D01*
X9742322Y5737402D01*
X9733940Y5746546D01*
X9729774Y5751576D01*
X9721850Y5762244D01*
X9714788Y5773115D01*
X9711791Y5778347D01*
X9707016Y5788050D01*
X9705441Y5792368D01*
X9704425Y5796178D01*
X9704070Y5799429D01*
X9601926Y5799429D01*
X9613646Y5779871D01*
X9621113Y5768238D01*
X9628835Y5756808D01*
X9636810Y5745683D01*
X9644938Y5734812D01*
X9653270Y5724296D01*
X9661702Y5714136D01*
X9670288Y5704332D01*
X9678974Y5694934D01*
X9687763Y5685993D01*
X9696551Y5677509D01*
X9705390Y5669534D01*
X9714179Y5662066D01*
X9722967Y5655157D01*
X9731705Y5648858D01*
X9740392Y5643118D01*
X9748977Y5638038D01*
X9757410Y5633669D01*
X9765690Y5629960D01*
X9773767Y5626963D01*
X9781692Y5624728D01*
X9789363Y5623306D01*
X9796830Y5622696D01*
X9800437Y5622696D01*
X9807448Y5623356D01*
X9815372Y5625134D01*
X9824466Y5627878D01*
X9833610Y5631180D01*
X9842804Y5635091D01*
X9851999Y5639562D01*
X9861143Y5644591D01*
X9870287Y5650128D01*
X9879431Y5656173D01*
X9888474Y5662726D01*
X9897465Y5669737D01*
X9906355Y5677204D01*
X9915144Y5685078D01*
X9923830Y5693359D01*
X9932416Y5702046D01*
X9940798Y5711088D01*
X9949027Y5720486D01*
X9957104Y5730189D01*
X9964978Y5740247D01*
X9972649Y5750560D01*
X9980066Y5761126D01*
X9987280Y5771997D01*
X9994239Y5783072D01*
X10000894Y5794349D01*
X10007295Y5805830D01*
X10013391Y5817463D01*
X10019131Y5829300D01*
X10024567Y5841187D01*
X10029647Y5853226D01*
X10034371Y5865368D01*
X10038740Y5877610D01*
X10042652Y5889853D01*
X10046208Y5902147D01*
X10049306Y5914440D01*
X10051999Y5926785D01*
X10058044Y5959957D01*
X10083241Y5962548D01*
X10087000Y5963158D01*
X10093960Y5965088D01*
X10097211Y5966358D01*
X10100259Y5967933D01*
X10103205Y5969762D01*
X10106050Y5971895D01*
X10108742Y5974384D01*
X10111333Y5977178D01*
X10113873Y5980379D01*
X10116362Y5983986D01*
X10121138Y5992418D01*
X10125862Y6002680D01*
X10130586Y6014974D01*
X10135463Y6029502D01*
X10140594Y6046368D01*
X10148062Y6073343D01*
X10151008Y6087364D01*
X10152024Y6093815D01*
X10152684Y6099962D01*
X10153040Y6105753D01*
X10153040Y6111240D01*
X10152735Y6116370D01*
X10152126Y6121146D01*
X10151160Y6125616D01*
X10149840Y6129782D01*
X10148214Y6133592D01*
X10146233Y6137097D01*
X10143947Y6140297D01*
X10141305Y6143142D01*
X10138359Y6145733D01*
X10135057Y6147968D01*
X10131399Y6149898D01*
X10127386Y6151524D01*
X10123068Y6152896D01*
X10118394Y6153912D01*
X10113365Y6154623D01*
X10107980Y6155080D01*
X10085476Y6155232D01*
X10085374Y6251600D01*
X10085019Y6268212D01*
X10084308Y6283553D01*
X10083292Y6297625D01*
X10081869Y6310680D01*
X10080040Y6322822D01*
X10077805Y6334150D01*
X10075011Y6344818D01*
X10071709Y6354978D01*
X10067798Y6364732D01*
X10063327Y6374180D01*
X10058196Y6383528D01*
X10052354Y6392875D01*
X10045801Y6402374D01*
X10038486Y6412128D01*
X10030358Y6422288D01*
X10023195Y6430467D01*
X10015524Y6438392D01*
X10007346Y6446012D01*
X9998659Y6453327D01*
X9989566Y6460337D01*
X9980015Y6467043D01*
X9970058Y6473393D01*
X9959746Y6479438D01*
X9949078Y6485077D01*
X9938105Y6490360D01*
X9926878Y6495338D01*
X9915347Y6499860D01*
X9903612Y6504025D01*
X9891623Y6507835D01*
X9879533Y6511188D01*
X9867239Y6514134D01*
X9854793Y6516674D01*
X9842296Y6518808D01*
X9829698Y6520434D01*
X9817100Y6521653D01*
X9804450Y6522415D01*
G37*
D10*
X1732026Y1429004D02*
G01*
X1719326Y1422654D01*
X1706626Y1409954D01*
X1700276Y1397254D01*
X1700276Y1371600D01*
X1706626Y1358900D01*
X1719326Y1346200D01*
X1732026Y1339850D01*
X1751076Y1333500D01*
X1783079Y1333500D01*
X1802129Y1339850D01*
X1814829Y1346200D01*
X1827529Y1358900D01*
X1833879Y1371600D01*
X1833879Y1397254D01*
X1827529Y1409954D01*
X1814829Y1422654D01*
X1802129Y1429004D01*
X1700276Y1509013D02*
G01*
X1706626Y1496313D01*
X1719326Y1483613D01*
X1732026Y1477263D01*
X1751076Y1470913D01*
X1783079Y1470913D01*
X1802129Y1477263D01*
X1814829Y1483613D01*
X1827529Y1496313D01*
X1833879Y1509013D01*
X1833879Y1534668D01*
X1827529Y1547368D01*
X1814829Y1560068D01*
X1802129Y1566418D01*
X1783079Y1572768D01*
X1751076Y1572768D01*
X1732026Y1566418D01*
X1719326Y1560068D01*
X1706626Y1547368D01*
X1700276Y1534668D01*
X1700276Y1509013D01*
X1700276Y1614678D02*
G01*
X1833879Y1614678D01*
X1700276Y1614678D02*
G01*
X1833879Y1703831D01*
X1700276Y1703831D02*
G01*
X1833879Y1703831D01*
X1700276Y1745742D02*
G01*
X1833879Y1745742D01*
X1700276Y1745742D02*
G01*
X1700276Y1790445D01*
X1706626Y1809495D01*
X1719326Y1822195D01*
X1732026Y1828545D01*
X1751076Y1834895D01*
X1783079Y1834895D01*
X1802129Y1828545D01*
X1814829Y1822195D01*
X1827529Y1809495D01*
X1833879Y1790445D01*
X1833879Y1745742D01*
X2227325Y1429004D02*
G01*
X2214625Y1422654D01*
X2201925Y1409954D01*
X2195575Y1397254D01*
X2195575Y1371600D01*
X2201925Y1358900D01*
X2214625Y1346200D01*
X2227325Y1339850D01*
X2246375Y1333500D01*
X2278379Y1333500D01*
X2297429Y1339850D01*
X2310129Y1346200D01*
X2322829Y1358900D01*
X2329179Y1371600D01*
X2329179Y1397254D01*
X2322829Y1409954D01*
X2310129Y1422654D01*
X2297429Y1429004D01*
X2195575Y1509013D02*
G01*
X2201925Y1496313D01*
X2214625Y1483613D01*
X2227325Y1477263D01*
X2246375Y1470913D01*
X2278379Y1470913D01*
X2297429Y1477263D01*
X2310129Y1483613D01*
X2322829Y1496313D01*
X2329179Y1509013D01*
X2329179Y1534668D01*
X2322829Y1547368D01*
X2310129Y1560068D01*
X2297429Y1566418D01*
X2278379Y1572768D01*
X2246375Y1572768D01*
X2227325Y1566418D01*
X2214625Y1560068D01*
X2201925Y1547368D01*
X2195575Y1534668D01*
X2195575Y1509013D01*
X2195575Y1614678D02*
G01*
X2329179Y1614678D01*
X2195575Y1614678D02*
G01*
X2329179Y1703831D01*
X2195575Y1703831D02*
G01*
X2329179Y1703831D01*
X2195575Y1745742D02*
G01*
X2329179Y1745742D01*
X2195575Y1745742D02*
G01*
X2195575Y1790445D01*
X2201925Y1809495D01*
X2214625Y1822195D01*
X2227325Y1828545D01*
X2246375Y1834895D01*
X2278379Y1834895D01*
X2297429Y1828545D01*
X2310129Y1822195D01*
X2322829Y1809495D01*
X2329179Y1790445D01*
X2329179Y1745742D01*
X2716275Y1346200D02*
G01*
X2849879Y1346200D01*
X2716275Y1346200D02*
G01*
X2716275Y1429004D01*
X2779775Y1346200D02*
G01*
X2779775Y1397000D01*
X2716275Y1470913D02*
G01*
X2849879Y1470913D01*
X2716275Y1470913D02*
G01*
X2716275Y1528318D01*
X2722625Y1547368D01*
X2728975Y1553718D01*
X2741675Y1560068D01*
X2754375Y1560068D01*
X2767075Y1553718D01*
X2773425Y1547368D01*
X2779775Y1528318D01*
X2779775Y1470913D01*
X2779775Y1515363D02*
G01*
X2849879Y1560068D01*
X2716275Y1691131D02*
G01*
X2849879Y1601978D01*
X2716275Y1601978D02*
G01*
X2716275Y1691131D01*
X2849879Y1601978D02*
G01*
X2849879Y1691131D01*
X3224275Y1346200D02*
G01*
X3357879Y1346200D01*
X3224275Y1346200D02*
G01*
X3224275Y1429004D01*
X3287775Y1346200D02*
G01*
X3287775Y1397000D01*
X3224275Y1470913D02*
G01*
X3357879Y1470913D01*
X3224275Y1470913D02*
G01*
X3224275Y1528318D01*
X3230625Y1547368D01*
X3236975Y1553718D01*
X3249675Y1560068D01*
X3262375Y1560068D01*
X3275075Y1553718D01*
X3281425Y1547368D01*
X3287775Y1528318D01*
X3287775Y1470913D01*
X3287775Y1515363D02*
G01*
X3357879Y1560068D01*
X3224275Y1691131D02*
G01*
X3357879Y1601978D01*
X3224275Y1601978D02*
G01*
X3224275Y1691131D01*
X3357879Y1601978D02*
G01*
X3357879Y1691131D01*
X3732275Y1346200D02*
G01*
X3865879Y1346200D01*
X3865879Y1346200D02*
G01*
X3865879Y1422654D01*
X3732275Y1464563D02*
G01*
X3865879Y1464563D01*
X3732275Y1464563D02*
G01*
X3732275Y1521713D01*
X3738625Y1541018D01*
X3744975Y1547368D01*
X3757675Y1553718D01*
X3776725Y1553718D01*
X3789425Y1547368D01*
X3795775Y1541018D01*
X3802125Y1521713D01*
X3802125Y1464563D01*
X3751325Y1684781D02*
G01*
X3738625Y1672081D01*
X3732275Y1653031D01*
X3732275Y1627378D01*
X3738625Y1608328D01*
X3751325Y1595628D01*
X3764025Y1595628D01*
X3776725Y1601978D01*
X3783075Y1608328D01*
X3789425Y1621028D01*
X3802125Y1659381D01*
X3808475Y1672081D01*
X3815079Y1678431D01*
X3827779Y1684781D01*
X3846829Y1684781D01*
X3859529Y1672081D01*
X3865879Y1653031D01*
X3865879Y1627378D01*
X3859529Y1608328D01*
X3846829Y1595628D01*
X4240275Y1346200D02*
G01*
X4373879Y1346200D01*
X4373879Y1346200D02*
G01*
X4373879Y1422654D01*
X4240275Y1464563D02*
G01*
X4373879Y1464563D01*
X4240275Y1464563D02*
G01*
X4240275Y1521713D01*
X4246625Y1541018D01*
X4252975Y1547368D01*
X4265675Y1553718D01*
X4284725Y1553718D01*
X4297425Y1547368D01*
X4303775Y1541018D01*
X4310125Y1521713D01*
X4310125Y1464563D01*
X4259325Y1684781D02*
G01*
X4246625Y1672081D01*
X4240275Y1653031D01*
X4240275Y1627378D01*
X4246625Y1608328D01*
X4259325Y1595628D01*
X4272025Y1595628D01*
X4284725Y1601978D01*
X4291075Y1608328D01*
X4297425Y1621028D01*
X4310125Y1659381D01*
X4316475Y1672081D01*
X4323079Y1678431D01*
X4335779Y1684781D01*
X4354829Y1684781D01*
X4367529Y1672081D01*
X4373879Y1653031D01*
X4373879Y1627378D01*
X4367529Y1608328D01*
X4354829Y1595628D01*
X4748275Y1346200D02*
G01*
X4881879Y1346200D01*
X4748275Y1435354D02*
G01*
X4881879Y1435354D01*
X4811775Y1346200D02*
G01*
X4811775Y1435354D01*
X4748275Y1477263D02*
G01*
X4881879Y1477263D01*
X4748275Y1477263D02*
G01*
X4748275Y1534668D01*
X4754625Y1553718D01*
X4760975Y1560068D01*
X4773675Y1566418D01*
X4792725Y1566418D01*
X4805425Y1560068D01*
X4811775Y1553718D01*
X4818125Y1534668D01*
X4818125Y1477263D01*
X4767325Y1697481D02*
G01*
X4754625Y1684781D01*
X4748275Y1665731D01*
X4748275Y1640078D01*
X4754625Y1621028D01*
X4767325Y1608328D01*
X4780025Y1608328D01*
X4792725Y1614678D01*
X4799075Y1621028D01*
X4805425Y1633728D01*
X4818125Y1672081D01*
X4824475Y1684781D01*
X4831079Y1691131D01*
X4843779Y1697481D01*
X4862829Y1697481D01*
X4875529Y1684781D01*
X4881879Y1665731D01*
X4881879Y1640078D01*
X4875529Y1621028D01*
X4862829Y1608328D01*
X5268975Y1346200D02*
G01*
X5402579Y1346200D01*
X5268975Y1435354D02*
G01*
X5402579Y1435354D01*
X5332475Y1346200D02*
G01*
X5332475Y1435354D01*
X5268975Y1477263D02*
G01*
X5402579Y1477263D01*
X5268975Y1477263D02*
G01*
X5268975Y1534668D01*
X5275325Y1553718D01*
X5281675Y1560068D01*
X5294375Y1566418D01*
X5313425Y1566418D01*
X5326125Y1560068D01*
X5332475Y1553718D01*
X5338825Y1534668D01*
X5338825Y1477263D01*
X5288025Y1697481D02*
G01*
X5275325Y1684781D01*
X5268975Y1665731D01*
X5268975Y1640078D01*
X5275325Y1621028D01*
X5288025Y1608328D01*
X5300725Y1608328D01*
X5313425Y1614678D01*
X5319775Y1621028D01*
X5326125Y1633728D01*
X5338825Y1672081D01*
X5345175Y1684781D01*
X5351779Y1691131D01*
X5364479Y1697481D01*
X5383529Y1697481D01*
X5396229Y1684781D01*
X5402579Y1665731D01*
X5402579Y1640078D01*
X5396229Y1621028D01*
X5383529Y1608328D01*
X5776975Y1346200D02*
G01*
X5910579Y1346200D01*
X5776975Y1346200D02*
G01*
X5776975Y1403350D01*
X5783325Y1422654D01*
X5789675Y1429004D01*
X5802375Y1435354D01*
X5815075Y1435354D01*
X5827775Y1429004D01*
X5834125Y1422654D01*
X5840475Y1403350D01*
X5840475Y1346200D01*
X5840475Y1390650D02*
G01*
X5910579Y1435354D01*
X5776975Y1477263D02*
G01*
X5910579Y1477263D01*
X5776975Y1477263D02*
G01*
X5776975Y1560068D01*
X5840475Y1477263D02*
G01*
X5840475Y1528318D01*
X5910579Y1477263D02*
G01*
X5910579Y1560068D01*
X5776975Y1601978D02*
G01*
X5910579Y1653031D01*
X5776975Y1703831D02*
G01*
X5910579Y1653031D01*
X6316725Y1429004D02*
G01*
X6304025Y1422654D01*
X6291325Y1409954D01*
X6284975Y1397254D01*
X6284975Y1371600D01*
X6291325Y1358900D01*
X6304025Y1346200D01*
X6316725Y1339850D01*
X6335775Y1333500D01*
X6367779Y1333500D01*
X6386829Y1339850D01*
X6399529Y1346200D01*
X6412229Y1358900D01*
X6418579Y1371600D01*
X6418579Y1397254D01*
X6412229Y1409954D01*
X6399529Y1422654D01*
X6386829Y1429004D01*
X6284975Y1509013D02*
G01*
X6291325Y1496313D01*
X6304025Y1483613D01*
X6316725Y1477263D01*
X6335775Y1470913D01*
X6367779Y1470913D01*
X6386829Y1477263D01*
X6399529Y1483613D01*
X6412229Y1496313D01*
X6418579Y1509013D01*
X6418579Y1534668D01*
X6412229Y1547368D01*
X6399529Y1560068D01*
X6386829Y1566418D01*
X6367779Y1572768D01*
X6335775Y1572768D01*
X6316725Y1566418D01*
X6304025Y1560068D01*
X6291325Y1547368D01*
X6284975Y1534668D01*
X6284975Y1509013D01*
X6284975Y1614678D02*
G01*
X6418579Y1614678D01*
X6284975Y1614678D02*
G01*
X6418579Y1665731D01*
X6284975Y1716531D02*
G01*
X6418579Y1665731D01*
X6284975Y1716531D02*
G01*
X6418579Y1716531D01*
X6284975Y1758695D02*
G01*
X6418579Y1758695D01*
X6284975Y1758695D02*
G01*
X6284975Y1815845D01*
X6291325Y1834895D01*
X6297675Y1841245D01*
X6310375Y1847595D01*
X6329425Y1847595D01*
X6342125Y1841245D01*
X6348475Y1834895D01*
X6354825Y1815845D01*
X6354825Y1758695D01*
X6780275Y1346200D02*
G01*
X6913879Y1346200D01*
X6799325Y1477263D02*
G01*
X6786625Y1464563D01*
X6780275Y1445513D01*
X6780275Y1420113D01*
X6786625Y1400810D01*
X6799325Y1388110D01*
X6812025Y1388110D01*
X6824725Y1394460D01*
X6831075Y1400810D01*
X6837425Y1413763D01*
X6850125Y1451863D01*
X6856475Y1464563D01*
X6863079Y1470913D01*
X6875779Y1477263D01*
X6894829Y1477263D01*
X6907529Y1464563D01*
X6913879Y1445513D01*
X6913879Y1420113D01*
X6907529Y1400810D01*
X6894829Y1388110D01*
X6780275Y1557528D02*
G01*
X6786625Y1544828D01*
X6799325Y1532128D01*
X6812025Y1525778D01*
X6831075Y1519173D01*
X6863079Y1519173D01*
X6882129Y1525778D01*
X6894829Y1532128D01*
X6907529Y1544828D01*
X6913879Y1557528D01*
X6913879Y1582928D01*
X6907529Y1595628D01*
X6894829Y1608328D01*
X6882129Y1614678D01*
X6863079Y1621028D01*
X6831075Y1621028D01*
X6812025Y1614678D01*
X6799325Y1608328D01*
X6786625Y1595628D01*
X6780275Y1582928D01*
X6780275Y1557528D01*
X7288275Y1346200D02*
G01*
X7421879Y1346200D01*
X7307325Y1477263D02*
G01*
X7294625Y1464563D01*
X7288275Y1445513D01*
X7288275Y1420113D01*
X7294625Y1400810D01*
X7307325Y1388110D01*
X7320025Y1388110D01*
X7332725Y1394460D01*
X7339075Y1400810D01*
X7345425Y1413763D01*
X7358125Y1451863D01*
X7364475Y1464563D01*
X7371079Y1470913D01*
X7383779Y1477263D01*
X7402829Y1477263D01*
X7415529Y1464563D01*
X7421879Y1445513D01*
X7421879Y1420113D01*
X7415529Y1400810D01*
X7402829Y1388110D01*
X7288275Y1557528D02*
G01*
X7294625Y1544828D01*
X7307325Y1532128D01*
X7320025Y1525778D01*
X7339075Y1519173D01*
X7371079Y1519173D01*
X7390129Y1525778D01*
X7402829Y1532128D01*
X7415529Y1544828D01*
X7421879Y1557528D01*
X7421879Y1582928D01*
X7415529Y1595628D01*
X7402829Y1608328D01*
X7390129Y1614678D01*
X7371079Y1621028D01*
X7339075Y1621028D01*
X7320025Y1614678D01*
X7307325Y1608328D01*
X7294625Y1595628D01*
X7288275Y1582928D01*
X7288275Y1557528D01*
X7808975Y1346200D02*
G01*
X7942579Y1346200D01*
X7808975Y1346200D02*
G01*
X7808975Y1429004D01*
X7872475Y1346200D02*
G01*
X7872475Y1397000D01*
X7808975Y1521713D02*
G01*
X7942579Y1470913D01*
X7808975Y1521713D02*
G01*
X7942579Y1572768D01*
X7898129Y1489963D02*
G01*
X7898129Y1553718D01*
X7808975Y1614678D02*
G01*
X7942579Y1614678D01*
X7808975Y1614678D02*
G01*
X7942579Y1703831D01*
X7808975Y1703831D02*
G01*
X7942579Y1703831D01*
X8304275Y1384300D02*
G01*
X8310625Y1371600D01*
X8323325Y1358900D01*
X8336025Y1352550D01*
X8355075Y1346200D01*
X8387079Y1346200D01*
X8406129Y1352550D01*
X8418829Y1358900D01*
X8431529Y1371600D01*
X8437879Y1384300D01*
X8437879Y1409954D01*
X8431529Y1422654D01*
X8418829Y1435354D01*
X8406129Y1441704D01*
X8387079Y1448054D01*
X8355075Y1448054D01*
X8336025Y1441704D01*
X8323325Y1435354D01*
X8310625Y1422654D01*
X8304275Y1409954D01*
X8304275Y1384300D01*
X8812275Y1358900D02*
G01*
X8875775Y1409700D01*
X8945879Y1409700D01*
X8812275Y1460754D02*
G01*
X8875775Y1409700D01*
X9339325Y1454404D02*
G01*
X9326625Y1448054D01*
X9313925Y1435354D01*
X9307575Y1422654D01*
X9307575Y1397000D01*
X9313925Y1384300D01*
X9326625Y1371600D01*
X9339325Y1365250D01*
X9358375Y1358900D01*
X9390379Y1358900D01*
X9409429Y1365250D01*
X9422129Y1371600D01*
X9434829Y1384300D01*
X9441179Y1397000D01*
X9441179Y1422654D01*
X9434829Y1435354D01*
X9422129Y1448054D01*
X9409429Y1454404D01*
X9390379Y1454404D01*
X9390379Y1422654D02*
G01*
X9390379Y1454404D01*
X9860025Y1441704D02*
G01*
X9847325Y1435354D01*
X9834625Y1422654D01*
X9828275Y1409954D01*
X9828275Y1384300D01*
X9834625Y1371600D01*
X9847325Y1358900D01*
X9860025Y1352550D01*
X9879075Y1346200D01*
X9911079Y1346200D01*
X9930129Y1352550D01*
X9942829Y1358900D01*
X9955529Y1371600D01*
X9961879Y1384300D01*
X9961879Y1409954D01*
X9955529Y1422654D01*
X9942829Y1435354D01*
X9930129Y1441704D01*
X10336275Y1358900D02*
G01*
X10469879Y1358900D01*
X10336275Y1358900D02*
G01*
X10336275Y1416050D01*
X10342625Y1435354D01*
X10348975Y1441704D01*
X10361675Y1448054D01*
X10374375Y1448054D01*
X10387075Y1441704D01*
X10393425Y1435354D01*
X10399775Y1416050D01*
X10399775Y1358900D01*
X10399775Y1403350D02*
G01*
X10469879Y1448054D01*
D11*
X453897Y3217163D02*
G01*
X444754Y3235197D01*
X426465Y3253486D01*
X408431Y3262629D01*
X372110Y3262629D01*
X353821Y3253486D01*
X335787Y3235197D01*
X326644Y3217163D01*
X317500Y3189731D01*
X317500Y3144265D01*
X326644Y3117087D01*
X335787Y3098800D01*
X353821Y3080765D01*
X372110Y3071621D01*
X408431Y3071621D01*
X426465Y3080765D01*
X444754Y3098800D01*
X453897Y3117087D01*
X453897Y3144265D01*
X408431Y3144265D02*
G01*
X453897Y3144265D01*
X513842Y3262629D02*
G01*
X513842Y3071621D01*
X513842Y3262629D02*
G01*
X641095Y3071621D01*
X641095Y3262629D02*
G01*
X641095Y3071621D01*
X701039Y3262629D02*
G01*
X701039Y3071621D01*
X701039Y3262629D02*
G01*
X764794Y3262629D01*
X791971Y3253486D01*
X810260Y3235197D01*
X819404Y3217163D01*
X828294Y3189731D01*
X828294Y3144265D01*
X819404Y3117087D01*
X810260Y3098800D01*
X791971Y3080765D01*
X764794Y3071621D01*
X701039Y3071621D01*
X415797Y1896363D02*
G01*
X406654Y1914397D01*
X388365Y1932686D01*
X370331Y1941829D01*
X334010Y1941829D01*
X315721Y1932686D01*
X297687Y1914397D01*
X288544Y1896363D01*
X279400Y1868931D01*
X279400Y1823465D01*
X288544Y1796287D01*
X297687Y1778000D01*
X315721Y1759965D01*
X334010Y1750821D01*
X370331Y1750821D01*
X388365Y1759965D01*
X406654Y1778000D01*
X415797Y1796287D01*
X530352Y1941829D02*
G01*
X512063Y1932686D01*
X494029Y1914397D01*
X484886Y1896363D01*
X475742Y1868931D01*
X475742Y1823465D01*
X484886Y1796287D01*
X494029Y1778000D01*
X512063Y1759965D01*
X530352Y1750821D01*
X566673Y1750821D01*
X584962Y1759965D01*
X602995Y1778000D01*
X612139Y1796287D01*
X621284Y1823465D01*
X621284Y1868931D01*
X612139Y1896363D01*
X602995Y1914397D01*
X584962Y1932686D01*
X566673Y1941829D01*
X530352Y1941829D01*
X681228Y1941829D02*
G01*
X681228Y1750821D01*
X681228Y1941829D02*
G01*
X753871Y1750821D01*
X826770Y1941829D02*
G01*
X753871Y1750821D01*
X826770Y1941829D02*
G01*
X826770Y1750821D01*
X8721597Y8640063D02*
G01*
X8712454Y8658097D01*
X8694165Y8676386D01*
X8676131Y8685529D01*
X8639809Y8685529D01*
X8621522Y8676386D01*
X8603488Y8658097D01*
X8594343Y8640063D01*
X8585200Y8612631D01*
X8585200Y8567165D01*
X8594343Y8539987D01*
X8603488Y8521700D01*
X8621522Y8503665D01*
X8639809Y8494521D01*
X8676131Y8494521D01*
X8694165Y8503665D01*
X8712454Y8521700D01*
X8721597Y8539987D01*
X8836152Y8685529D02*
G01*
X8817863Y8676386D01*
X8799829Y8658097D01*
X8790686Y8640063D01*
X8781541Y8612631D01*
X8781541Y8567165D01*
X8790686Y8539987D01*
X8799829Y8521700D01*
X8817863Y8503665D01*
X8836152Y8494521D01*
X8872474Y8494521D01*
X8890761Y8503665D01*
X8908795Y8521700D01*
X8917940Y8539987D01*
X8927084Y8567165D01*
X8927084Y8612631D01*
X8917940Y8640063D01*
X8908795Y8658097D01*
X8890761Y8676386D01*
X8872474Y8685529D01*
X8836152Y8685529D01*
X8987027Y8685529D02*
G01*
X8987027Y8494521D01*
X8987027Y8685529D02*
G01*
X9114281Y8494521D01*
X9114281Y8685529D02*
G01*
X9114281Y8494521D01*
X9174225Y8685529D02*
G01*
X9174225Y8494521D01*
X9174225Y8685529D02*
G01*
X9237979Y8685529D01*
X9265158Y8676386D01*
X9283445Y8658097D01*
X9292590Y8640063D01*
X9301479Y8612631D01*
X9301479Y8567165D01*
X9292590Y8539987D01*
X9283445Y8521700D01*
X9265158Y8503665D01*
X9237979Y8494521D01*
X9174225Y8494521D01*
X9361677Y8576310D02*
G01*
X9525254Y8576310D01*
X9712452Y8658097D02*
G01*
X9694163Y8676386D01*
X9666986Y8685529D01*
X9630663Y8685529D01*
X9603486Y8676386D01*
X9585197Y8658097D01*
X9585197Y8640063D01*
X9594341Y8621776D01*
X9603486Y8612631D01*
X9621520Y8603487D01*
X9676129Y8585454D01*
X9694163Y8576310D01*
X9703308Y8567165D01*
X9712452Y8549131D01*
X9712452Y8521700D01*
X9694163Y8503665D01*
X9666986Y8494521D01*
X9630663Y8494521D01*
X9603486Y8503665D01*
X9585197Y8521700D01*
X9772395Y8685529D02*
G01*
X9772395Y8494521D01*
X9772395Y8685529D02*
G01*
X9890759Y8685529D01*
X9772395Y8594597D02*
G01*
X9845293Y8594597D01*
X9772395Y8494521D02*
G01*
X9890759Y8494521D01*
X9950704Y8685529D02*
G01*
X9950704Y8494521D01*
X9950704Y8685529D02*
G01*
X10077958Y8494521D01*
X10077958Y8685529D02*
G01*
X10077958Y8494521D01*
X10265156Y8658097D02*
G01*
X10247122Y8676386D01*
X10219690Y8685529D01*
X10183368Y8685529D01*
X10156190Y8676386D01*
X10137902Y8658097D01*
X10137902Y8640063D01*
X10147045Y8621776D01*
X10156190Y8612631D01*
X10174224Y8603487D01*
X10228834Y8585454D01*
X10247122Y8576310D01*
X10256011Y8567165D01*
X10265156Y8549131D01*
X10265156Y8521700D01*
X10247122Y8503665D01*
X10219690Y8494521D01*
X10183368Y8494521D01*
X10156190Y8503665D01*
X10137902Y8521700D01*
X10325100Y8685529D02*
G01*
X10325100Y8494521D01*
X10325100Y8685529D02*
G01*
X10443463Y8685529D01*
X10325100Y8594597D02*
G01*
X10397997Y8594597D01*
X10325100Y8494521D02*
G01*
X10443463Y8494521D01*
D10*
X6769100Y8833358D02*
G01*
X6769100Y8718804D01*
X6769100Y8833358D02*
G01*
X6839965Y8833358D01*
X6769100Y8778747D02*
G01*
X6812788Y8778747D01*
X6914134Y8833358D02*
G01*
X6914134Y8718804D01*
X6876034Y8833358D02*
G01*
X6952488Y8833358D01*
X6988302Y8833358D02*
G01*
X6988302Y8718804D01*
X6988302Y8833358D02*
G01*
X7026656Y8833358D01*
X7042911Y8827770D01*
X7053834Y8816847D01*
X7059168Y8805926D01*
X7064756Y8789670D01*
X7064756Y8762492D01*
X7059168Y8745981D01*
X7053834Y8735060D01*
X7042911Y8724137D01*
X7026656Y8718804D01*
X6988302Y8718804D01*
X7100824Y8833358D02*
G01*
X7100824Y8718804D01*
X7220711Y8833358D02*
G01*
X7220711Y8718804D01*
X7220711Y8833358D02*
G01*
X7269734Y8833358D01*
X7286243Y8827770D01*
X7291577Y8822436D01*
X7297165Y8811513D01*
X7297165Y8795004D01*
X7291577Y8784081D01*
X7286243Y8778747D01*
X7269734Y8773413D01*
X7220711Y8773413D01*
X7332979Y8833358D02*
G01*
X7332979Y8718804D01*
X7332979Y8833358D02*
G01*
X7382256Y8833358D01*
X7398511Y8827770D01*
X7404100Y8822436D01*
X7409434Y8811513D01*
X7409434Y8800592D01*
X7404100Y8789670D01*
X7398511Y8784081D01*
X7382256Y8778747D01*
X7332979Y8778747D01*
X7371334Y8778747D02*
G01*
X7409434Y8718804D01*
X7527290Y8805926D02*
G01*
X7521702Y8816847D01*
X7511034Y8827770D01*
X7500111Y8833358D01*
X7478268Y8833358D01*
X7467345Y8827770D01*
X7456424Y8816847D01*
X7450836Y8805926D01*
X7445502Y8789670D01*
X7445502Y8762492D01*
X7450836Y8745981D01*
X7456424Y8735060D01*
X7467345Y8724137D01*
X7478268Y8718804D01*
X7500111Y8718804D01*
X7511034Y8724137D01*
X7521702Y8735060D01*
X7527290Y8745981D01*
X7527290Y8762492D01*
X7500111Y8762492D02*
G01*
X7527290Y8762492D01*
X7563358Y8833358D02*
G01*
X7563358Y8718804D01*
X7563358Y8833358D02*
G01*
X7606791Y8718804D01*
X7650479Y8833358D02*
G01*
X7606791Y8718804D01*
X7650479Y8833358D02*
G01*
X7650479Y8718804D01*
D12*
X7786115Y8208010D02*
G01*
X7778750Y8204200D01*
X7771384Y8197087D01*
X7767827Y8189721D01*
X7767827Y8175244D01*
X7771384Y8167878D01*
X7778750Y8160765D01*
X7786115Y8156955D01*
X7797038Y8153400D01*
X7815072Y8153400D01*
X7825993Y8156955D01*
X7833359Y8160765D01*
X7840725Y8167878D01*
X7844281Y8175244D01*
X7844281Y8189721D01*
X7840725Y8197087D01*
X7833359Y8204200D01*
X7825993Y8208010D01*
X7815072Y8208010D01*
X7815072Y8189721D02*
G01*
X7815072Y8208010D01*
X7767827Y8231886D02*
G01*
X7844281Y8231886D01*
X7767827Y8231886D02*
G01*
X7844281Y8282939D01*
X7767827Y8282939D02*
G01*
X7844281Y8282939D01*
X7767827Y8306815D02*
G01*
X7844281Y8306815D01*
X7767827Y8306815D02*
G01*
X7767827Y8332215D01*
X7771384Y8343137D01*
X7778750Y8350504D01*
X7786115Y8354060D01*
X7797038Y8357870D01*
X7815072Y8357870D01*
X7825993Y8354060D01*
X7833359Y8350504D01*
X7840725Y8343137D01*
X7844281Y8332215D01*
X7844281Y8306815D01*
X7247127Y8273287D02*
G01*
X7247127Y8236965D01*
X7279893Y8233155D01*
X7276338Y8236965D01*
X7272527Y8247887D01*
X7272527Y8258810D01*
X7276338Y8269478D01*
X7283450Y8276844D01*
X7294372Y8280400D01*
X7301738Y8280400D01*
X7312659Y8276844D01*
X7320025Y8269478D01*
X7323581Y8258810D01*
X7323581Y8247887D01*
X7320025Y8236965D01*
X7316215Y8233155D01*
X7309104Y8229600D01*
X7247127Y8304529D02*
G01*
X7323581Y8333486D01*
X7247127Y8362695D02*
G01*
X7323581Y8333486D01*
X6993127Y8229600D02*
G01*
X7069581Y8229600D01*
X6993127Y8229600D02*
G01*
X6993127Y8262365D01*
X6996684Y8273287D01*
X7000493Y8276844D01*
X7007606Y8280400D01*
X7014972Y8280400D01*
X7022338Y8276844D01*
X7025893Y8273287D01*
X7029450Y8262365D01*
X7029450Y8229600D01*
X7029450Y8255000D02*
G01*
X7069581Y8280400D01*
X6993127Y8304529D02*
G01*
X7069581Y8355329D01*
X6993127Y8355329D02*
G01*
X7069581Y8304529D01*
X6739127Y8255000D02*
G01*
X6815581Y8255000D01*
X6739127Y8229600D02*
G01*
X6739127Y8280400D01*
X6739127Y8304529D02*
G01*
X6815581Y8355329D01*
X6739127Y8355329D02*
G01*
X6815581Y8304529D01*
X6485127Y8166100D02*
G01*
X6561581Y8166100D01*
X6485127Y8166100D02*
G01*
X6485127Y8191500D01*
X6488684Y8202421D01*
X6496050Y8209787D01*
X6503415Y8213344D01*
X6514338Y8216900D01*
X6532372Y8216900D01*
X6543293Y8213344D01*
X6550659Y8209787D01*
X6558025Y8202421D01*
X6561581Y8191500D01*
X6561581Y8166100D01*
X6485127Y8266429D02*
G01*
X6561581Y8266429D01*
X6485127Y8241029D02*
G01*
X6485127Y8291829D01*
X6485127Y8315960D02*
G01*
X6561581Y8315960D01*
X6485127Y8315960D02*
G01*
X6485127Y8348726D01*
X6488684Y8359647D01*
X6492493Y8363204D01*
X6499606Y8366760D01*
X6506972Y8366760D01*
X6514338Y8363204D01*
X6517893Y8359647D01*
X6521450Y8348726D01*
X6521450Y8315960D01*
X6521450Y8341360D02*
G01*
X6561581Y8366760D01*
D11*
X2286000Y6361429D02*
G01*
X2286000Y6170421D01*
X2286000Y6361429D02*
G01*
X2404109Y6361429D01*
X2286000Y6270497D02*
G01*
X2358643Y6270497D01*
X2536952Y6361429D02*
G01*
X2464308Y6170421D01*
X2536952Y6361429D02*
G01*
X2609595Y6170421D01*
X2491486Y6233921D02*
G01*
X2582418Y6233921D01*
X2669540Y6361429D02*
G01*
X2669540Y6170421D01*
X2669540Y6361429D02*
G01*
X2796793Y6170421D01*
X2796793Y6361429D02*
G01*
X2796793Y6170421D01*
X4035297Y6315963D02*
G01*
X4026154Y6333997D01*
X4007865Y6352286D01*
X3989831Y6361429D01*
X3953509Y6361429D01*
X3935222Y6352286D01*
X3917188Y6333997D01*
X3908043Y6315963D01*
X3898900Y6288531D01*
X3898900Y6243065D01*
X3908043Y6215887D01*
X3917188Y6197600D01*
X3935222Y6179565D01*
X3953509Y6170421D01*
X3989831Y6170421D01*
X4007865Y6179565D01*
X4026154Y6197600D01*
X4035297Y6215887D01*
X4149852Y6361429D02*
G01*
X4131563Y6352286D01*
X4113529Y6333997D01*
X4104386Y6315963D01*
X4095241Y6288531D01*
X4095241Y6243065D01*
X4104386Y6215887D01*
X4113529Y6197600D01*
X4131563Y6179565D01*
X4149852Y6170421D01*
X4186174Y6170421D01*
X4204461Y6179565D01*
X4222495Y6197600D01*
X4231640Y6215887D01*
X4240784Y6243065D01*
X4240784Y6288531D01*
X4231640Y6315963D01*
X4222495Y6333997D01*
X4204461Y6352286D01*
X4186174Y6361429D01*
X4149852Y6361429D01*
X4300727Y6361429D02*
G01*
X4300727Y6170421D01*
X4300727Y6361429D02*
G01*
X4373372Y6170421D01*
X4446270Y6361429D02*
G01*
X4373372Y6170421D01*
X4446270Y6361429D02*
G01*
X4446270Y6170421D01*
X4506213Y6361429D02*
G01*
X4506213Y6170421D01*
X4506213Y6361429D02*
G01*
X4588002Y6361429D01*
X4615179Y6352286D01*
X4624324Y6343142D01*
X4633468Y6324854D01*
X4633468Y6297676D01*
X4624324Y6279387D01*
X4615179Y6270497D01*
X4588002Y6261354D01*
X4506213Y6261354D01*
X5676900Y6374129D02*
G01*
X5676900Y6183121D01*
X5676900Y6374129D02*
G01*
X5758688Y6374129D01*
X5785865Y6364986D01*
X5795009Y6355842D01*
X5804154Y6337554D01*
X5804154Y6319520D01*
X5795009Y6301231D01*
X5785865Y6292087D01*
X5758688Y6283197D01*
X5676900Y6283197D01*
X5740654Y6283197D02*
G01*
X5804154Y6183121D01*
X5864097Y6374129D02*
G01*
X5864097Y6183121D01*
X5864097Y6374129D02*
G01*
X5982461Y6374129D01*
X5864097Y6283197D02*
G01*
X5936995Y6283197D01*
X5864097Y6183121D02*
G01*
X5982461Y6183121D01*
X6042406Y6374129D02*
G01*
X6115050Y6183121D01*
X6187693Y6374129D02*
G01*
X6115050Y6183121D01*
X7454900Y6361429D02*
G01*
X7454900Y6170421D01*
X7642097Y6333997D02*
G01*
X7624063Y6352286D01*
X7596631Y6361429D01*
X7560309Y6361429D01*
X7533131Y6352286D01*
X7514843Y6333997D01*
X7514843Y6315963D01*
X7523988Y6297676D01*
X7533131Y6288531D01*
X7551165Y6279387D01*
X7605775Y6261354D01*
X7624063Y6252210D01*
X7633208Y6243065D01*
X7642097Y6225031D01*
X7642097Y6197600D01*
X7624063Y6179565D01*
X7596631Y6170421D01*
X7560309Y6170421D01*
X7533131Y6179565D01*
X7514843Y6197600D01*
X7756652Y6361429D02*
G01*
X7738618Y6352286D01*
X7720329Y6333997D01*
X7711186Y6315963D01*
X7702295Y6288531D01*
X7702295Y6243065D01*
X7711186Y6215887D01*
X7720329Y6197600D01*
X7738618Y6179565D01*
X7756652Y6170421D01*
X7792974Y6170421D01*
X7811261Y6179565D01*
X7829550Y6197600D01*
X7838440Y6215887D01*
X7847584Y6243065D01*
X7847584Y6288531D01*
X7838440Y6315963D01*
X7829550Y6333997D01*
X7811261Y6352286D01*
X7792974Y6361429D01*
X7756652Y6361429D01*
X609600Y4202429D02*
G01*
X609600Y4011421D01*
X609600Y4202429D02*
G01*
X691387Y4202429D01*
X718565Y4193286D01*
X727710Y4184142D01*
X736854Y4165854D01*
X736854Y4147820D01*
X727710Y4129531D01*
X718565Y4120387D01*
X691387Y4111497D01*
X609600Y4111497D01*
X673354Y4111497D02*
G01*
X736854Y4011421D01*
X796797Y4202429D02*
G01*
X796797Y4011421D01*
X796797Y4202429D02*
G01*
X915162Y4202429D01*
X796797Y4111497D02*
G01*
X869695Y4111497D01*
X796797Y4011421D02*
G01*
X915162Y4011421D01*
X1102360Y4174997D02*
G01*
X1084071Y4193286D01*
X1056894Y4202429D01*
X1020571Y4202429D01*
X993139Y4193286D01*
X975105Y4174997D01*
X975105Y4156963D01*
X984250Y4138676D01*
X993139Y4129531D01*
X1011428Y4120387D01*
X1066037Y4102354D01*
X1084071Y4093210D01*
X1093215Y4084065D01*
X1102360Y4066031D01*
X1102360Y4038600D01*
X1084071Y4020565D01*
X1056894Y4011421D01*
X1020571Y4011421D01*
X993139Y4020565D01*
X975105Y4038600D01*
X1162304Y4202429D02*
G01*
X1162304Y4011421D01*
X1162304Y4202429D02*
G01*
X1280413Y4202429D01*
X1162304Y4111497D02*
G01*
X1234947Y4111497D01*
X1162304Y4011421D02*
G01*
X1280413Y4011421D01*
X1404112Y4202429D02*
G01*
X1404112Y4011421D01*
X1340612Y4202429D02*
G01*
X1467865Y4202429D01*
D10*
X1066800Y8868663D02*
G01*
X1096263Y8744712D01*
X1125981Y8868663D02*
G01*
X1096263Y8744712D01*
X1125981Y8868663D02*
G01*
X1155445Y8744712D01*
X1184910Y8868663D02*
G01*
X1155445Y8744712D01*
X1306829Y8851137D02*
G01*
X1294892Y8862821D01*
X1277112Y8868663D01*
X1253489Y8868663D01*
X1235710Y8862821D01*
X1224026Y8851137D01*
X1224026Y8839200D01*
X1229868Y8827515D01*
X1235710Y8821420D01*
X1247647Y8815578D01*
X1282954Y8803894D01*
X1294892Y8797797D01*
X1300734Y8791955D01*
X1306829Y8780271D01*
X1306829Y8762492D01*
X1294892Y8750554D01*
X1277112Y8744712D01*
X1253489Y8744712D01*
X1235710Y8750554D01*
X1224026Y8762492D01*
X1345692Y8868663D02*
G01*
X1345692Y8744712D01*
X1428495Y8868663D02*
G01*
X1428495Y8744712D01*
X1345692Y8809736D02*
G01*
X1428495Y8809736D01*
X1467357Y8868663D02*
G01*
X1467357Y8744712D01*
X1467357Y8868663D02*
G01*
X1520697Y8868663D01*
X1538223Y8862821D01*
X1544320Y8856979D01*
X1550162Y8845042D01*
X1550162Y8827515D01*
X1544320Y8815578D01*
X1538223Y8809736D01*
X1520697Y8803894D01*
X1467357Y8803894D01*
X1589278Y8797797D02*
G01*
X1695450Y8797797D01*
X1734565Y8868663D02*
G01*
X1734565Y8780271D01*
X1740407Y8762492D01*
X1752345Y8750554D01*
X1769871Y8744712D01*
X1781810Y8744712D01*
X1799589Y8750554D01*
X1811273Y8762492D01*
X1817370Y8780271D01*
X1817370Y8868663D01*
X1856231Y8797797D02*
G01*
X1962658Y8797797D01*
X2001520Y8868663D02*
G01*
X2048763Y8744712D01*
X2096261Y8868663D02*
G01*
X2048763Y8744712D01*
X2147061Y8868663D02*
G01*
X2212086Y8868663D01*
X2176525Y8821420D01*
X2194306Y8821420D01*
X2205990Y8815578D01*
X2212086Y8809736D01*
X2217927Y8791955D01*
X2217927Y8780271D01*
X2212086Y8762492D01*
X2200147Y8750554D01*
X2182368Y8744712D01*
X2164588Y8744712D01*
X2147061Y8750554D01*
X2140965Y8756395D01*
X2135124Y8768334D01*
X990600Y8678163D02*
G01*
X990600Y8554212D01*
X990600Y8619236D02*
G01*
X1002537Y8630920D01*
X1014221Y8637015D01*
X1032002Y8637015D01*
X1043686Y8630920D01*
X1055623Y8619236D01*
X1061465Y8601455D01*
X1061465Y8589771D01*
X1055623Y8571992D01*
X1043686Y8560054D01*
X1032002Y8554212D01*
X1014221Y8554212D01*
X1002537Y8560054D01*
X990600Y8571992D01*
X1106423Y8637015D02*
G01*
X1141984Y8554212D01*
X1177289Y8637015D02*
G01*
X1141984Y8554212D01*
X1130045Y8530589D01*
X1118362Y8518652D01*
X1106423Y8512810D01*
X1100581Y8512810D01*
X1366520Y8678163D02*
G01*
X1366520Y8583676D01*
X1360423Y8565895D01*
X1354581Y8560054D01*
X1342897Y8554212D01*
X1330960Y8554212D01*
X1319021Y8560054D01*
X1313179Y8565895D01*
X1307337Y8583676D01*
X1307337Y8595613D01*
X1434845Y8637015D02*
G01*
X1423162Y8630920D01*
X1411223Y8619236D01*
X1405381Y8601455D01*
X1405381Y8589771D01*
X1411223Y8571992D01*
X1423162Y8560054D01*
X1434845Y8554212D01*
X1452626Y8554212D01*
X1464563Y8560054D01*
X1476247Y8571992D01*
X1482344Y8589771D01*
X1482344Y8601455D01*
X1476247Y8619236D01*
X1464563Y8630920D01*
X1452626Y8637015D01*
X1434845Y8637015D01*
X1521205Y8637015D02*
G01*
X1521205Y8554212D01*
X1521205Y8601455D02*
G01*
X1527047Y8619236D01*
X1538986Y8630920D01*
X1550670Y8637015D01*
X1568450Y8637015D01*
X1678431Y8678163D02*
G01*
X1678431Y8554212D01*
X1678431Y8619236D02*
G01*
X1666494Y8630920D01*
X1654810Y8637015D01*
X1637029Y8637015D01*
X1625345Y8630920D01*
X1613407Y8619236D01*
X1607565Y8601455D01*
X1607565Y8589771D01*
X1613407Y8571992D01*
X1625345Y8560054D01*
X1637029Y8554212D01*
X1654810Y8554212D01*
X1666494Y8560054D01*
X1678431Y8571992D01*
X1788413Y8637015D02*
G01*
X1788413Y8554212D01*
X1788413Y8619236D02*
G01*
X1776476Y8630920D01*
X1764792Y8637015D01*
X1747012Y8637015D01*
X1735073Y8630920D01*
X1723389Y8619236D01*
X1717294Y8601455D01*
X1717294Y8589771D01*
X1723389Y8571992D01*
X1735073Y8560054D01*
X1747012Y8554212D01*
X1764792Y8554212D01*
X1776476Y8560054D01*
X1788413Y8571992D01*
X1827276Y8637015D02*
G01*
X1827276Y8554212D01*
X1827276Y8613394D02*
G01*
X1845055Y8630920D01*
X1856994Y8637015D01*
X1874520Y8637015D01*
X1886457Y8630920D01*
X1892300Y8613394D01*
X1892300Y8554212D01*
X2022347Y8678163D02*
G01*
X2022347Y8554212D01*
X2022347Y8678163D02*
G01*
X2063750Y8678163D01*
X2081529Y8672321D01*
X2093213Y8660637D01*
X2099056Y8648700D01*
X2105152Y8630920D01*
X2105152Y8601455D01*
X2099056Y8583676D01*
X2093213Y8571992D01*
X2081529Y8560054D01*
X2063750Y8554212D01*
X2022347Y8554212D01*
X2214879Y8637015D02*
G01*
X2214879Y8554212D01*
X2214879Y8619236D02*
G01*
X2203195Y8630920D01*
X2191258Y8637015D01*
X2173477Y8637015D01*
X2161793Y8630920D01*
X2149856Y8619236D01*
X2144013Y8601455D01*
X2144013Y8589771D01*
X2149856Y8571992D01*
X2161793Y8560054D01*
X2173477Y8554212D01*
X2191258Y8554212D01*
X2203195Y8560054D01*
X2214879Y8571992D01*
X2259838Y8637015D02*
G01*
X2295397Y8554212D01*
X2330704Y8637015D02*
G01*
X2295397Y8554212D01*
X2283459Y8530589D01*
X2271775Y8518652D01*
X2259838Y8512810D01*
X2253995Y8512810D01*
D13*
X1576578Y5334507D02*
G01*
X1571244Y5344921D01*
X1560829Y5355336D01*
X1550670Y5360415D01*
X1529842Y5360415D01*
X1519428Y5355336D01*
X1509013Y5344921D01*
X1503679Y5334507D01*
X1498600Y5318760D01*
X1498600Y5292852D01*
X1503679Y5277357D01*
X1509013Y5266944D01*
X1519428Y5256529D01*
X1529842Y5251450D01*
X1550670Y5251450D01*
X1560829Y5256529D01*
X1571244Y5266944D01*
X1576578Y5277357D01*
X1662684Y5360415D02*
G01*
X1610868Y5287771D01*
X1688845Y5287771D01*
X1662684Y5360415D02*
G01*
X1662684Y5251450D01*
X3570470Y8890508D02*
G01*
X3565136Y8900921D01*
X3554722Y8911336D01*
X3544562Y8916415D01*
X3523734Y8916415D01*
X3513320Y8911336D01*
X3502906Y8900921D01*
X3497572Y8890508D01*
X3492492Y8874760D01*
X3492492Y8848852D01*
X3497572Y8833358D01*
X3502906Y8822944D01*
X3513320Y8812529D01*
X3523734Y8807450D01*
X3544562Y8807450D01*
X3554722Y8812529D01*
X3565136Y8822944D01*
X3570470Y8833358D01*
X3604760Y8895587D02*
G01*
X3615174Y8900921D01*
X3630668Y8916415D01*
X3630668Y8807450D01*
X4205470Y8890508D02*
G01*
X4200136Y8900921D01*
X4189722Y8911336D01*
X4179562Y8916415D01*
X4158734Y8916415D01*
X4148320Y8911336D01*
X4137906Y8900921D01*
X4132572Y8890508D01*
X4127492Y8874760D01*
X4127492Y8848852D01*
X4132572Y8833358D01*
X4137906Y8822944D01*
X4148320Y8812529D01*
X4158734Y8807450D01*
X4179562Y8807450D01*
X4189722Y8812529D01*
X4200136Y8822944D01*
X4205470Y8833358D01*
X4244840Y8890508D02*
G01*
X4244840Y8895587D01*
X4250174Y8906002D01*
X4255254Y8911336D01*
X4265668Y8916415D01*
X4286496Y8916415D01*
X4296910Y8911336D01*
X4301990Y8906002D01*
X4307324Y8895587D01*
X4307324Y8885174D01*
X4301990Y8874760D01*
X4291576Y8859265D01*
X4239760Y8807450D01*
X4312404Y8807450D01*
X5513577Y8801608D02*
G01*
X5508243Y8812021D01*
X5497829Y8822436D01*
X5487670Y8827515D01*
X5466841Y8827515D01*
X5456427Y8822436D01*
X5446013Y8812021D01*
X5440679Y8801608D01*
X5435600Y8785860D01*
X5435600Y8759952D01*
X5440679Y8744458D01*
X5446013Y8734044D01*
X5456427Y8723629D01*
X5466841Y8718550D01*
X5487670Y8718550D01*
X5497829Y8723629D01*
X5508243Y8734044D01*
X5513577Y8744458D01*
X5558281Y8827515D02*
G01*
X5615431Y8827515D01*
X5584190Y8785860D01*
X5599684Y8785860D01*
X5610097Y8780779D01*
X5615431Y8775700D01*
X5620511Y8759952D01*
X5620511Y8749537D01*
X5615431Y8734044D01*
X5605018Y8723629D01*
X5589270Y8718550D01*
X5573775Y8718550D01*
X5558281Y8723629D01*
X5552947Y8728710D01*
X5547868Y8739124D01*
X9168891Y3214878D02*
G01*
X9158477Y3209544D01*
X9148063Y3199129D01*
X9142984Y3188970D01*
X9142984Y3168142D01*
X9148063Y3157728D01*
X9158477Y3147313D01*
X9168891Y3141979D01*
X9184640Y3136900D01*
X9210547Y3136900D01*
X9226041Y3141979D01*
X9236456Y3147313D01*
X9246870Y3157728D01*
X9251950Y3168142D01*
X9251950Y3188970D01*
X9246870Y3199129D01*
X9236456Y3209544D01*
X9226041Y3214878D01*
X9158477Y3311397D02*
G01*
X9148063Y3306318D01*
X9142984Y3290570D01*
X9142984Y3280410D01*
X9148063Y3264662D01*
X9163811Y3254247D01*
X9189720Y3249168D01*
X9215627Y3249168D01*
X9236456Y3254247D01*
X9246870Y3264662D01*
X9251950Y3280410D01*
X9251950Y3285489D01*
X9246870Y3300984D01*
X9236456Y3311397D01*
X9220961Y3316731D01*
X9215627Y3316731D01*
X9200134Y3311397D01*
X9189720Y3300984D01*
X9184640Y3285489D01*
X9184640Y3280410D01*
X9189720Y3264662D01*
X9200134Y3254247D01*
X9215627Y3249168D01*
X9526777Y4331207D02*
G01*
X9521443Y4341621D01*
X9511029Y4352036D01*
X9500870Y4357115D01*
X9480041Y4357115D01*
X9469627Y4352036D01*
X9459213Y4341621D01*
X9453879Y4331207D01*
X9448800Y4315460D01*
X9448800Y4289552D01*
X9453879Y4274057D01*
X9459213Y4263644D01*
X9469627Y4253229D01*
X9480041Y4248150D01*
X9500870Y4248150D01*
X9511029Y4253229D01*
X9521443Y4263644D01*
X9526777Y4274057D01*
X9633711Y4357115D02*
G01*
X9581895Y4248150D01*
X9561068Y4357115D02*
G01*
X9633711Y4357115D01*
X8904477Y4331207D02*
G01*
X8899143Y4341621D01*
X8888729Y4352036D01*
X8878570Y4357115D01*
X8857741Y4357115D01*
X8847327Y4352036D01*
X8836913Y4341621D01*
X8831579Y4331207D01*
X8826500Y4315460D01*
X8826500Y4289552D01*
X8831579Y4274057D01*
X8836913Y4263644D01*
X8847327Y4253229D01*
X8857741Y4248150D01*
X8878570Y4248150D01*
X8888729Y4253229D01*
X8899143Y4263644D01*
X8904477Y4274057D01*
X8964675Y4357115D02*
G01*
X8949181Y4352036D01*
X8943847Y4341621D01*
X8943847Y4331207D01*
X8949181Y4320794D01*
X8959595Y4315460D01*
X8980170Y4310379D01*
X8995918Y4305300D01*
X9006331Y4294886D01*
X9011411Y4284471D01*
X9011411Y4268723D01*
X9006331Y4258310D01*
X9000997Y4253229D01*
X8985504Y4248150D01*
X8964675Y4248150D01*
X8949181Y4253229D01*
X8943847Y4258310D01*
X8938768Y4268723D01*
X8938768Y4284471D01*
X8943847Y4294886D01*
X8954261Y4305300D01*
X8970009Y4310379D01*
X8990584Y4315460D01*
X9000997Y4320794D01*
X9006331Y4331207D01*
X9006331Y4341621D01*
X9000997Y4352036D01*
X8985504Y4357115D01*
X8964675Y4357115D01*
X11711177Y5702807D02*
G01*
X11705843Y5713221D01*
X11695429Y5723636D01*
X11685270Y5728715D01*
X11664441Y5728715D01*
X11654027Y5723636D01*
X11643613Y5713221D01*
X11638279Y5702807D01*
X11633200Y5687060D01*
X11633200Y5661152D01*
X11638279Y5645657D01*
X11643613Y5635244D01*
X11654027Y5624829D01*
X11664441Y5619750D01*
X11685270Y5619750D01*
X11695429Y5624829D01*
X11705843Y5635244D01*
X11711177Y5645657D01*
X11807697Y5728715D02*
G01*
X11755881Y5728715D01*
X11750547Y5681979D01*
X11755881Y5687060D01*
X11771375Y5692394D01*
X11786870Y5692394D01*
X11802618Y5687060D01*
X11813031Y5676900D01*
X11818111Y5661152D01*
X11818111Y5650737D01*
X11813031Y5635244D01*
X11802618Y5624829D01*
X11786870Y5619750D01*
X11771375Y5619750D01*
X11755881Y5624829D01*
X11750547Y5629910D01*
X11745468Y5640323D01*
X6046965Y8865108D02*
G01*
X6041631Y8875521D01*
X6031217Y8885936D01*
X6021057Y8891015D01*
X6000229Y8891015D01*
X5989815Y8885936D01*
X5979401Y8875521D01*
X5974067Y8865108D01*
X5968987Y8849360D01*
X5968987Y8823452D01*
X5974067Y8807958D01*
X5979401Y8797544D01*
X5989815Y8787129D01*
X6000229Y8782050D01*
X6021057Y8782050D01*
X6031217Y8787129D01*
X6041631Y8797544D01*
X6046965Y8807958D01*
X6148819Y8854694D02*
G01*
X6143485Y8839200D01*
X6133071Y8828786D01*
X6117577Y8823452D01*
X6112497Y8823452D01*
X6096749Y8828786D01*
X6086335Y8839200D01*
X6081255Y8854694D01*
X6081255Y8859774D01*
X6086335Y8875521D01*
X6096749Y8885936D01*
X6112497Y8891015D01*
X6117577Y8891015D01*
X6133071Y8885936D01*
X6143485Y8875521D01*
X6148819Y8854694D01*
X6148819Y8828786D01*
X6143485Y8802624D01*
X6133071Y8787129D01*
X6117577Y8782050D01*
X6107163Y8782050D01*
X6091669Y8787129D01*
X6086335Y8797544D01*
X4865870Y8357108D02*
G01*
X4860536Y8367521D01*
X4850122Y8377936D01*
X4839962Y8383015D01*
X4819134Y8383015D01*
X4808720Y8377936D01*
X4798306Y8367521D01*
X4792972Y8357108D01*
X4787892Y8341360D01*
X4787892Y8315452D01*
X4792972Y8299958D01*
X4798306Y8289544D01*
X4808720Y8279129D01*
X4819134Y8274050D01*
X4839962Y8274050D01*
X4850122Y8279129D01*
X4860536Y8289544D01*
X4865870Y8299958D01*
X4900160Y8362187D02*
G01*
X4910574Y8367521D01*
X4926068Y8383015D01*
X4926068Y8274050D01*
X4960358Y8362187D02*
G01*
X4970772Y8367521D01*
X4986266Y8383015D01*
X4986266Y8274050D01*
X5196065Y6693408D02*
G01*
X5190731Y6703821D01*
X5180317Y6714236D01*
X5170157Y6719315D01*
X5149329Y6719315D01*
X5138915Y6714236D01*
X5128501Y6703821D01*
X5123167Y6693408D01*
X5118087Y6677660D01*
X5118087Y6651752D01*
X5123167Y6636258D01*
X5128501Y6625844D01*
X5138915Y6615429D01*
X5149329Y6610350D01*
X5170157Y6610350D01*
X5180317Y6615429D01*
X5190731Y6625844D01*
X5196065Y6636258D01*
X5230355Y6698487D02*
G01*
X5240769Y6703821D01*
X5256263Y6719315D01*
X5256263Y6610350D01*
X5295887Y6693408D02*
G01*
X5295887Y6698487D01*
X5300967Y6708902D01*
X5306047Y6714236D01*
X5316461Y6719315D01*
X5337289Y6719315D01*
X5347703Y6714236D01*
X5353037Y6708902D01*
X5358117Y6698487D01*
X5358117Y6688073D01*
X5353037Y6677660D01*
X5342623Y6662165D01*
X5290553Y6610350D01*
X5363197Y6610350D01*
X8332977Y5423407D02*
G01*
X8327643Y5433821D01*
X8317229Y5444236D01*
X8307070Y5449315D01*
X8286241Y5449315D01*
X8275827Y5444236D01*
X8265413Y5433821D01*
X8260079Y5423407D01*
X8255000Y5407660D01*
X8255000Y5381752D01*
X8260079Y5366257D01*
X8265413Y5355844D01*
X8275827Y5345429D01*
X8286241Y5340350D01*
X8307070Y5340350D01*
X8317229Y5345429D01*
X8327643Y5355844D01*
X8332977Y5366257D01*
X8367268Y5428487D02*
G01*
X8377681Y5433821D01*
X8393175Y5449315D01*
X8393175Y5340350D01*
X8458708Y5449315D02*
G01*
X8442959Y5444236D01*
X8432800Y5428487D01*
X8427465Y5402579D01*
X8427465Y5387086D01*
X8432800Y5360923D01*
X8442959Y5345429D01*
X8458708Y5340350D01*
X8469122Y5340350D01*
X8484615Y5345429D01*
X8495029Y5360923D01*
X8500109Y5387086D01*
X8500109Y5402579D01*
X8495029Y5428487D01*
X8484615Y5444236D01*
X8469122Y5449315D01*
X8458708Y5449315D01*
X1195578Y254507D02*
G01*
X1190244Y264921D01*
X1179829Y275336D01*
X1169670Y280415D01*
X1148842Y280415D01*
X1138428Y275336D01*
X1128013Y264921D01*
X1122679Y254507D01*
X1117600Y238760D01*
X1117600Y212852D01*
X1122679Y197357D01*
X1128013Y186944D01*
X1138428Y176529D01*
X1148842Y171450D01*
X1169670Y171450D01*
X1179829Y176529D01*
X1190244Y186944D01*
X1195578Y197357D01*
X1229868Y280415D02*
G01*
X1229868Y171450D01*
X1229868Y280415D02*
G01*
X1302512Y171450D01*
X1302512Y280415D02*
G01*
X1302512Y171450D01*
X1336802Y259587D02*
G01*
X1347215Y264921D01*
X1362710Y280415D01*
X1362710Y171450D01*
X11419077Y7963408D02*
G01*
X11413743Y7973821D01*
X11403329Y7984236D01*
X11393170Y7989315D01*
X11372341Y7989315D01*
X11361927Y7984236D01*
X11351513Y7973821D01*
X11346179Y7963408D01*
X11341100Y7947660D01*
X11341100Y7921752D01*
X11346179Y7906258D01*
X11351513Y7895844D01*
X11361927Y7885429D01*
X11372341Y7880350D01*
X11393170Y7880350D01*
X11403329Y7885429D01*
X11413743Y7895844D01*
X11419077Y7906258D01*
X11453368Y7989315D02*
G01*
X11453368Y7880350D01*
X11453368Y7989315D02*
G01*
X11526011Y7880350D01*
X11526011Y7989315D02*
G01*
X11526011Y7880350D01*
X11565636Y7963408D02*
G01*
X11565636Y7968487D01*
X11570715Y7978902D01*
X11576050Y7984236D01*
X11586209Y7989315D01*
X11607038Y7989315D01*
X11617452Y7984236D01*
X11622786Y7978902D01*
X11627865Y7968487D01*
X11627865Y7958073D01*
X11622786Y7947660D01*
X11612372Y7932165D01*
X11560302Y7880350D01*
X11633200Y7880350D01*
X5105908Y4417821D02*
G01*
X5116322Y4423155D01*
X5126736Y4433570D01*
X5131815Y4443729D01*
X5131815Y4464557D01*
X5126736Y4474971D01*
X5116322Y4485386D01*
X5105908Y4490720D01*
X5090159Y4495800D01*
X5064252Y4495800D01*
X5048758Y4490720D01*
X5038343Y4485386D01*
X5027929Y4474971D01*
X5022850Y4464557D01*
X5022850Y4443729D01*
X5027929Y4433570D01*
X5038343Y4423155D01*
X5048758Y4417821D01*
X5131815Y4352289D02*
G01*
X5126736Y4362704D01*
X5116322Y4373118D01*
X5105908Y4378452D01*
X5090159Y4383531D01*
X5064252Y4383531D01*
X5048758Y4378452D01*
X5038343Y4373118D01*
X5027929Y4362704D01*
X5022850Y4352289D01*
X5022850Y4331715D01*
X5027929Y4321302D01*
X5038343Y4310887D01*
X5048758Y4305554D01*
X5064252Y4300473D01*
X5090159Y4300473D01*
X5105908Y4305554D01*
X5116322Y4310887D01*
X5126736Y4321302D01*
X5131815Y4331715D01*
X5131815Y4352289D01*
X5131815Y4266184D02*
G01*
X5022850Y4266184D01*
X5131815Y4266184D02*
G01*
X5022850Y4224528D01*
X5131815Y4183126D02*
G01*
X5022850Y4224528D01*
X5131815Y4183126D02*
G01*
X5022850Y4183126D01*
X5131815Y4148836D02*
G01*
X5022850Y4148836D01*
X5131815Y4148836D02*
G01*
X5131815Y4102100D01*
X5126736Y4086352D01*
X5121402Y4081271D01*
X5110988Y4075937D01*
X5095493Y4075937D01*
X5085079Y4081271D01*
X5080000Y4086352D01*
X5074665Y4102100D01*
X5074665Y4148836D01*
X4986274Y4041647D02*
G01*
X4986274Y3948176D01*
X5131815Y3913886D02*
G01*
X5022850Y3913886D01*
X5131815Y3913886D02*
G01*
X5131815Y3867150D01*
X5126736Y3851655D01*
X5121402Y3846321D01*
X5110988Y3841242D01*
X5100574Y3841242D01*
X5090159Y3846321D01*
X5085079Y3851655D01*
X5080000Y3867150D01*
X5080000Y3913886D01*
X5080000Y3877563D02*
G01*
X5022850Y3841242D01*
X5131815Y3806952D02*
G01*
X5022850Y3806952D01*
X5131815Y3806952D02*
G01*
X5131815Y3739387D01*
X5080000Y3806952D02*
G01*
X5080000Y3765295D01*
X5022850Y3806952D02*
G01*
X5022850Y3739387D01*
X5131815Y3705097D02*
G01*
X5022850Y3705097D01*
X5022850Y3705097D02*
G01*
X5022850Y3642613D01*
X5131815Y3566921D02*
G01*
X5022850Y3608323D01*
X5131815Y3566921D02*
G01*
X5022850Y3525265D01*
X5059172Y3592829D02*
G01*
X5059172Y3540760D01*
X5131815Y3490976D02*
G01*
X5080000Y3449320D01*
X5022850Y3449320D01*
X5131815Y3407918D02*
G01*
X5080000Y3449320D01*
X5105908Y3368294D02*
G01*
X5110988Y3368294D01*
X5121402Y3363213D01*
X5126736Y3357879D01*
X5131815Y3347720D01*
X5131815Y3326892D01*
X5126736Y3316478D01*
X5121402Y3311144D01*
X5110988Y3306063D01*
X5100574Y3306063D01*
X5090159Y3311144D01*
X5074665Y3321557D01*
X5022850Y3373628D01*
X5022850Y3300729D01*
X3442715Y4406900D02*
G01*
X3333750Y4406900D01*
X3442715Y4406900D02*
G01*
X3442715Y4339336D01*
X3390900Y4406900D02*
G01*
X3390900Y4365244D01*
X3442715Y4263389D02*
G01*
X3333750Y4305045D01*
X3442715Y4263389D02*
G01*
X3333750Y4221987D01*
X3370072Y4289552D02*
G01*
X3370072Y4237481D01*
X3442715Y4187697D02*
G01*
X3333750Y4187697D01*
X3442715Y4187697D02*
G01*
X3333750Y4114800D01*
X3442715Y4114800D02*
G01*
X3333750Y4114800D01*
X3297174Y4080510D02*
G01*
X3297174Y3987037D01*
X3442715Y3952747D02*
G01*
X3333750Y3952747D01*
X3442715Y3952747D02*
G01*
X3442715Y3906012D01*
X3437636Y3890518D01*
X3432302Y3885184D01*
X3421888Y3880104D01*
X3411474Y3880104D01*
X3401059Y3885184D01*
X3395979Y3890518D01*
X3390900Y3906012D01*
X3390900Y3952747D01*
X3390900Y3916426D02*
G01*
X3333750Y3880104D01*
X3442715Y3845813D02*
G01*
X3333750Y3845813D01*
X3442715Y3845813D02*
G01*
X3442715Y3778250D01*
X3390900Y3845813D02*
G01*
X3390900Y3804157D01*
X3333750Y3845813D02*
G01*
X3333750Y3778250D01*
X3442715Y3743960D02*
G01*
X3333750Y3743960D01*
X3333750Y3743960D02*
G01*
X3333750Y3681729D01*
X3442715Y3605784D02*
G01*
X3333750Y3647439D01*
X3442715Y3605784D02*
G01*
X3333750Y3564128D01*
X3370072Y3631692D02*
G01*
X3370072Y3579876D01*
X3442715Y3529837D02*
G01*
X3390900Y3488436D01*
X3333750Y3488436D01*
X3442715Y3446779D02*
G01*
X3390900Y3488436D01*
X3421888Y3412489D02*
G01*
X3427222Y3402076D01*
X3442715Y3386581D01*
X3333750Y3386581D01*
X8573515Y4457700D02*
G01*
X8464550Y4457700D01*
X8558022Y4350765D02*
G01*
X8568436Y4361179D01*
X8573515Y4376673D01*
X8573515Y4397502D01*
X8568436Y4412995D01*
X8558022Y4423410D01*
X8547608Y4423410D01*
X8537193Y4418329D01*
X8531859Y4412995D01*
X8526779Y4402581D01*
X8516365Y4371339D01*
X8511286Y4361179D01*
X8505952Y4355845D01*
X8495538Y4350765D01*
X8480043Y4350765D01*
X8469629Y4361179D01*
X8464550Y4376673D01*
X8464550Y4397502D01*
X8469629Y4412995D01*
X8480043Y4423410D01*
X8573515Y4285234D02*
G01*
X8568436Y4295647D01*
X8558022Y4306062D01*
X8547608Y4311142D01*
X8531859Y4316476D01*
X8505952Y4316476D01*
X8490458Y4311142D01*
X8480043Y4306062D01*
X8469629Y4295647D01*
X8464550Y4285234D01*
X8464550Y4264405D01*
X8469629Y4253992D01*
X8480043Y4243578D01*
X8490458Y4238497D01*
X8505952Y4233163D01*
X8531859Y4233163D01*
X8547608Y4238497D01*
X8558022Y4243578D01*
X8568436Y4253992D01*
X8573515Y4264405D01*
X8573515Y4285234D01*
X8427974Y4198873D02*
G01*
X8427974Y4105402D01*
X8573515Y4071112D02*
G01*
X8464550Y4071112D01*
X8573515Y4071112D02*
G01*
X8573515Y4024376D01*
X8568436Y4008881D01*
X8563102Y4003547D01*
X8552688Y3998468D01*
X8542274Y3998468D01*
X8531859Y4003547D01*
X8526779Y4008881D01*
X8521700Y4024376D01*
X8521700Y4071112D01*
X8521700Y4034789D02*
G01*
X8464550Y3998468D01*
X8573515Y3964178D02*
G01*
X8464550Y3964178D01*
X8573515Y3964178D02*
G01*
X8573515Y3896613D01*
X8521700Y3964178D02*
G01*
X8521700Y3922521D01*
X8464550Y3964178D02*
G01*
X8464550Y3896613D01*
X8573515Y3862323D02*
G01*
X8464550Y3862323D01*
X8464550Y3862323D02*
G01*
X8464550Y3799839D01*
X8573515Y3724147D02*
G01*
X8464550Y3765550D01*
X8573515Y3724147D02*
G01*
X8464550Y3682492D01*
X8500872Y3750055D02*
G01*
X8500872Y3698239D01*
X8573515Y3648202D02*
G01*
X8521700Y3606800D01*
X8464550Y3606800D01*
X8573515Y3565144D02*
G01*
X8521700Y3606800D01*
X8573515Y3478784D02*
G01*
X8500872Y3530854D01*
X8500872Y3452876D01*
X8573515Y3478784D02*
G01*
X8464550Y3478784D01*
X6846315Y4419600D02*
G01*
X6737350Y4419600D01*
X6846315Y4419600D02*
G01*
X6846315Y4372863D01*
X6841236Y4357370D01*
X6835902Y4352036D01*
X6825488Y4346955D01*
X6815074Y4346955D01*
X6804659Y4352036D01*
X6799579Y4357370D01*
X6794500Y4372863D01*
X6794500Y4419600D01*
X6794500Y4383278D02*
G01*
X6737350Y4346955D01*
X6846315Y4312665D02*
G01*
X6737350Y4312665D01*
X6846315Y4312665D02*
G01*
X6846315Y4245102D01*
X6794500Y4312665D02*
G01*
X6794500Y4271010D01*
X6737350Y4312665D02*
G01*
X6737350Y4245102D01*
X6846315Y4210812D02*
G01*
X6737350Y4169155D01*
X6846315Y4127500D02*
G01*
X6737350Y4169155D01*
X6700774Y4093210D02*
G01*
X6700774Y3999737D01*
X6846315Y3965447D02*
G01*
X6737350Y3965447D01*
X6846315Y3965447D02*
G01*
X6846315Y3918712D01*
X6841236Y3903218D01*
X6835902Y3897884D01*
X6825488Y3892804D01*
X6815074Y3892804D01*
X6804659Y3897884D01*
X6799579Y3903218D01*
X6794500Y3918712D01*
X6794500Y3965447D01*
X6794500Y3929126D02*
G01*
X6737350Y3892804D01*
X6846315Y3858513D02*
G01*
X6737350Y3858513D01*
X6846315Y3858513D02*
G01*
X6846315Y3790950D01*
X6794500Y3858513D02*
G01*
X6794500Y3816857D01*
X6737350Y3858513D02*
G01*
X6737350Y3790950D01*
X6846315Y3756660D02*
G01*
X6737350Y3756660D01*
X6737350Y3756660D02*
G01*
X6737350Y3694429D01*
X6846315Y3618484D02*
G01*
X6737350Y3660139D01*
X6846315Y3618484D02*
G01*
X6737350Y3576828D01*
X6773672Y3644392D02*
G01*
X6773672Y3592576D01*
X6846315Y3542537D02*
G01*
X6794500Y3501136D01*
X6737350Y3501136D01*
X6846315Y3459479D02*
G01*
X6794500Y3501136D01*
X6846315Y3414776D02*
G01*
X6846315Y3357626D01*
X6804659Y3388868D01*
X6804659Y3373120D01*
X6799579Y3362960D01*
X6794500Y3357626D01*
X6778752Y3352545D01*
X6768338Y3352545D01*
X6752843Y3357626D01*
X6742429Y3368039D01*
X6737350Y3383534D01*
X6737350Y3399281D01*
X6742429Y3414776D01*
X6747509Y3420110D01*
X6757924Y3425189D01*
X9386315Y2286000D02*
G01*
X9277350Y2286000D01*
X9386315Y2286000D02*
G01*
X9386315Y2249678D01*
X9381236Y2233929D01*
X9370822Y2223770D01*
X9360408Y2218436D01*
X9344659Y2213355D01*
X9318752Y2213355D01*
X9303258Y2218436D01*
X9292843Y2223770D01*
X9282429Y2233929D01*
X9277350Y2249678D01*
X9277350Y2286000D01*
X9365488Y2179065D02*
G01*
X9370822Y2168652D01*
X9386315Y2152904D01*
X9277350Y2152904D01*
X9945115Y2298700D02*
G01*
X9836150Y2298700D01*
X9945115Y2298700D02*
G01*
X9945115Y2262378D01*
X9940036Y2246629D01*
X9929622Y2236470D01*
X9919208Y2231136D01*
X9903459Y2226055D01*
X9877552Y2226055D01*
X9862058Y2231136D01*
X9851643Y2236470D01*
X9841229Y2246629D01*
X9836150Y2262378D01*
X9836150Y2298700D01*
X9945115Y2181352D02*
G01*
X9945115Y2124202D01*
X9903459Y2155189D01*
X9903459Y2139695D01*
X9898379Y2129281D01*
X9893300Y2124202D01*
X9877552Y2118868D01*
X9867138Y2118868D01*
X9851643Y2124202D01*
X9841229Y2134615D01*
X9836150Y2150110D01*
X9836150Y2165604D01*
X9841229Y2181352D01*
X9846309Y2186431D01*
X9856724Y2191765D01*
X10478515Y2298689D02*
G01*
X10369550Y2298689D01*
X10478515Y2298689D02*
G01*
X10478515Y2262367D01*
X10473436Y2246619D01*
X10463022Y2236459D01*
X10452608Y2231125D01*
X10436859Y2226045D01*
X10410952Y2226045D01*
X10395458Y2231125D01*
X10385043Y2236459D01*
X10374629Y2246619D01*
X10369550Y2262367D01*
X10369550Y2298689D01*
X10478515Y2139685D02*
G01*
X10405872Y2191755D01*
X10405872Y2113777D01*
X10478515Y2139685D02*
G01*
X10369550Y2139685D01*
X10654284Y2044700D02*
G01*
X10763250Y2044700D01*
X10654284Y2044700D02*
G01*
X10654284Y2081021D01*
X10659363Y2096770D01*
X10669777Y2106929D01*
X10680191Y2112263D01*
X10695940Y2117344D01*
X10721847Y2117344D01*
X10737341Y2112263D01*
X10747756Y2106929D01*
X10758170Y2096770D01*
X10763250Y2081021D01*
X10763250Y2044700D01*
X10654284Y2177795D02*
G01*
X10659363Y2162047D01*
X10669777Y2156968D01*
X10680191Y2156968D01*
X10690606Y2162047D01*
X10695940Y2172462D01*
X10701020Y2193289D01*
X10706100Y2208784D01*
X10716513Y2219197D01*
X10726927Y2224531D01*
X10742675Y2224531D01*
X10753090Y2219197D01*
X10758170Y2214118D01*
X10763250Y2198370D01*
X10763250Y2177795D01*
X10758170Y2162047D01*
X10753090Y2156968D01*
X10742675Y2151634D01*
X10726927Y2151634D01*
X10716513Y2156968D01*
X10706100Y2167381D01*
X10701020Y2182876D01*
X10695940Y2203704D01*
X10690606Y2214118D01*
X10680191Y2219197D01*
X10669777Y2219197D01*
X10659363Y2214118D01*
X10654284Y2198370D01*
X10654284Y2177795D01*
X10541000Y2655315D02*
G01*
X10541000Y2546350D01*
X10541000Y2655315D02*
G01*
X10577322Y2655315D01*
X10593070Y2650236D01*
X10603229Y2639821D01*
X10608563Y2629407D01*
X10613643Y2613660D01*
X10613643Y2587752D01*
X10608563Y2572257D01*
X10603229Y2561844D01*
X10593070Y2551429D01*
X10577322Y2546350D01*
X10541000Y2546350D01*
X10715497Y2618994D02*
G01*
X10710418Y2603500D01*
X10700004Y2593086D01*
X10684509Y2587752D01*
X10679175Y2587752D01*
X10663681Y2593086D01*
X10653268Y2603500D01*
X10647934Y2618994D01*
X10647934Y2624073D01*
X10653268Y2639821D01*
X10663681Y2650236D01*
X10679175Y2655315D01*
X10684509Y2655315D01*
X10700004Y2650236D01*
X10710418Y2639821D01*
X10715497Y2618994D01*
X10715497Y2593086D01*
X10710418Y2566923D01*
X10700004Y2551429D01*
X10684509Y2546350D01*
X10674095Y2546350D01*
X10658347Y2551429D01*
X10653268Y2561844D01*
X10464807Y7671815D02*
G01*
X10464807Y7562850D01*
X10464807Y7671815D02*
G01*
X10532371Y7671815D01*
X10464807Y7620000D02*
G01*
X10506463Y7620000D01*
X10566661Y7650987D02*
G01*
X10577075Y7656321D01*
X10592569Y7671815D01*
X10592569Y7562850D01*
X10006584Y4292600D02*
G01*
X10115550Y4292600D01*
X10006584Y4365244D02*
G01*
X10115550Y4365244D01*
X10058400Y4292600D02*
G01*
X10058400Y4365244D01*
X10022077Y4472431D02*
G01*
X10011663Y4462018D01*
X10006584Y4446270D01*
X10006584Y4425695D01*
X10011663Y4409947D01*
X10022077Y4399534D01*
X10032491Y4399534D01*
X10042906Y4404868D01*
X10048240Y4409947D01*
X10053320Y4420362D01*
X10063734Y4451604D01*
X10068813Y4462018D01*
X10074147Y4467097D01*
X10084561Y4472431D01*
X10100056Y4472431D01*
X10110470Y4462018D01*
X10115550Y4446270D01*
X10115550Y4425695D01*
X10110470Y4409947D01*
X10100056Y4399534D01*
X10027411Y4506721D02*
G01*
X10022077Y4517136D01*
X10006584Y4532629D01*
X10115550Y4532629D01*
X4064000Y5411215D02*
G01*
X4064000Y5302250D01*
X4064000Y5302250D02*
G01*
X4126229Y5302250D01*
X4160520Y5411215D02*
G01*
X4160520Y5302250D01*
X4160520Y5411215D02*
G01*
X4228084Y5411215D01*
X4160520Y5359400D02*
G01*
X4202175Y5359400D01*
X4160520Y5302250D02*
G01*
X4228084Y5302250D01*
X4262374Y5411215D02*
G01*
X4262374Y5302250D01*
X4262374Y5411215D02*
G01*
X4298950Y5411215D01*
X4314443Y5406136D01*
X4324858Y5395721D01*
X4329938Y5385307D01*
X4335272Y5369560D01*
X4335272Y5343652D01*
X4329938Y5328157D01*
X4324858Y5317744D01*
X4314443Y5307329D01*
X4298950Y5302250D01*
X4262374Y5302250D01*
X4369561Y5390387D02*
G01*
X4379975Y5395721D01*
X4395470Y5411215D01*
X4395470Y5302250D01*
X7429500Y5411215D02*
G01*
X7429500Y5302250D01*
X7429500Y5302250D02*
G01*
X7491729Y5302250D01*
X7526020Y5411215D02*
G01*
X7526020Y5302250D01*
X7526020Y5411215D02*
G01*
X7593584Y5411215D01*
X7526020Y5359400D02*
G01*
X7567675Y5359400D01*
X7526020Y5302250D02*
G01*
X7593584Y5302250D01*
X7627874Y5411215D02*
G01*
X7627874Y5302250D01*
X7627874Y5411215D02*
G01*
X7664450Y5411215D01*
X7679943Y5406136D01*
X7690358Y5395721D01*
X7695438Y5385307D01*
X7700772Y5369560D01*
X7700772Y5343652D01*
X7695438Y5328157D01*
X7690358Y5317744D01*
X7679943Y5307329D01*
X7664450Y5302250D01*
X7627874Y5302250D01*
X7740141Y5385307D02*
G01*
X7740141Y5390387D01*
X7745475Y5400802D01*
X7750556Y5406136D01*
X7760970Y5411215D01*
X7781797Y5411215D01*
X7792211Y5406136D01*
X7797291Y5400802D01*
X7802625Y5390387D01*
X7802625Y5379973D01*
X7797291Y5369560D01*
X7786877Y5354065D01*
X7735061Y5302250D01*
X7807706Y5302250D01*
X5727700Y5411215D02*
G01*
X5727700Y5302250D01*
X5727700Y5302250D02*
G01*
X5789929Y5302250D01*
X5824220Y5411215D02*
G01*
X5824220Y5302250D01*
X5824220Y5411215D02*
G01*
X5891784Y5411215D01*
X5824220Y5359400D02*
G01*
X5865875Y5359400D01*
X5824220Y5302250D02*
G01*
X5891784Y5302250D01*
X5926074Y5411215D02*
G01*
X5926074Y5302250D01*
X5926074Y5411215D02*
G01*
X5962650Y5411215D01*
X5978143Y5406136D01*
X5988558Y5395721D01*
X5993638Y5385307D01*
X5998972Y5369560D01*
X5998972Y5343652D01*
X5993638Y5328157D01*
X5988558Y5317744D01*
X5978143Y5307329D01*
X5962650Y5302250D01*
X5926074Y5302250D01*
X6043675Y5411215D02*
G01*
X6100825Y5411215D01*
X6069584Y5369560D01*
X6085077Y5369560D01*
X6095491Y5364479D01*
X6100825Y5359400D01*
X6105906Y5343652D01*
X6105906Y5333237D01*
X6100825Y5317744D01*
X6090411Y5307329D01*
X6074663Y5302250D01*
X6059170Y5302250D01*
X6043675Y5307329D01*
X6038341Y5312410D01*
X6033261Y5322823D01*
X2362200Y5411215D02*
G01*
X2362200Y5302250D01*
X2362200Y5302250D02*
G01*
X2424429Y5302250D01*
X2458720Y5411215D02*
G01*
X2458720Y5302250D01*
X2458720Y5411215D02*
G01*
X2526284Y5411215D01*
X2458720Y5359400D02*
G01*
X2500375Y5359400D01*
X2458720Y5302250D02*
G01*
X2526284Y5302250D01*
X2560574Y5411215D02*
G01*
X2560574Y5302250D01*
X2560574Y5411215D02*
G01*
X2597150Y5411215D01*
X2612643Y5406136D01*
X2623058Y5395721D01*
X2628138Y5385307D01*
X2633472Y5369560D01*
X2633472Y5343652D01*
X2628138Y5328157D01*
X2623058Y5317744D01*
X2612643Y5307329D01*
X2597150Y5302250D01*
X2560574Y5302250D01*
X2735325Y5374894D02*
G01*
X2729991Y5359400D01*
X2719577Y5348986D01*
X2704084Y5343652D01*
X2698750Y5343652D01*
X2683256Y5348986D01*
X2672841Y5359400D01*
X2667761Y5374894D01*
X2667761Y5379973D01*
X2672841Y5395721D01*
X2683256Y5406136D01*
X2698750Y5411215D01*
X2704084Y5411215D01*
X2719577Y5406136D01*
X2729991Y5395721D01*
X2735325Y5374894D01*
X2735325Y5348986D01*
X2729991Y5322823D01*
X2719577Y5307329D01*
X2704084Y5302250D01*
X2693670Y5302250D01*
X2678175Y5307329D01*
X2672841Y5317744D01*
X2247900Y7151115D02*
G01*
X2247900Y7042150D01*
X2247900Y7042150D02*
G01*
X2310129Y7042150D01*
X2344420Y7151115D02*
G01*
X2344420Y7042150D01*
X2344420Y7151115D02*
G01*
X2411984Y7151115D01*
X2344420Y7099300D02*
G01*
X2386075Y7099300D01*
X2344420Y7042150D02*
G01*
X2411984Y7042150D01*
X2446274Y7151115D02*
G01*
X2446274Y7042150D01*
X2446274Y7151115D02*
G01*
X2482850Y7151115D01*
X2498343Y7146036D01*
X2508758Y7135621D01*
X2513838Y7125208D01*
X2519172Y7109460D01*
X2519172Y7083552D01*
X2513838Y7068058D01*
X2508758Y7057644D01*
X2498343Y7047229D01*
X2482850Y7042150D01*
X2446274Y7042150D01*
X2605277Y7151115D02*
G01*
X2553461Y7078471D01*
X2631440Y7078471D01*
X2605277Y7151115D02*
G01*
X2605277Y7042150D01*
X8001000Y8586215D02*
G01*
X8001000Y8477250D01*
X8001000Y8586215D02*
G01*
X8047736Y8586215D01*
X8063229Y8581136D01*
X8068563Y8575802D01*
X8073643Y8565387D01*
X8073643Y8549894D01*
X8068563Y8539479D01*
X8063229Y8534400D01*
X8047736Y8529065D01*
X8001000Y8529065D01*
X8107934Y8565387D02*
G01*
X8118347Y8570721D01*
X8134095Y8586215D01*
X8134095Y8477250D01*
X1295387Y8205215D02*
G01*
X1295387Y8096250D01*
X1295387Y8205215D02*
G01*
X1342123Y8205215D01*
X1357617Y8200136D01*
X1362951Y8194802D01*
X1368031Y8184387D01*
X1368031Y8173973D01*
X1362951Y8163560D01*
X1357617Y8158479D01*
X1342123Y8153400D01*
X1295387Y8153400D01*
X1331709Y8153400D02*
G01*
X1368031Y8096250D01*
X1402321Y8184387D02*
G01*
X1412735Y8189721D01*
X1428483Y8205215D01*
X1428483Y8096250D01*
X9816084Y7886687D02*
G01*
X9925050Y7886687D01*
X9816084Y7886687D02*
G01*
X9816084Y7933423D01*
X9821163Y7948917D01*
X9826497Y7954251D01*
X9836911Y7959331D01*
X9847325Y7959331D01*
X9857740Y7954251D01*
X9862820Y7948917D01*
X9867900Y7933423D01*
X9867900Y7886687D01*
X9867900Y7923009D02*
G01*
X9925050Y7959331D01*
X9852406Y8061185D02*
G01*
X9867900Y8056105D01*
X9878313Y8045691D01*
X9883647Y8030197D01*
X9883647Y8024863D01*
X9878313Y8009369D01*
X9867900Y7998955D01*
X9852406Y7993621D01*
X9847325Y7993621D01*
X9831577Y7998955D01*
X9821163Y8009369D01*
X9816084Y8024863D01*
X9816084Y8030197D01*
X9821163Y8045691D01*
X9831577Y8056105D01*
X9852406Y8061185D01*
X9878313Y8061185D01*
X9904475Y8056105D01*
X9919970Y8045691D01*
X9925050Y8030197D01*
X9925050Y8019783D01*
X9919970Y8004035D01*
X9909556Y7998955D01*
X9435084Y7886687D02*
G01*
X9544050Y7886687D01*
X9435084Y7886687D02*
G01*
X9435084Y7933423D01*
X9440163Y7948917D01*
X9445497Y7954251D01*
X9455911Y7959331D01*
X9466325Y7959331D01*
X9476740Y7954251D01*
X9481820Y7948917D01*
X9486900Y7933423D01*
X9486900Y7886687D01*
X9486900Y7923009D02*
G01*
X9544050Y7959331D01*
X9455911Y7993621D02*
G01*
X9450577Y8004035D01*
X9435084Y8019783D01*
X9544050Y8019783D01*
X9435084Y8085061D02*
G01*
X9440163Y8069567D01*
X9455911Y8059153D01*
X9481820Y8054073D01*
X9497313Y8054073D01*
X9523475Y8059153D01*
X9538970Y8069567D01*
X9544050Y8085061D01*
X9544050Y8095475D01*
X9538970Y8111223D01*
X9523475Y8121637D01*
X9497313Y8126717D01*
X9481820Y8126717D01*
X9455911Y8121637D01*
X9440163Y8111223D01*
X9435084Y8095475D01*
X9435084Y8085061D01*
X9041384Y7886687D02*
G01*
X9150350Y7886687D01*
X9041384Y7886687D02*
G01*
X9041384Y7933423D01*
X9046463Y7948917D01*
X9051797Y7954251D01*
X9062211Y7959331D01*
X9072625Y7959331D01*
X9083040Y7954251D01*
X9088120Y7948917D01*
X9093200Y7933423D01*
X9093200Y7886687D01*
X9093200Y7923009D02*
G01*
X9150350Y7959331D01*
X9062211Y7993621D02*
G01*
X9056877Y8004035D01*
X9041384Y8019783D01*
X9150350Y8019783D01*
X9062211Y8054073D02*
G01*
X9056877Y8064487D01*
X9041384Y8079981D01*
X9150350Y8079981D01*
X8673084Y7886687D02*
G01*
X8782050Y7886687D01*
X8673084Y7886687D02*
G01*
X8673084Y7933423D01*
X8678163Y7948917D01*
X8683497Y7954251D01*
X8693911Y7959331D01*
X8704325Y7959331D01*
X8714740Y7954251D01*
X8719820Y7948917D01*
X8724900Y7933423D01*
X8724900Y7886687D01*
X8724900Y7923009D02*
G01*
X8782050Y7959331D01*
X8693911Y7993621D02*
G01*
X8688577Y8004035D01*
X8673084Y8019783D01*
X8782050Y8019783D01*
X8698991Y8059153D02*
G01*
X8693911Y8059153D01*
X8683497Y8064487D01*
X8678163Y8069567D01*
X8673084Y8079981D01*
X8673084Y8100809D01*
X8678163Y8111223D01*
X8683497Y8116303D01*
X8693911Y8121637D01*
X8704325Y8121637D01*
X8714740Y8116303D01*
X8730234Y8105889D01*
X8782050Y8054073D01*
X8782050Y8126717D01*
X2577084Y2395994D02*
G01*
X2686050Y2395994D01*
X2577084Y2395994D02*
G01*
X2577084Y2442730D01*
X2582163Y2458224D01*
X2587497Y2463558D01*
X2597911Y2468638D01*
X2608325Y2468638D01*
X2618740Y2463558D01*
X2623820Y2458224D01*
X2628900Y2442730D01*
X2628900Y2395994D01*
X2628900Y2432316D02*
G01*
X2686050Y2468638D01*
X2597911Y2502928D02*
G01*
X2592577Y2513342D01*
X2577084Y2529090D01*
X2686050Y2529090D01*
X2577084Y2573794D02*
G01*
X2577084Y2630944D01*
X2618740Y2599702D01*
X2618740Y2615196D01*
X2623820Y2625610D01*
X2628900Y2630944D01*
X2644647Y2636024D01*
X2655061Y2636024D01*
X2670556Y2630944D01*
X2680970Y2620530D01*
X2686050Y2604782D01*
X2686050Y2589288D01*
X2680970Y2573794D01*
X2675890Y2568460D01*
X2665475Y2563380D01*
X2157984Y2395994D02*
G01*
X2266950Y2395994D01*
X2157984Y2395994D02*
G01*
X2157984Y2442730D01*
X2163063Y2458224D01*
X2168397Y2463558D01*
X2178811Y2468638D01*
X2189225Y2468638D01*
X2199640Y2463558D01*
X2204720Y2458224D01*
X2209800Y2442730D01*
X2209800Y2395994D01*
X2209800Y2432316D02*
G01*
X2266950Y2468638D01*
X2178811Y2502928D02*
G01*
X2173477Y2513342D01*
X2157984Y2529090D01*
X2266950Y2529090D01*
X2157984Y2615196D02*
G01*
X2230627Y2563380D01*
X2230627Y2641104D01*
X2157984Y2615196D02*
G01*
X2266950Y2615196D01*
X1738884Y2395994D02*
G01*
X1847850Y2395994D01*
X1738884Y2395994D02*
G01*
X1738884Y2442730D01*
X1743963Y2458224D01*
X1749297Y2463558D01*
X1759712Y2468638D01*
X1770126Y2468638D01*
X1780539Y2463558D01*
X1785620Y2458224D01*
X1790700Y2442730D01*
X1790700Y2395994D01*
X1790700Y2432316D02*
G01*
X1847850Y2468638D01*
X1759712Y2502928D02*
G01*
X1754378Y2513342D01*
X1738884Y2529090D01*
X1847850Y2529090D01*
X1738884Y2625610D02*
G01*
X1738884Y2573794D01*
X1785620Y2568460D01*
X1780539Y2573794D01*
X1775205Y2589288D01*
X1775205Y2604782D01*
X1780539Y2620530D01*
X1790700Y2630944D01*
X1806447Y2636024D01*
X1816862Y2636024D01*
X1832355Y2630944D01*
X1842770Y2620530D01*
X1847850Y2604782D01*
X1847850Y2589288D01*
X1842770Y2573794D01*
X1837689Y2568460D01*
X1827276Y2563380D01*
X9537687Y6820915D02*
G01*
X9537687Y6711950D01*
X9537687Y6820915D02*
G01*
X9584423Y6820915D01*
X9599917Y6815836D01*
X9605251Y6810502D01*
X9610331Y6800087D01*
X9610331Y6789673D01*
X9605251Y6779260D01*
X9599917Y6774179D01*
X9584423Y6769100D01*
X9537687Y6769100D01*
X9574009Y6769100D02*
G01*
X9610331Y6711950D01*
X9649955Y6795008D02*
G01*
X9649955Y6800087D01*
X9655035Y6810502D01*
X9660369Y6815836D01*
X9670783Y6820915D01*
X9691357Y6820915D01*
X9701771Y6815836D01*
X9707105Y6810502D01*
X9712185Y6800087D01*
X9712185Y6789673D01*
X9707105Y6779260D01*
X9696691Y6763765D01*
X9644621Y6711950D01*
X9717519Y6711950D01*
X9762223Y6820915D02*
G01*
X9819373Y6820915D01*
X9788131Y6779260D01*
X9803625Y6779260D01*
X9814039Y6774179D01*
X9819373Y6769100D01*
X9824453Y6753352D01*
X9824453Y6742937D01*
X9819373Y6727444D01*
X9808959Y6717029D01*
X9793211Y6711950D01*
X9777717Y6711950D01*
X9762223Y6717029D01*
X9756889Y6722110D01*
X9751809Y6732523D01*
X1319784Y2395994D02*
G01*
X1428750Y2395994D01*
X1319784Y2395994D02*
G01*
X1319784Y2442730D01*
X1324863Y2458224D01*
X1330197Y2463558D01*
X1340612Y2468638D01*
X1351026Y2468638D01*
X1361439Y2463558D01*
X1366520Y2458224D01*
X1371600Y2442730D01*
X1371600Y2395994D01*
X1371600Y2432316D02*
G01*
X1428750Y2468638D01*
X1345692Y2508262D02*
G01*
X1340612Y2508262D01*
X1330197Y2513342D01*
X1324863Y2518676D01*
X1319784Y2529090D01*
X1319784Y2549664D01*
X1324863Y2560078D01*
X1330197Y2565412D01*
X1340612Y2570492D01*
X1351026Y2570492D01*
X1361439Y2565412D01*
X1376934Y2554998D01*
X1428750Y2502928D01*
X1428750Y2575826D01*
X1356105Y2677680D02*
G01*
X1371600Y2672346D01*
X1382013Y2661932D01*
X1387347Y2646438D01*
X1387347Y2641104D01*
X1382013Y2625610D01*
X1371600Y2615196D01*
X1356105Y2610116D01*
X1351026Y2610116D01*
X1335278Y2615196D01*
X1324863Y2625610D01*
X1319784Y2641104D01*
X1319784Y2646438D01*
X1324863Y2661932D01*
X1335278Y2672346D01*
X1356105Y2677680D01*
X1382013Y2677680D01*
X1408176Y2672346D01*
X1423670Y2661932D01*
X1428750Y2646438D01*
X1428750Y2636024D01*
X1423670Y2620530D01*
X1413255Y2615196D01*
X2603500Y6909815D02*
G01*
X2603500Y6800850D01*
X2603500Y6909815D02*
G01*
X2650236Y6909815D01*
X2665729Y6904736D01*
X2671063Y6899402D01*
X2676143Y6888987D01*
X2676143Y6878573D01*
X2671063Y6868160D01*
X2665729Y6863079D01*
X2650236Y6858000D01*
X2603500Y6858000D01*
X2639822Y6858000D02*
G01*
X2676143Y6800850D01*
X2715768Y6883908D02*
G01*
X2715768Y6888987D01*
X2720847Y6899402D01*
X2726181Y6904736D01*
X2736595Y6909815D01*
X2757170Y6909815D01*
X2767584Y6904736D01*
X2772918Y6899402D01*
X2777997Y6888987D01*
X2777997Y6878573D01*
X2772918Y6868160D01*
X2762504Y6852665D01*
X2710434Y6800850D01*
X2783331Y6800850D01*
X3491484Y5765800D02*
G01*
X3600450Y5765800D01*
X3491484Y5765800D02*
G01*
X3491484Y5812536D01*
X3496563Y5828029D01*
X3501897Y5833363D01*
X3512311Y5838444D01*
X3522725Y5838444D01*
X3533140Y5833363D01*
X3538220Y5828029D01*
X3543300Y5812536D01*
X3543300Y5765800D01*
X3543300Y5802121D02*
G01*
X3600450Y5838444D01*
X3517391Y5878068D02*
G01*
X3512311Y5878068D01*
X3501897Y5883147D01*
X3496563Y5888481D01*
X3491484Y5898895D01*
X3491484Y5919470D01*
X3496563Y5929884D01*
X3501897Y5935218D01*
X3512311Y5940297D01*
X3522725Y5940297D01*
X3533140Y5935218D01*
X3548634Y5924804D01*
X3600450Y5872734D01*
X3600450Y5945631D01*
X3491484Y6010910D02*
G01*
X3496563Y5995415D01*
X3512311Y5985002D01*
X3538220Y5979921D01*
X3553713Y5979921D01*
X3579875Y5985002D01*
X3595370Y5995415D01*
X3600450Y6010910D01*
X3600450Y6021323D01*
X3595370Y6037071D01*
X3579875Y6047486D01*
X3553713Y6052565D01*
X3538220Y6052565D01*
X3512311Y6047486D01*
X3496563Y6037071D01*
X3491484Y6021323D01*
X3491484Y6010910D01*
X6895084Y5765800D02*
G01*
X7004050Y5765800D01*
X6895084Y5765800D02*
G01*
X6895084Y5812536D01*
X6900163Y5828029D01*
X6905497Y5833363D01*
X6915911Y5838444D01*
X6926325Y5838444D01*
X6936740Y5833363D01*
X6941820Y5828029D01*
X6946900Y5812536D01*
X6946900Y5765800D01*
X6946900Y5802121D02*
G01*
X7004050Y5838444D01*
X6920991Y5878068D02*
G01*
X6915911Y5878068D01*
X6905497Y5883147D01*
X6900163Y5888481D01*
X6895084Y5898895D01*
X6895084Y5919470D01*
X6900163Y5929884D01*
X6905497Y5935218D01*
X6915911Y5940297D01*
X6926325Y5940297D01*
X6936740Y5935218D01*
X6952234Y5924804D01*
X7004050Y5872734D01*
X7004050Y5945631D01*
X6915911Y5979921D02*
G01*
X6910577Y5990336D01*
X6895084Y6005829D01*
X7004050Y6005829D01*
X5180584Y5765800D02*
G01*
X5289550Y5765800D01*
X5180584Y5765800D02*
G01*
X5180584Y5812536D01*
X5185663Y5828029D01*
X5190997Y5833363D01*
X5201411Y5838444D01*
X5211825Y5838444D01*
X5222240Y5833363D01*
X5227320Y5828029D01*
X5232400Y5812536D01*
X5232400Y5765800D01*
X5232400Y5802121D02*
G01*
X5289550Y5838444D01*
X5206491Y5878068D02*
G01*
X5201411Y5878068D01*
X5190997Y5883147D01*
X5185663Y5888481D01*
X5180584Y5898895D01*
X5180584Y5919470D01*
X5185663Y5929884D01*
X5190997Y5935218D01*
X5201411Y5940297D01*
X5211825Y5940297D01*
X5222240Y5935218D01*
X5237734Y5924804D01*
X5289550Y5872734D01*
X5289550Y5945631D01*
X5180584Y6052565D02*
G01*
X5289550Y6000750D01*
X5180584Y5979921D02*
G01*
X5180584Y6052565D01*
X1776984Y5765800D02*
G01*
X1885950Y5765800D01*
X1776984Y5765800D02*
G01*
X1776984Y5812536D01*
X1782063Y5828029D01*
X1787397Y5833363D01*
X1797812Y5838444D01*
X1808226Y5838444D01*
X1818639Y5833363D01*
X1823720Y5828029D01*
X1828800Y5812536D01*
X1828800Y5765800D01*
X1828800Y5802121D02*
G01*
X1885950Y5838444D01*
X1776984Y5924804D02*
G01*
X1849628Y5872734D01*
X1849628Y5950712D01*
X1776984Y5924804D02*
G01*
X1885950Y5924804D01*
X1776984Y5995415D02*
G01*
X1776984Y6052565D01*
X1818639Y6021323D01*
X1818639Y6037071D01*
X1823720Y6047486D01*
X1828800Y6052565D01*
X1844547Y6057900D01*
X1854962Y6057900D01*
X1870455Y6052565D01*
X1880870Y6042152D01*
X1885950Y6026657D01*
X1885950Y6010910D01*
X1880870Y5995415D01*
X1875789Y5990336D01*
X1865376Y5985002D01*
X8547097Y2007615D02*
G01*
X8547097Y1898650D01*
X8547097Y2007615D02*
G01*
X8593833Y2007615D01*
X8609327Y2002536D01*
X8614661Y1997202D01*
X8619741Y1986787D01*
X8619741Y1976373D01*
X8614661Y1965960D01*
X8609327Y1960879D01*
X8593833Y1955800D01*
X8547097Y1955800D01*
X8583419Y1955800D02*
G01*
X8619741Y1898650D01*
X8664445Y2007615D02*
G01*
X8721595Y2007615D01*
X8690607Y1965960D01*
X8706101Y1965960D01*
X8716515Y1960879D01*
X8721595Y1955800D01*
X8726929Y1940052D01*
X8726929Y1929637D01*
X8721595Y1914144D01*
X8711181Y1903729D01*
X8695687Y1898650D01*
X8680193Y1898650D01*
X8664445Y1903729D01*
X8659365Y1908810D01*
X8654031Y1919223D01*
X7086597Y2007615D02*
G01*
X7086597Y1898650D01*
X7086597Y2007615D02*
G01*
X7133333Y2007615D01*
X7148827Y2002536D01*
X7154161Y1997202D01*
X7159241Y1986787D01*
X7159241Y1976373D01*
X7154161Y1965960D01*
X7148827Y1960879D01*
X7133333Y1955800D01*
X7086597Y1955800D01*
X7122919Y1955800D02*
G01*
X7159241Y1898650D01*
X7193531Y1986787D02*
G01*
X7203945Y1992121D01*
X7219693Y2007615D01*
X7219693Y1898650D01*
X7321547Y1971294D02*
G01*
X7316213Y1955800D01*
X7305799Y1945386D01*
X7290305Y1940052D01*
X7284971Y1940052D01*
X7269477Y1945386D01*
X7259063Y1955800D01*
X7253983Y1971294D01*
X7253983Y1976373D01*
X7259063Y1992121D01*
X7269477Y2002536D01*
X7284971Y2007615D01*
X7290305Y2007615D01*
X7305799Y2002536D01*
X7316213Y1992121D01*
X7321547Y1971294D01*
X7321547Y1945386D01*
X7316213Y1919223D01*
X7305799Y1903729D01*
X7290305Y1898650D01*
X7279891Y1898650D01*
X7264397Y1903729D01*
X7259063Y1914144D01*
X7531097Y2007615D02*
G01*
X7531097Y1898650D01*
X7531097Y2007615D02*
G01*
X7577833Y2007615D01*
X7593327Y2002536D01*
X7598661Y1997202D01*
X7603741Y1986787D01*
X7603741Y1976373D01*
X7598661Y1965960D01*
X7593327Y1960879D01*
X7577833Y1955800D01*
X7531097Y1955800D01*
X7567419Y1955800D02*
G01*
X7603741Y1898650D01*
X7643365Y1981707D02*
G01*
X7643365Y1986787D01*
X7648445Y1997202D01*
X7653779Y2002536D01*
X7664193Y2007615D01*
X7684767Y2007615D01*
X7695181Y2002536D01*
X7700515Y1997202D01*
X7705595Y1986787D01*
X7705595Y1976373D01*
X7700515Y1965960D01*
X7690101Y1950465D01*
X7638031Y1898650D01*
X7710929Y1898650D01*
X7797035Y2007615D02*
G01*
X7745219Y1934971D01*
X7823197Y1934971D01*
X7797035Y2007615D02*
G01*
X7797035Y1898650D01*
X8026397Y2007615D02*
G01*
X8026397Y1898650D01*
X8026397Y2007615D02*
G01*
X8073133Y2007615D01*
X8088627Y2002536D01*
X8093961Y1997202D01*
X8099041Y1986787D01*
X8099041Y1976373D01*
X8093961Y1965960D01*
X8088627Y1960879D01*
X8073133Y1955800D01*
X8026397Y1955800D01*
X8062719Y1955800D02*
G01*
X8099041Y1898650D01*
X8138665Y1981707D02*
G01*
X8138665Y1986787D01*
X8143745Y1997202D01*
X8149079Y2002536D01*
X8159493Y2007615D01*
X8180067Y2007615D01*
X8190481Y2002536D01*
X8195815Y1997202D01*
X8200895Y1986787D01*
X8200895Y1976373D01*
X8195815Y1965960D01*
X8185401Y1950465D01*
X8133331Y1898650D01*
X8206229Y1898650D01*
X8266427Y2007615D02*
G01*
X8250933Y2002536D01*
X8245599Y1992121D01*
X8245599Y1981707D01*
X8250933Y1971294D01*
X8261347Y1965960D01*
X8281921Y1960879D01*
X8297669Y1955800D01*
X8308083Y1945386D01*
X8313163Y1934971D01*
X8313163Y1919223D01*
X8308083Y1908810D01*
X8302749Y1903729D01*
X8287255Y1898650D01*
X8266427Y1898650D01*
X8250933Y1903729D01*
X8245599Y1908810D01*
X8240519Y1919223D01*
X8240519Y1934971D01*
X8245599Y1945386D01*
X8256013Y1955800D01*
X8271507Y1960879D01*
X8292335Y1965960D01*
X8302749Y1971294D01*
X8308083Y1981707D01*
X8308083Y1992121D01*
X8302749Y2002536D01*
X8287255Y2007615D01*
X8266427Y2007615D01*
X5968989Y2553715D02*
G01*
X5968989Y2444750D01*
X5968989Y2553715D02*
G01*
X6015725Y2553715D01*
X6031219Y2548636D01*
X6036553Y2543302D01*
X6041633Y2532887D01*
X6041633Y2522473D01*
X6036553Y2512060D01*
X6031219Y2506979D01*
X6015725Y2501900D01*
X5968989Y2501900D01*
X6005311Y2501900D02*
G01*
X6041633Y2444750D01*
X6148821Y2553715D02*
G01*
X6096751Y2444750D01*
X6075923Y2553715D02*
G01*
X6148821Y2553715D01*
X4673587Y2134615D02*
G01*
X4673587Y2025650D01*
X4673587Y2134615D02*
G01*
X4720323Y2134615D01*
X4735817Y2129536D01*
X4741151Y2124202D01*
X4746231Y2113787D01*
X4746231Y2103373D01*
X4741151Y2092960D01*
X4735817Y2087879D01*
X4720323Y2082800D01*
X4673587Y2082800D01*
X4709909Y2082800D02*
G01*
X4746231Y2025650D01*
X4806683Y2134615D02*
G01*
X4790935Y2129536D01*
X4785855Y2119121D01*
X4785855Y2108707D01*
X4790935Y2098294D01*
X4801349Y2092960D01*
X4822177Y2087879D01*
X4837671Y2082800D01*
X4848085Y2072386D01*
X4853419Y2061971D01*
X4853419Y2046223D01*
X4848085Y2035810D01*
X4843005Y2030729D01*
X4827257Y2025650D01*
X4806683Y2025650D01*
X4790935Y2030729D01*
X4785855Y2035810D01*
X4780521Y2046223D01*
X4780521Y2061971D01*
X4785855Y2072386D01*
X4796269Y2082800D01*
X4811763Y2087879D01*
X4832591Y2092960D01*
X4843005Y2098294D01*
X4848085Y2108707D01*
X4848085Y2119121D01*
X4843005Y2129536D01*
X4827257Y2134615D01*
X4806683Y2134615D01*
X3390887Y2134615D02*
G01*
X3390887Y2025650D01*
X3390887Y2134615D02*
G01*
X3437623Y2134615D01*
X3453117Y2129536D01*
X3458451Y2124202D01*
X3463531Y2113787D01*
X3463531Y2103373D01*
X3458451Y2092960D01*
X3453117Y2087879D01*
X3437623Y2082800D01*
X3390887Y2082800D01*
X3427209Y2082800D02*
G01*
X3463531Y2025650D01*
X3497821Y2113787D02*
G01*
X3508235Y2119121D01*
X3523983Y2134615D01*
X3523983Y2025650D01*
X3584181Y2134615D02*
G01*
X3568687Y2129536D01*
X3563353Y2119121D01*
X3563353Y2108707D01*
X3568687Y2098294D01*
X3578847Y2092960D01*
X3599675Y2087879D01*
X3615423Y2082800D01*
X3625837Y2072386D01*
X3630917Y2061971D01*
X3630917Y2046223D01*
X3625837Y2035810D01*
X3620503Y2030729D01*
X3605009Y2025650D01*
X3584181Y2025650D01*
X3568687Y2030729D01*
X3563353Y2035810D01*
X3558273Y2046223D01*
X3558273Y2061971D01*
X3563353Y2072386D01*
X3573767Y2082800D01*
X3589261Y2087879D01*
X3610089Y2092960D01*
X3620503Y2098294D01*
X3625837Y2108707D01*
X3625837Y2119121D01*
X3620503Y2129536D01*
X3605009Y2134615D01*
X3584181Y2134615D01*
X8279384Y7886700D02*
G01*
X8388350Y7886700D01*
X8279384Y7886700D02*
G01*
X8279384Y7933436D01*
X8284463Y7948929D01*
X8289797Y7954263D01*
X8300211Y7959344D01*
X8310625Y7959344D01*
X8321040Y7954263D01*
X8326120Y7948929D01*
X8331200Y7933436D01*
X8331200Y7886700D01*
X8331200Y7923021D02*
G01*
X8388350Y7959344D01*
X8300211Y7993634D02*
G01*
X8294877Y8004047D01*
X8279384Y8019795D01*
X8388350Y8019795D01*
X8294877Y8116315D02*
G01*
X8284463Y8111236D01*
X8279384Y8095487D01*
X8279384Y8085073D01*
X8284463Y8069579D01*
X8300211Y8059165D01*
X8326120Y8054086D01*
X8352027Y8054086D01*
X8372856Y8059165D01*
X8383270Y8069579D01*
X8388350Y8085073D01*
X8388350Y8090408D01*
X8383270Y8105902D01*
X8372856Y8116315D01*
X8357361Y8121650D01*
X8352027Y8121650D01*
X8336534Y8116315D01*
X8326120Y8105902D01*
X8321040Y8090408D01*
X8321040Y8085073D01*
X8326120Y8069579D01*
X8336534Y8059165D01*
X8352027Y8054086D01*
X5956297Y2147315D02*
G01*
X5956297Y2038350D01*
X5956297Y2147315D02*
G01*
X6003033Y2147315D01*
X6018527Y2142236D01*
X6023861Y2136902D01*
X6028941Y2126487D01*
X6028941Y2116073D01*
X6023861Y2105660D01*
X6018527Y2100579D01*
X6003033Y2095500D01*
X5956297Y2095500D01*
X5992619Y2095500D02*
G01*
X6028941Y2038350D01*
X6063231Y2126487D02*
G01*
X6073645Y2131821D01*
X6089393Y2147315D01*
X6089393Y2038350D01*
X6196327Y2147315D02*
G01*
X6144257Y2038350D01*
X6123683Y2147315D02*
G01*
X6196327Y2147315D01*
X4673597Y2553715D02*
G01*
X4673597Y2444750D01*
X4673597Y2553715D02*
G01*
X4720333Y2553715D01*
X4735827Y2548636D01*
X4741161Y2543302D01*
X4746241Y2532887D01*
X4746241Y2522473D01*
X4741161Y2512060D01*
X4735827Y2506979D01*
X4720333Y2501900D01*
X4673597Y2501900D01*
X4709919Y2501900D02*
G01*
X4746241Y2444750D01*
X4785865Y2527807D02*
G01*
X4785865Y2532887D01*
X4790945Y2543302D01*
X4796279Y2548636D01*
X4806693Y2553715D01*
X4827267Y2553715D01*
X4837681Y2548636D01*
X4843015Y2543302D01*
X4848095Y2532887D01*
X4848095Y2522473D01*
X4843015Y2512060D01*
X4832601Y2496565D01*
X4780531Y2444750D01*
X4853429Y2444750D01*
X4892799Y2527807D02*
G01*
X4892799Y2532887D01*
X4898133Y2543302D01*
X4903213Y2548636D01*
X4913627Y2553715D01*
X4934455Y2553715D01*
X4944869Y2548636D01*
X4949949Y2543302D01*
X4955283Y2532887D01*
X4955283Y2522473D01*
X4949949Y2512060D01*
X4939535Y2496565D01*
X4887719Y2444750D01*
X4960363Y2444750D01*
X3378200Y2553715D02*
G01*
X3378200Y2444750D01*
X3378200Y2553715D02*
G01*
X3424936Y2553715D01*
X3440429Y2548636D01*
X3445763Y2543302D01*
X3450843Y2532887D01*
X3450843Y2522473D01*
X3445763Y2512060D01*
X3440429Y2506979D01*
X3424936Y2501900D01*
X3378200Y2501900D01*
X3414522Y2501900D02*
G01*
X3450843Y2444750D01*
X3490468Y2527807D02*
G01*
X3490468Y2532887D01*
X3495547Y2543302D01*
X3500881Y2548636D01*
X3511295Y2553715D01*
X3531870Y2553715D01*
X3542284Y2548636D01*
X3547618Y2543302D01*
X3552697Y2532887D01*
X3552697Y2522473D01*
X3547618Y2512060D01*
X3537204Y2496565D01*
X3485134Y2444750D01*
X3558031Y2444750D01*
X3654552Y2553715D02*
G01*
X3602736Y2553715D01*
X3597402Y2506979D01*
X3602736Y2512060D01*
X3618229Y2517394D01*
X3633724Y2517394D01*
X3649472Y2512060D01*
X3659886Y2501900D01*
X3664965Y2486152D01*
X3664965Y2475737D01*
X3659886Y2460244D01*
X3649472Y2449829D01*
X3633724Y2444750D01*
X3618229Y2444750D01*
X3602736Y2449829D01*
X3597402Y2454910D01*
X3592322Y2465323D01*
X7502143Y7986521D02*
G01*
X7491729Y7996936D01*
X7476236Y8002015D01*
X7455408Y8002015D01*
X7439913Y7996936D01*
X7429500Y7986521D01*
X7429500Y7976108D01*
X7434579Y7965694D01*
X7439913Y7960360D01*
X7450327Y7955279D01*
X7481570Y7944865D01*
X7491729Y7939786D01*
X7497063Y7934452D01*
X7502143Y7924037D01*
X7502143Y7908544D01*
X7491729Y7898129D01*
X7476236Y7893050D01*
X7455408Y7893050D01*
X7439913Y7898129D01*
X7429500Y7908544D01*
X7536434Y8002015D02*
G01*
X7562595Y7893050D01*
X7588504Y8002015D02*
G01*
X7562595Y7893050D01*
X7588504Y8002015D02*
G01*
X7614411Y7893050D01*
X7640320Y8002015D02*
G01*
X7614411Y7893050D01*
X7674609Y7981187D02*
G01*
X7685024Y7986521D01*
X7700772Y8002015D01*
X7700772Y7893050D01*
X961644Y5040121D02*
G01*
X951229Y5050536D01*
X935736Y5055615D01*
X914907Y5055615D01*
X899413Y5050536D01*
X889000Y5040121D01*
X889000Y5029707D01*
X894079Y5019294D01*
X899413Y5013960D01*
X909828Y5008879D01*
X941070Y4998465D01*
X951229Y4993386D01*
X956563Y4988052D01*
X961644Y4977637D01*
X961644Y4962144D01*
X951229Y4951729D01*
X935736Y4946650D01*
X914907Y4946650D01*
X899413Y4951729D01*
X889000Y4962144D01*
X995934Y5055615D02*
G01*
X1022095Y4946650D01*
X1048004Y5055615D02*
G01*
X1022095Y4946650D01*
X1048004Y5055615D02*
G01*
X1073912Y4946650D01*
X1099820Y5055615D02*
G01*
X1073912Y4946650D01*
X1139444Y5029707D02*
G01*
X1139444Y5034787D01*
X1144523Y5045202D01*
X1149857Y5050536D01*
X1160271Y5055615D01*
X1181100Y5055615D01*
X1191260Y5050536D01*
X1196594Y5045202D01*
X1201673Y5034787D01*
X1201673Y5024373D01*
X1196594Y5013960D01*
X1186179Y4998465D01*
X1134110Y4946650D01*
X1207007Y4946650D01*
X952500Y2731515D02*
G01*
X952500Y2653537D01*
X957579Y2638044D01*
X967994Y2627629D01*
X983742Y2622550D01*
X994155Y2622550D01*
X1009650Y2627629D01*
X1020063Y2638044D01*
X1025144Y2653537D01*
X1025144Y2731515D01*
X1059434Y2710687D02*
G01*
X1069847Y2716021D01*
X1085595Y2731515D01*
X1085595Y2622550D01*
X10845800Y8027415D02*
G01*
X10845800Y7949437D01*
X10850879Y7933944D01*
X10861293Y7923529D01*
X10877041Y7918450D01*
X10887456Y7918450D01*
X10902950Y7923529D01*
X10913363Y7933944D01*
X10918443Y7949437D01*
X10918443Y8027415D01*
X11004804Y8027415D02*
G01*
X10952734Y7954771D01*
X11030711Y7954771D01*
X11004804Y8027415D02*
G01*
X11004804Y7918450D01*
X939800Y1410715D02*
G01*
X939800Y1332737D01*
X944879Y1317244D01*
X955294Y1306829D01*
X971042Y1301750D01*
X981455Y1301750D01*
X996950Y1306829D01*
X1007363Y1317244D01*
X1012444Y1332737D01*
X1012444Y1410715D01*
X1109218Y1410715D02*
G01*
X1057147Y1410715D01*
X1052068Y1363979D01*
X1057147Y1369060D01*
X1072895Y1374394D01*
X1088389Y1374394D01*
X1103884Y1369060D01*
X1114297Y1358900D01*
X1119631Y1343152D01*
X1119631Y1332737D01*
X1114297Y1317244D01*
X1103884Y1306829D01*
X1088389Y1301750D01*
X1072895Y1301750D01*
X1057147Y1306829D01*
X1052068Y1311910D01*
X1046734Y1322323D01*
X2908300Y7252715D02*
G01*
X2908300Y7174737D01*
X2913379Y7159244D01*
X2923793Y7148829D01*
X2939541Y7143750D01*
X2949956Y7143750D01*
X2965450Y7148829D01*
X2975863Y7159244D01*
X2980943Y7174737D01*
X2980943Y7252715D01*
X3020568Y7226808D02*
G01*
X3020568Y7231887D01*
X3025647Y7242302D01*
X3030981Y7247636D01*
X3041395Y7252715D01*
X3061970Y7252715D01*
X3072384Y7247636D01*
X3077718Y7242302D01*
X3082797Y7231887D01*
X3082797Y7221473D01*
X3077718Y7211060D01*
X3067304Y7195565D01*
X3015234Y7143750D01*
X3088131Y7143750D01*
X10985505Y5081015D02*
G01*
X10985505Y5003037D01*
X10990585Y4987544D01*
X11000999Y4977129D01*
X11016747Y4972050D01*
X11027161Y4972050D01*
X11042655Y4977129D01*
X11053069Y4987544D01*
X11058149Y5003037D01*
X11058149Y5081015D01*
X11102853Y5081015D02*
G01*
X11160003Y5081015D01*
X11129015Y5039360D01*
X11144509Y5039360D01*
X11154923Y5034279D01*
X11160003Y5029200D01*
X11165337Y5013452D01*
X11165337Y5003037D01*
X11160003Y4987544D01*
X11149589Y4977129D01*
X11134095Y4972050D01*
X11118601Y4972050D01*
X11102853Y4977129D01*
X11097773Y4982210D01*
X11092439Y4992623D01*
X647700Y7697215D02*
G01*
X647700Y7619237D01*
X652779Y7603744D01*
X663194Y7593329D01*
X678942Y7588250D01*
X689355Y7588250D01*
X704850Y7593329D01*
X715263Y7603744D01*
X720344Y7619237D01*
X720344Y7697215D01*
X822197Y7660894D02*
G01*
X817118Y7645400D01*
X806704Y7634986D01*
X791210Y7629652D01*
X785876Y7629652D01*
X770381Y7634986D01*
X759968Y7645400D01*
X754634Y7660894D01*
X754634Y7665973D01*
X759968Y7681721D01*
X770381Y7692136D01*
X785876Y7697215D01*
X791210Y7697215D01*
X806704Y7692136D01*
X817118Y7681721D01*
X822197Y7660894D01*
X822197Y7634986D01*
X817118Y7608823D01*
X806704Y7593329D01*
X791210Y7588250D01*
X780795Y7588250D01*
X765047Y7593329D01*
X759968Y7603744D01*
X2527300Y8586215D02*
G01*
X2599943Y8477250D01*
X2599943Y8586215D02*
G01*
X2527300Y8477250D01*
X2634234Y8565387D02*
G01*
X2644647Y8570721D01*
X2660395Y8586215D01*
X2660395Y8477250D01*
X8775700Y4674641D02*
G01*
X8775700Y4565421D01*
X8775700Y4565421D02*
G01*
X8837929Y4565421D01*
X8872220Y4653813D02*
G01*
X8882634Y4659147D01*
X8898381Y4674641D01*
X8898381Y4565421D01*
G36*
X5537200Y8682786D02*
G01*
X5523534Y8682380D01*
X5509920Y8681161D01*
X5496407Y8679129D01*
X5483047Y8676284D01*
X5469890Y8672626D01*
X5463387Y8670544D01*
X5450586Y8665718D01*
X5438089Y8660180D01*
X5425948Y8653881D01*
X5414213Y8646871D01*
X5402935Y8639149D01*
X5392115Y8630767D01*
X5381853Y8621776D01*
X5372100Y8612225D01*
X5702300Y8612225D01*
X5692546Y8621776D01*
X5682284Y8630767D01*
X5671464Y8639149D01*
X5660186Y8646871D01*
X5648452Y8653881D01*
X5636310Y8660180D01*
X5623814Y8665718D01*
X5611012Y8670544D01*
X5597956Y8674557D01*
X5584698Y8677808D01*
X5571236Y8680246D01*
X5557672Y8681872D01*
X5544058Y8682685D01*
G37*
G36*
X9358274Y3390900D02*
G01*
X9348724Y3381146D01*
X9339732Y3370884D01*
X9331350Y3360064D01*
X9323628Y3348786D01*
X9316618Y3337051D01*
X9310319Y3324910D01*
X9304782Y3312414D01*
X9299956Y3299612D01*
X9295942Y3286556D01*
X9292691Y3273298D01*
X9290253Y3259836D01*
X9288627Y3246272D01*
X9287814Y3232658D01*
X9287814Y3218942D01*
X9288627Y3205327D01*
X9290253Y3191764D01*
X9292691Y3178302D01*
X9295942Y3165043D01*
X9299956Y3151987D01*
X9304782Y3139186D01*
X9310319Y3126689D01*
X9316618Y3114548D01*
X9323628Y3102813D01*
X9331350Y3091535D01*
X9339732Y3080715D01*
X9348724Y3070453D01*
X9358274Y3060700D01*
G37*
G36*
X9537700Y4212386D02*
G01*
X9524034Y4211980D01*
X9510420Y4210761D01*
X9496907Y4208729D01*
X9483547Y4205884D01*
X9470390Y4202226D01*
X9463887Y4200144D01*
X9451086Y4195318D01*
X9438589Y4189780D01*
X9426448Y4183481D01*
X9414713Y4176471D01*
X9403435Y4168749D01*
X9392615Y4160367D01*
X9382353Y4151376D01*
X9372600Y4141825D01*
X9702800Y4141825D01*
X9693046Y4151376D01*
X9682784Y4160367D01*
X9671964Y4168749D01*
X9660686Y4176471D01*
X9648952Y4183481D01*
X9636810Y4189780D01*
X9624314Y4195318D01*
X9611512Y4200144D01*
X9598456Y4204157D01*
X9585198Y4207408D01*
X9571736Y4209846D01*
X9558172Y4211472D01*
X9544558Y4212285D01*
G37*
G36*
X8928100Y4212386D02*
G01*
X8914434Y4211980D01*
X8900820Y4210761D01*
X8887307Y4208729D01*
X8873947Y4205884D01*
X8860790Y4202226D01*
X8854287Y4200144D01*
X8841486Y4195318D01*
X8828989Y4189780D01*
X8816848Y4183481D01*
X8805113Y4176471D01*
X8793835Y4168749D01*
X8783015Y4160367D01*
X8772753Y4151376D01*
X8763000Y4141825D01*
X9093200Y4141825D01*
X9083446Y4151376D01*
X9073184Y4160367D01*
X9062364Y4168749D01*
X9051086Y4176471D01*
X9039352Y4183481D01*
X9027210Y4189780D01*
X9014714Y4195318D01*
X9001912Y4200144D01*
X8988856Y4204157D01*
X8975598Y4207408D01*
X8962136Y4209846D01*
X8948572Y4211472D01*
X8934958Y4212285D01*
G37*
G36*
X11155019Y6396024D02*
G01*
X11142268Y6382004D01*
X11130127Y6367526D01*
X11118646Y6352489D01*
X11107826Y6336944D01*
X11097717Y6320993D01*
X11088268Y6304584D01*
X11079581Y6287770D01*
X11071606Y6270650D01*
X11064392Y6253175D01*
X11057940Y6235395D01*
X11052251Y6217310D01*
X11047374Y6199073D01*
X11043310Y6180582D01*
X11040008Y6161938D01*
X11037570Y6143193D01*
X11035944Y6124346D01*
X11035080Y6105448D01*
X11035080Y6086551D01*
X11035944Y6067653D01*
X11037570Y6048806D01*
X11040008Y6030061D01*
X11043310Y6011418D01*
X11047374Y5992926D01*
X11052251Y5974689D01*
X11057940Y5956604D01*
X11064392Y5938824D01*
X11071606Y5921349D01*
X11079581Y5904230D01*
X11088268Y5887415D01*
X11097717Y5871006D01*
X11107826Y5855055D01*
X11118646Y5839510D01*
X11130127Y5824474D01*
X11142268Y5809996D01*
X11155019Y5795975D01*
G37*
G36*
X8762187Y6723278D02*
G01*
X8562187Y6713321D01*
X8392210Y6653275D01*
X8282178Y6553301D01*
X9162186Y6553301D01*
X9012174Y6663283D01*
X8882176Y6713321D01*
G37*
D14*
X892987Y5433603D02*
G01*
X1392986Y5433601D01*
X1392986Y5181600D02*
G01*
X892987Y5181600D01*
X1392986Y5433601D02*
G01*
X1392986Y5410200D01*
X1392986Y5181600D02*
G01*
X1392986Y5207000D01*
X892987Y5433603D02*
G01*
X892987Y5410200D01*
X892987Y5181600D02*
G01*
X892987Y5207000D01*
X3568865Y8394700D02*
G01*
X3568865Y8318500D01*
X3568865Y8496300D02*
G01*
X3568865Y8572500D01*
X3670300Y8496300D02*
G01*
X3467100Y8496300D01*
X3467100Y8394700D02*
G01*
X3670300Y8394700D01*
X3768699Y8720485D02*
G01*
X3768699Y8170484D01*
X3368700Y8170489D02*
G01*
X3368700Y8720490D01*
X3368700Y8170489D02*
G01*
X3467752Y8170489D01*
X3669647Y8170489D02*
G01*
X3768699Y8170489D01*
X3368700Y8720490D02*
G01*
X3467752Y8720490D01*
X3669647Y8720490D02*
G01*
X3768699Y8720490D01*
X4216234Y8509000D02*
G01*
X4216234Y8585200D01*
X4216234Y8407400D02*
G01*
X4216234Y8331200D01*
X4114800Y8407400D02*
G01*
X4318000Y8407400D01*
X4318000Y8509000D02*
G01*
X4114800Y8509000D01*
X4016400Y8183214D02*
G01*
X4016400Y8733215D01*
X4416399Y8733210D02*
G01*
X4416399Y8183209D01*
X4416399Y8733210D02*
G01*
X4317347Y8733210D01*
X4115452Y8733210D02*
G01*
X4016400Y8733210D01*
X4416399Y8183209D02*
G01*
X4317347Y8183209D01*
X4115452Y8183209D02*
G01*
X4016400Y8183209D01*
X5387213Y8281187D02*
G01*
X5387213Y8382787D01*
X5337200Y8332800D02*
G01*
X5438800Y8332800D01*
X9689312Y3075812D02*
G01*
X9587712Y3075812D01*
X9637699Y3025800D02*
G01*
X9637699Y3127400D01*
X9387713Y3810787D02*
G01*
X9387713Y3912387D01*
X9337700Y3862400D02*
G01*
X9439300Y3862400D01*
X8778113Y3810787D02*
G01*
X8778113Y3912387D01*
X8728100Y3862400D02*
G01*
X8829700Y3862400D01*
X11649999Y5976000D02*
G01*
X11774459Y5976000D01*
X11712229Y6043310D02*
G01*
X11712229Y5908690D01*
X6195603Y8670112D02*
G01*
X6195601Y8170113D01*
X5943600Y8170113D02*
G01*
X5943600Y8670112D01*
X6195601Y8170113D02*
G01*
X6172200Y8170113D01*
X5943600Y8170113D02*
G01*
X5969000Y8170113D01*
X6195603Y8670112D02*
G01*
X6172200Y8670112D01*
X5943600Y8670112D02*
G01*
X5969000Y8670112D01*
X5139512Y7977596D02*
G01*
X4639513Y7977598D01*
X4639513Y8229600D02*
G01*
X5139512Y8229600D01*
X4639513Y7977598D02*
G01*
X4639513Y8001000D01*
X4639513Y8229600D02*
G01*
X4639513Y8204200D01*
X5139512Y7977596D02*
G01*
X5139512Y8001000D01*
X5139512Y8229600D02*
G01*
X5139512Y8204200D01*
X4512487Y6779803D02*
G01*
X5012486Y6779801D01*
X5012486Y6527800D02*
G01*
X4512487Y6527800D01*
X5012486Y6779801D02*
G01*
X5012486Y6756400D01*
X5012486Y6527800D02*
G01*
X5012486Y6553200D01*
X4512487Y6779803D02*
G01*
X4512487Y6756400D01*
X4512487Y6527800D02*
G01*
X4512487Y6553200D01*
X8492210Y5653176D02*
G01*
X8492210Y5833186D01*
X8402218Y5743168D02*
G01*
X8582202Y5743168D01*
X1454000Y1228699D02*
G01*
X10737999Y1228699D01*
X1454000Y28699D02*
G01*
X10737999Y28699D01*
X1454000Y162643D02*
G01*
X10737999Y162643D01*
X10737999Y1228699D02*
G01*
X10737999Y28699D01*
X1454000Y1228699D02*
G01*
X1454000Y28699D01*
X10937900Y6686400D02*
G01*
X10937900Y7842399D01*
X10937900Y7842399D02*
G01*
X12137900Y7842399D01*
X10937900Y6686400D02*
G01*
X12137900Y6686400D01*
X12137900Y6686400D02*
G01*
X12137900Y7842399D01*
X11963400Y6686400D02*
G01*
X11963400Y7842399D01*
X12079236Y6686400D02*
G01*
X12079236Y7842399D01*
D15*
X4346884Y4394799D02*
G01*
X4841798Y4394799D01*
X3641801Y4394799D02*
G01*
X4136674Y4394799D01*
X3641803Y4394799D02*
G01*
X3641801Y4496587D01*
X4841796Y4394799D02*
G01*
X4841798Y4496587D01*
X3816095Y3448761D02*
G01*
X4210558Y3448761D01*
X4311904Y3550589D02*
G01*
X4472686Y3385540D01*
X4421799Y4868773D02*
G01*
X4614519Y4868773D01*
X4614519Y4005173D01*
X4314520Y4005173D01*
X4312104Y4002760D01*
X4312104Y3601161D01*
X4312104Y3550361D01*
D14*
X3461801Y3115490D02*
G01*
X3461801Y5035501D01*
X5021803Y3115503D02*
G01*
X5021803Y5035514D01*
X3461799Y3115500D02*
G01*
X5021800Y3115500D01*
X4666488Y3455670D02*
G01*
X4443729Y3455670D01*
X5021803Y5035514D02*
G01*
X4271269Y5035514D01*
X4212330Y5035514D02*
G01*
X3461801Y5035514D01*
X4341799Y4543094D02*
G01*
X4341799Y4243095D01*
X4141800Y4243095D01*
X4141800Y4543094D01*
X4341799Y4543094D01*
D15*
X2645084Y4394799D02*
G01*
X3139998Y4394799D01*
X1940001Y4394799D02*
G01*
X2434874Y4394799D01*
X1940003Y4394799D02*
G01*
X1940001Y4496587D01*
X3139996Y4394799D02*
G01*
X3139998Y4496587D01*
X2114295Y3448761D02*
G01*
X2508758Y3448761D01*
X2610104Y3550589D02*
G01*
X2770886Y3385540D01*
X2719999Y4868773D02*
G01*
X2912719Y4868773D01*
X2912719Y4005173D01*
X2612720Y4005173D01*
X2610304Y4002760D01*
X2610304Y3601161D01*
X2610304Y3550361D01*
D14*
X1760001Y3115490D02*
G01*
X1760001Y5035501D01*
X3320003Y3115503D02*
G01*
X3320003Y5035514D01*
X1759999Y3115500D02*
G01*
X3320000Y3115500D01*
X2964688Y3455670D02*
G01*
X2741929Y3455670D01*
X3320003Y5035514D02*
G01*
X2569469Y5035514D01*
X2510530Y5035514D02*
G01*
X1760001Y5035514D01*
X2639999Y4543094D02*
G01*
X2639999Y4243095D01*
X2440000Y4243095D01*
X2440000Y4543094D01*
X2639999Y4543094D01*
D15*
X7750484Y4394799D02*
G01*
X8245398Y4394799D01*
X7045401Y4394799D02*
G01*
X7540274Y4394799D01*
X7045403Y4394799D02*
G01*
X7045401Y4496587D01*
X8245396Y4394799D02*
G01*
X8245398Y4496587D01*
X7219695Y3448761D02*
G01*
X7614158Y3448761D01*
X7715504Y3550589D02*
G01*
X7876286Y3385540D01*
X7825399Y4868773D02*
G01*
X8018119Y4868773D01*
X8018119Y4005173D01*
X7718120Y4005173D01*
X7715704Y4002760D01*
X7715704Y3601161D01*
X7715704Y3550361D01*
D14*
X6865401Y3115490D02*
G01*
X6865401Y5035501D01*
X8425403Y3115503D02*
G01*
X8425403Y5035514D01*
X6865399Y3115500D02*
G01*
X8425400Y3115500D01*
X8070088Y3455670D02*
G01*
X7847329Y3455670D01*
X8425403Y5035514D02*
G01*
X7674869Y5035514D01*
X7615930Y5035514D02*
G01*
X6865401Y5035514D01*
X7745399Y4543094D02*
G01*
X7745399Y4243095D01*
X7545400Y4243095D01*
X7545400Y4543094D01*
X7745399Y4543094D01*
D15*
X6035984Y4394799D02*
G01*
X6530898Y4394799D01*
X5330901Y4394799D02*
G01*
X5825774Y4394799D01*
X5330903Y4394799D02*
G01*
X5330901Y4496587D01*
X6530896Y4394799D02*
G01*
X6530898Y4496587D01*
X5505195Y3448761D02*
G01*
X5899658Y3448761D01*
X6001004Y3550589D02*
G01*
X6161786Y3385540D01*
X6110899Y4868773D02*
G01*
X6303619Y4868773D01*
X6303619Y4005173D01*
X6003620Y4005173D01*
X6001204Y4002760D01*
X6001204Y3601161D01*
X6001204Y3550361D01*
D14*
X5150901Y3115490D02*
G01*
X5150901Y5035501D01*
X6710903Y3115503D02*
G01*
X6710903Y5035514D01*
X5150899Y3115500D02*
G01*
X6710900Y3115500D01*
X6355588Y3455670D02*
G01*
X6132829Y3455670D01*
X6710903Y5035514D02*
G01*
X5960369Y5035514D01*
X5901430Y5035514D02*
G01*
X5150901Y5035514D01*
X6030899Y4543094D02*
G01*
X6030899Y4243095D01*
X5830900Y4243095D01*
X5830900Y4543094D01*
X6030899Y4543094D01*
X9245899Y2501900D02*
G01*
X9245899Y2514600D01*
X8966200Y2514600D02*
G01*
X9245899Y2514600D01*
X8966200Y2489200D02*
G01*
X8966200Y2514600D01*
X9245899Y2482499D02*
G01*
X9245899Y2501900D01*
X8966200Y2501900D01*
X8966200Y2482499D01*
X9245899Y2482499D02*
G01*
X9245899Y1962500D01*
X9245899Y1962500D02*
G01*
X8965900Y1962500D01*
X8965900Y2482499D02*
G01*
X8965900Y1962500D01*
X9245899Y2482499D02*
G01*
X8965900Y2482499D01*
X9245899Y2386573D02*
G01*
X8965900Y2386573D01*
X9804699Y2501900D02*
G01*
X9804699Y2514600D01*
X9525000Y2514600D02*
G01*
X9804699Y2514600D01*
X9525000Y2489200D02*
G01*
X9525000Y2514600D01*
X9804699Y2482499D02*
G01*
X9804699Y2501900D01*
X9525000Y2501900D01*
X9525000Y2482499D01*
X9804699Y2482499D02*
G01*
X9804699Y1962500D01*
X9804699Y1962500D02*
G01*
X9524700Y1962500D01*
X9524700Y2482499D02*
G01*
X9524700Y1962500D01*
X9804699Y2482499D02*
G01*
X9524700Y2482499D01*
X9804699Y2386573D02*
G01*
X9524700Y2386573D01*
X10338099Y2501900D02*
G01*
X10338099Y2514600D01*
X10058400Y2514600D02*
G01*
X10338099Y2514600D01*
X10058400Y2489200D02*
G01*
X10058400Y2514600D01*
X10338099Y2482499D02*
G01*
X10338099Y2501900D01*
X10058400Y2501900D01*
X10058400Y2482499D01*
X10338099Y2482499D02*
G01*
X10338099Y1962500D01*
X10338099Y1962500D02*
G01*
X10058100Y1962500D01*
X10058100Y2482499D02*
G01*
X10058100Y1962500D01*
X10338099Y2482499D02*
G01*
X10058100Y2482499D01*
X10338099Y2386573D02*
G01*
X10058100Y2386573D01*
X11372098Y2230699D02*
G01*
X11372098Y1350700D01*
X10802099Y1350700D01*
X10802099Y2230699D01*
X11372098Y2230699D01*
X11357099Y2080928D02*
G01*
X10817100Y2080928D01*
X11357099Y2040288D02*
G01*
X10833100Y2040288D01*
X11306660Y2704500D02*
G01*
X10456661Y2704500D01*
X10456661Y3264499D01*
X11422659Y2984500D02*
G01*
X11312659Y2984500D01*
X10586661Y2704500D02*
G01*
X10586661Y3264499D01*
X10456661Y2984500D02*
G01*
X10296662Y2984500D01*
X10566661Y2704500D02*
G01*
X10566661Y3264499D01*
X10456661Y3264499D02*
G01*
X11306660Y3264499D01*
X10606661Y2704500D02*
G01*
X10606661Y3264499D01*
X11310660Y3264499D02*
G01*
X11310660Y2704500D01*
X10706100Y7304214D02*
G01*
X10706100Y7454900D01*
X10490200Y7454900D01*
X10706100Y6804215D02*
G01*
X10706100Y7196782D01*
X10515600Y6546098D02*
G01*
X10706100Y6546098D01*
X10706100Y6696783D01*
X10706100Y5776785D02*
G01*
X10706100Y5626100D01*
X10515600Y5626100D01*
X10706100Y6276784D02*
G01*
X10706100Y5884217D01*
X10502900Y6532498D02*
G01*
X10668000Y6532498D01*
X10706100Y6532498D01*
X10706100Y6384216D01*
X10515600Y6032500D02*
G01*
X10502900Y6032500D01*
X10312400Y5842000D02*
G01*
X10312400Y5829300D01*
X10744200Y7518392D02*
G01*
X10744200Y5562592D01*
X10287000Y5562592D01*
X10287000Y7518392D01*
X10744200Y7518392D01*
X10622025Y3506978D02*
G01*
X10622025Y3759200D01*
X10072115Y3756913D01*
X11455400Y5406900D02*
G01*
X10055400Y5406900D01*
X10055352Y5306821D02*
G01*
X10617200Y5306821D01*
X10068100Y3506899D02*
G01*
X10621916Y3506899D01*
X10068097Y5056901D02*
G01*
X10617200Y5056901D01*
X10617200Y5306900D01*
X10068052Y4956810D02*
G01*
X10617200Y4956810D01*
X10068097Y4706899D02*
G01*
X10617200Y4706899D01*
X10617200Y4953000D01*
X10068052Y4606797D02*
G01*
X10430002Y4606797D01*
X10522551Y4514248D01*
X10068100Y4206900D02*
G01*
X10426700Y4206900D01*
X10455300Y4206900D01*
X10536864Y4288464D01*
X10068052Y4106926D02*
G01*
X10617200Y4106926D01*
X10068100Y3856898D02*
G01*
X10617200Y3856898D01*
X10617200Y4102100D01*
X11468100Y3406899D02*
G01*
X10068100Y3406899D01*
X10817199Y5306900D02*
G01*
X11461201Y5306900D01*
X10817199Y3506899D02*
G01*
X11461201Y3506899D01*
X10817199Y3506899D02*
G01*
X10817199Y5306900D01*
X4341799Y5879599D02*
G01*
X4341799Y5955799D01*
X4380199Y5917399D02*
G01*
X4300199Y5917399D01*
X3987800Y5956300D02*
G01*
X3987800Y5575300D01*
X7745399Y5892299D02*
G01*
X7745399Y5968499D01*
X7783799Y5930099D02*
G01*
X7703799Y5930099D01*
X7391400Y5969000D02*
G01*
X7391400Y5588000D01*
X6030899Y5879599D02*
G01*
X6030899Y5955799D01*
X6069299Y5917399D02*
G01*
X5989299Y5917399D01*
X5676900Y5956300D02*
G01*
X5676900Y5575300D01*
X2639999Y5879599D02*
G01*
X2639999Y5955799D01*
X2678399Y5917399D02*
G01*
X2598399Y5917399D01*
X2286000Y5956300D02*
G01*
X2286000Y5575300D01*
X2164697Y7630187D02*
G01*
X2164123Y7331374D01*
X2489200Y7658100D02*
G01*
X2489200Y7607300D01*
X2463800Y7632700D02*
G01*
X2514600Y7632700D01*
X6377802Y8611699D02*
G01*
X6377802Y8646698D01*
X7947799Y8646698D01*
X7947799Y8396701D01*
X6377802Y8396701D01*
X6377802Y8616698D01*
X1054094Y7950200D02*
G01*
X977894Y7950200D01*
X1714494Y7950200D02*
G01*
X1790694Y7950200D01*
X1066787Y8064500D02*
G01*
X1714487Y8064500D01*
X1714487Y7835900D01*
X1066787Y7835900D01*
X1066787Y8064500D01*
X10058400Y7467594D02*
G01*
X10058400Y7391394D01*
X10058400Y8127994D02*
G01*
X10058400Y8204194D01*
X9944100Y7480287D02*
G01*
X9944100Y8127987D01*
X10172700Y8127987D01*
X10172700Y7480287D01*
X9944100Y7480287D01*
X9677400Y7467594D02*
G01*
X9677400Y7391394D01*
X9677400Y8127994D02*
G01*
X9677400Y8204194D01*
X9563100Y7480287D02*
G01*
X9563100Y8127987D01*
X9791700Y8127987D01*
X9791700Y7480287D01*
X9563100Y7480287D01*
X9296400Y7467594D02*
G01*
X9296400Y7391394D01*
X9296400Y8127994D02*
G01*
X9296400Y8204194D01*
X9182100Y7480287D02*
G01*
X9182100Y8127987D01*
X9410700Y8127987D01*
X9410700Y7480287D01*
X9182100Y7480287D01*
X8915400Y7467594D02*
G01*
X8915400Y7391394D01*
X8915400Y8127994D02*
G01*
X8915400Y8204194D01*
X8801100Y7480287D02*
G01*
X8801100Y8127987D01*
X9029700Y8127987D01*
X9029700Y7480287D01*
X8801100Y7480287D01*
X2844800Y2082794D02*
G01*
X2844800Y2006594D01*
X2844800Y2743194D02*
G01*
X2844800Y2819394D01*
X2730500Y2095487D02*
G01*
X2730500Y2743187D01*
X2959100Y2743187D01*
X2959100Y2095487D01*
X2730500Y2095487D01*
X2425700Y2082794D02*
G01*
X2425700Y2006594D01*
X2425700Y2743194D02*
G01*
X2425700Y2819394D01*
X2311400Y2095487D02*
G01*
X2311400Y2743187D01*
X2540000Y2743187D01*
X2540000Y2095487D01*
X2311400Y2095487D01*
X2006600Y2082794D02*
G01*
X2006600Y2006594D01*
X2006600Y2743194D02*
G01*
X2006600Y2819394D01*
X1892300Y2095487D02*
G01*
X1892300Y2743187D01*
X2120900Y2743187D01*
X2120900Y2095487D01*
X1892300Y2095487D01*
X9169394Y6972300D02*
G01*
X9093194Y6972300D01*
X9829794Y6972300D02*
G01*
X9905994Y6972300D01*
X9182087Y7086600D02*
G01*
X9829787Y7086600D01*
X9829787Y6858000D01*
X9182087Y6858000D01*
X9182087Y7086600D01*
X1587500Y2082794D02*
G01*
X1587500Y2006594D01*
X1587500Y2743194D02*
G01*
X1587500Y2819394D01*
X1473200Y2095487D02*
G01*
X1473200Y2743187D01*
X1701800Y2743187D01*
X1701800Y2095487D01*
X1473200Y2095487D01*
X2260521Y6654800D02*
G01*
X2367399Y6654800D01*
X3017400Y6654396D02*
G01*
X3124278Y6654396D01*
X2367399Y6539798D02*
G01*
X2367399Y6769801D01*
X2367399Y6769801D02*
G01*
X3017400Y6769801D01*
X3017400Y6766798D02*
G01*
X3017400Y6542801D01*
X3017400Y6539798D02*
G01*
X2367399Y6539798D01*
X3759200Y5333921D02*
G01*
X3759200Y5440799D01*
X3759603Y6090800D02*
G01*
X3759603Y6197678D01*
X3874201Y5440799D02*
G01*
X3644198Y5440799D01*
X3644198Y5440799D02*
G01*
X3644198Y6090800D01*
X3647201Y6090800D02*
G01*
X3871198Y6090800D01*
X3874201Y6090800D02*
G01*
X3874201Y5440799D01*
X7162800Y5333921D02*
G01*
X7162800Y5440799D01*
X7163203Y6090800D02*
G01*
X7163203Y6197678D01*
X7277801Y5440799D02*
G01*
X7047798Y5440799D01*
X7047798Y5440799D02*
G01*
X7047798Y6090800D01*
X7050801Y6090800D02*
G01*
X7274798Y6090800D01*
X7277801Y6090800D02*
G01*
X7277801Y5440799D01*
X5448300Y5333921D02*
G01*
X5448300Y5440799D01*
X5448703Y6090800D02*
G01*
X5448703Y6197678D01*
X5563301Y5440799D02*
G01*
X5333298Y5440799D01*
X5333298Y5440799D02*
G01*
X5333298Y6090800D01*
X5336301Y6090800D02*
G01*
X5560298Y6090800D01*
X5563301Y6090800D02*
G01*
X5563301Y5440799D01*
X2044700Y5333921D02*
G01*
X2044700Y5440799D01*
X2045103Y6090800D02*
G01*
X2045103Y6197678D01*
X2159701Y5440799D02*
G01*
X1929698Y5440799D01*
X1929698Y5440799D02*
G01*
X1929698Y6090800D01*
X1932701Y6090800D02*
G01*
X2156698Y6090800D01*
X2159701Y6090800D02*
G01*
X2159701Y5440799D01*
X8445576Y2933636D02*
G01*
X8445576Y2298700D01*
X8445576Y2031936D02*
G01*
X8445576Y2171700D01*
X8445576Y2184400D01*
X8801176Y2031936D02*
G01*
X8458276Y2031936D01*
X8445576Y2031936D01*
X8445576Y2933636D02*
G01*
X8445576Y2946336D01*
X8458276Y2946336D01*
X8801176Y2946336D02*
G01*
X8801176Y2794000D01*
X8801176Y2031936D02*
G01*
X8801176Y2679700D01*
X8458276Y2946336D02*
G01*
X8775776Y2946336D01*
X8788476Y2946336D01*
X8801176Y2946336D01*
X8801100Y2946400D01*
X7010476Y2933636D02*
G01*
X7010476Y2298700D01*
X7010476Y2031936D02*
G01*
X7010476Y2171700D01*
X7010476Y2184400D01*
X7366076Y2031936D02*
G01*
X7023176Y2031936D01*
X7010476Y2031936D01*
X7010476Y2933636D02*
G01*
X7010476Y2946336D01*
X7023176Y2946336D01*
X7366076Y2946336D02*
G01*
X7366076Y2794000D01*
X7366076Y2031936D02*
G01*
X7366076Y2679700D01*
X7023176Y2946336D02*
G01*
X7340676Y2946336D01*
X7353376Y2946336D01*
X7366076Y2946336D01*
X7366000Y2946400D01*
X7493076Y2933636D02*
G01*
X7493076Y2298700D01*
X7493076Y2031936D02*
G01*
X7493076Y2171700D01*
X7493076Y2184400D01*
X7848676Y2031936D02*
G01*
X7505776Y2031936D01*
X7493076Y2031936D01*
X7493076Y2933636D02*
G01*
X7493076Y2946336D01*
X7505776Y2946336D01*
X7848676Y2946336D02*
G01*
X7848676Y2794000D01*
X7848676Y2031936D02*
G01*
X7848676Y2679700D01*
X7505776Y2946336D02*
G01*
X7823276Y2946336D01*
X7835976Y2946336D01*
X7848676Y2946336D01*
X7848600Y2946400D01*
X7975676Y2933636D02*
G01*
X7975676Y2298700D01*
X7975676Y2031936D02*
G01*
X7975676Y2171700D01*
X7975676Y2184400D01*
X8331276Y2031936D02*
G01*
X7988376Y2031936D01*
X7975676Y2031936D01*
X7975676Y2933636D02*
G01*
X7975676Y2946336D01*
X7988376Y2946336D01*
X8331276Y2946336D02*
G01*
X8331276Y2794000D01*
X8331276Y2031936D02*
G01*
X8331276Y2679700D01*
X7988376Y2946336D02*
G01*
X8305876Y2946336D01*
X8318576Y2946336D01*
X8331276Y2946336D01*
X8331200Y2946400D01*
X6629405Y2705100D02*
G01*
X6705605Y2705100D01*
X5969005Y2705100D02*
G01*
X5892805Y2705100D01*
X6616712Y2590800D02*
G01*
X5969012Y2590800D01*
X5969012Y2819400D01*
X6616712Y2819400D01*
X6616712Y2590800D01*
X5334005Y2286000D02*
G01*
X5410205Y2286000D01*
X4673605Y2286000D02*
G01*
X4597405Y2286000D01*
X5321312Y2171700D02*
G01*
X4673612Y2171700D01*
X4673612Y2400300D01*
X5321312Y2400300D01*
X5321312Y2171700D01*
X4038605Y2286000D02*
G01*
X4114805Y2286000D01*
X3378205Y2286000D02*
G01*
X3302005Y2286000D01*
X4025912Y2171700D02*
G01*
X3378212Y2171700D01*
X3378212Y2400300D01*
X4025912Y2400300D01*
X4025912Y2171700D01*
X8534400Y7365921D02*
G01*
X8534400Y7472799D01*
X8534803Y8122800D02*
G01*
X8534803Y8229678D01*
X8649401Y7472799D02*
G01*
X8419398Y7472799D01*
X8419398Y7472799D02*
G01*
X8419398Y8122800D01*
X8422401Y8122800D02*
G01*
X8646398Y8122800D01*
X8649401Y8122800D02*
G01*
X8649401Y7472799D01*
X5854621Y2298700D02*
G01*
X5961499Y2298700D01*
X6611500Y2298296D02*
G01*
X6718378Y2298296D01*
X5961499Y2183698D02*
G01*
X5961499Y2413701D01*
X5961499Y2413701D02*
G01*
X6611500Y2413701D01*
X6611500Y2410698D02*
G01*
X6611500Y2186701D01*
X6611500Y2183698D02*
G01*
X5961499Y2183698D01*
X5435678Y2705100D02*
G01*
X5328800Y2705100D01*
X4678799Y2705503D02*
G01*
X4571921Y2705503D01*
X5328800Y2820101D02*
G01*
X5328800Y2590098D01*
X5328800Y2590098D02*
G01*
X4678799Y2590098D01*
X4678799Y2593101D02*
G01*
X4678799Y2817098D01*
X4678799Y2820101D02*
G01*
X5328800Y2820101D01*
X3276521Y2705100D02*
G01*
X3383399Y2705100D01*
X4033400Y2704696D02*
G01*
X4140278Y2704696D01*
X3383399Y2590098D02*
G01*
X3383399Y2820101D01*
X3383399Y2820101D02*
G01*
X4033400Y2820101D01*
X4033400Y2817098D02*
G01*
X4033400Y2593101D01*
X4033400Y2590098D02*
G01*
X3383399Y2590098D01*
X7975727Y7394752D02*
G01*
X8115731Y7394752D01*
X7975727Y7444765D02*
G01*
X8115731Y7444765D01*
X7981619Y7494778D02*
G01*
X8121624Y7494778D01*
X7975828Y7350734D02*
G01*
X8115808Y7350734D01*
X7976615Y7160234D02*
G01*
X8129015Y7160234D01*
X8129015Y7541234D01*
X7976615Y7541234D01*
X7976615Y7160234D01*
X7721727Y7394752D02*
G01*
X7861731Y7394752D01*
X7721727Y7444765D02*
G01*
X7861731Y7444765D01*
X7727619Y7494778D02*
G01*
X7867624Y7494778D01*
X7721828Y7350734D02*
G01*
X7861808Y7350734D01*
X7722615Y7160234D02*
G01*
X7875015Y7160234D01*
X7875015Y7541234D01*
X7722615Y7541234D01*
X7722615Y7160234D01*
X7467727Y7394752D02*
G01*
X7607731Y7394752D01*
X7467727Y7444765D02*
G01*
X7607731Y7444765D01*
X7473619Y7494778D02*
G01*
X7613624Y7494778D01*
X7467828Y7350734D02*
G01*
X7607808Y7350734D01*
X7468615Y7160234D02*
G01*
X7621015Y7160234D01*
X7621015Y7541234D01*
X7468615Y7541234D01*
X7468615Y7160234D01*
X7213727Y7394752D02*
G01*
X7353731Y7394752D01*
X7213727Y7444765D02*
G01*
X7353731Y7444765D01*
X7219619Y7494778D02*
G01*
X7359624Y7494778D01*
X6959727Y7394752D02*
G01*
X7099731Y7394752D01*
X6959727Y7444765D02*
G01*
X7099731Y7444765D01*
X6965619Y7494778D02*
G01*
X7105624Y7494778D01*
X7213828Y7350734D02*
G01*
X7353808Y7350734D01*
X6963816Y7350734D02*
G01*
X7103821Y7350734D01*
X6960615Y7160234D02*
G01*
X7113015Y7160234D01*
X7113015Y7541234D01*
X6960615Y7541234D01*
X6960615Y7160234D01*
X7214615Y7160234D02*
G01*
X7367015Y7160234D01*
X7367015Y7541234D01*
X7214615Y7541234D01*
X7214615Y7160234D01*
X6833615Y7541234D02*
G01*
X6897115Y7541234D01*
X6897115Y7160234D01*
X6833615Y7160234D01*
X6833615Y6842734D01*
X8252459Y6842734D01*
X8252459Y7858734D01*
X6833615Y7858734D01*
X6833615Y7160234D01*
X800988Y4910099D02*
G01*
X1281811Y4910099D01*
X1341399Y4724791D02*
G01*
X1341399Y4495408D01*
X1281811Y4310100D02*
G01*
X800988Y4310100D01*
X741400Y4495408D02*
G01*
X741400Y4724791D01*
X891006Y2755011D02*
G01*
X891006Y3595014D01*
X1141018Y3595014D01*
X1141018Y2755011D01*
X891006Y2755011D01*
X10543006Y7911211D02*
G01*
X10543006Y8751214D01*
X10793018Y8751214D01*
X10793018Y7911211D01*
X10543006Y7911211D01*
X891006Y1434211D02*
G01*
X891006Y2274214D01*
X1141018Y2274214D01*
X1141018Y1434211D01*
X891006Y1434211D01*
X6659499Y7315200D02*
G01*
X6659499Y7113699D01*
X3119500Y7113699D01*
X3119500Y7643700D01*
X6659499Y7643700D01*
X6659499Y7442200D01*
X11321082Y4701913D02*
G01*
X11526075Y4701913D01*
X11526075Y4791915D01*
X11306081Y4791915D01*
X11321087Y4361906D02*
G01*
X11526085Y4361906D01*
X11526085Y4451908D01*
X11306086Y4451908D01*
X11321094Y4021902D02*
G01*
X11526093Y4021902D01*
X11526093Y4111904D01*
X11306093Y4111904D01*
X10931941Y3896903D02*
G01*
X10931941Y4916830D01*
X11306068Y4696866D02*
G01*
X11306068Y4916830D01*
X10846074Y4916830D01*
X10846074Y3897020D01*
X10846074Y3897020D01*
X10846094Y3896903D01*
X11306093Y4356910D02*
G01*
X11306093Y4456894D01*
X10846094Y3896903D02*
G01*
X11306093Y3896903D01*
X11306093Y4116895D01*
X734113Y5502399D02*
G01*
X1374086Y5502399D01*
X1153919Y7502400D02*
G01*
X1373913Y7502400D01*
X734113Y5784334D02*
G01*
X734113Y5696465D01*
X734113Y6038334D02*
G01*
X734113Y5950465D01*
X734113Y6292334D02*
G01*
X734113Y6204465D01*
X734113Y6546334D02*
G01*
X734113Y6458465D01*
X734113Y6800334D02*
G01*
X734113Y6712465D01*
X734113Y7054334D02*
G01*
X734113Y6966465D01*
X734113Y7308334D02*
G01*
X734113Y7220465D01*
X734113Y7502400D02*
G01*
X734113Y7474465D01*
X1373913Y5530466D02*
G01*
X1373913Y5502399D01*
X1373913Y5784466D02*
G01*
X1373913Y5696333D01*
X1373913Y6038466D02*
G01*
X1373913Y5950333D01*
X1373913Y6292466D02*
G01*
X1373913Y6204333D01*
X1373913Y6546466D02*
G01*
X1373913Y6458333D01*
X1373913Y6800466D02*
G01*
X1373913Y6712333D01*
X1373913Y7054466D02*
G01*
X1373913Y6966333D01*
X1373913Y7308466D02*
G01*
X1373913Y7220333D01*
X1373913Y7502400D02*
G01*
X1373913Y7474333D01*
X734113Y7502400D02*
G01*
X954100Y7502400D01*
X734113Y5530334D02*
G01*
X734113Y5502399D01*
X2918459Y8441689D02*
G01*
X2288540Y8441689D01*
X2918459Y7992110D02*
G01*
X2288540Y7992110D01*
G75*
G01*
X11429746Y5695950D02*
G03*
X11422634Y5695950I-3556J399984D01*
G75*
G01*
X10502900Y6032500D02*
G03*
X10312400Y5842000I0J-190500D01*
G75*
G01*
X10312400Y5829300D02*
G03*
X10515600Y5626100I203200J0D01*
G75*
G01*
X10312400Y6329299D02*
G03*
X10515600Y6126099I203200J0D01*
G75*
G01*
X10502900Y6532499D02*
G03*
X10312400Y6341999I0J-190500D01*
G75*
G01*
X10312400Y6749298D02*
G03*
X10515600Y6546098I203200J0D01*
G75*
G01*
X10502900Y6952498D02*
G03*
X10312400Y6761998I0J-190500D01*
G75*
G01*
X10312400Y7249297D02*
G03*
X10515600Y7046097I203200J0D01*
G75*
G01*
X10502900Y7452497D02*
G03*
X10312400Y7261997I0J-190500D01*
G75*
G01*
X11468100Y3406899D02*
G03*
X11461242Y3506978I-3704J50021D01*
G75*
G01*
X11461201Y5306901D02*
G03*
X11455400Y5406898I-3219J49980D01*
G75*
G01*
X10068100Y3506899D02*
G03*
X10068052Y3406902I332J-49999D01*
G75*
G01*
X10068100Y4206900D02*
G03*
X10068052Y4106926I-24J-49987D01*
G75*
G01*
X10068098Y4706899D02*
G03*
X10068052Y4606798I-23J-50050D01*
G75*
G01*
X10068098Y5056901D02*
G03*
X10068052Y4956810I-23J-50045D01*
G75*
G01*
X10055400Y5406901D02*
G03*
X10055352Y5306822I332J-50040D01*
G75*
G01*
X10068100Y3856899D02*
G03*
X10068052Y3756914I-24J-49993D01*
G75*
G01*
X3987800Y5956300D02*
G02*
X3987800Y5575300I254000J-190500D01*
G75*
G01*
X7391400Y5969000D02*
G02*
X7391400Y5588000I254000J-190500D01*
G75*
G01*
X5676900Y5956300D02*
G02*
X5676900Y5575300I254000J-190500D01*
G75*
G01*
X2286000Y5956300D02*
G02*
X2286000Y5575300I254000J-190500D01*
G75*
G01*
X2164123Y7331375D02*
G03*
X2164697Y7630188I250877J148925D01*
G75*
G01*
X6659626Y7442200D02*
G03*
X6659626Y7315200I0J-63500D01*
D16*
G75*
G01*
X6589522Y7543800D02*
G03*
X6589522Y7543292I-29999J-254D01*
D15*
G75*
G01*
X6683502Y7758684D02*
G03*
X6683502Y7758430I-15001J-127D01*
D14*
G75*
G01*
X1154100Y7502398D02*
G02*
X954100Y7497394I-100000J-2502D01*
G75*
G01*
X2918460Y7992110D02*
G03*
X2918460Y8441690I0J224790D01*
G75*
G01*
X2288540Y8441690D02*
G03*
X2288540Y7992110I0J-224790D01*
D15*
G75*
G01
X5787212Y8432800D02*
G03X5787212Y8432800I-250012J0D01*
G75*
G01
X9787712Y3225800D02*
G03X9787712Y3225800I-250012J0D01*
G75*
G01
X9787712Y3962400D02*
G03X9787712Y3962400I-250012J0D01*
G75*
G01
X9178112Y3962400D02*
G03X9178112Y3962400I-250012J0D01*
D14*
G75*
G01
X9362211Y6083173D02*
G03X9362211Y6083173I-650011J0D01*
G75*
G01
X3611804Y4925593D02*
G03X3611804Y4925593I-50013J0D01*
G75*
G01
X1910004Y4925593D02*
G03X1910004Y4925593I-50013J0D01*
G75*
G01
X7015404Y4925593D02*
G03X7015404Y4925593I-50013J0D01*
G75*
G01
X5300904Y4925593D02*
G03X5300904Y4925593I-50013J0D01*
G75*
G01
X4495800Y5765800D02*
G03X4495800Y5765800I-254000J0D01*
G75*
G01
X7899400Y5778500D02*
G03X7899400Y5778500I-254000J0D01*
G75*
G01
X6184900Y5765800D02*
G03X6184900Y5765800I-254000J0D01*
G75*
G01
X2794000Y5765800D02*
G03X2794000Y5765800I-254000J0D01*
G75*
G01
X6527800Y8711692D02*
G03X6527800Y8711692I-29997J0D01*
G75*
G01
X1221410Y4610100D02*
G03X1221410Y4610100I-180010J0D01*
G75*
G01
X1266139Y4790084D02*
G03X1266139Y4790084I-44729J0D01*
G75*
G01
X906120Y4790110D02*
G03X906120Y4790110I-44729J0D01*
G75*
G01
X906120Y4430090D02*
G03X906120Y4430090I-44729J0D01*
G75*
G01
X1266139Y4430090D02*
G03X1266139Y4430090I-44729J0D01*
D15*
G75*
G01
X11521110Y3961892D02*
G03X11521110Y3961892I-15011J0D01*
D14*
G75*
G01
X864108Y7387387D02*
G03X864108Y7387387I-29997J0D01*
G75*
G01
X9834524Y4965675D02*
G03X9834524Y4965675I-499999J0D01*
M02*
