G04 Layer: TopLayer*
G04 EasyEDA v6.5.39, 2024-02-11 14:55:05*
G04 31a22d7060634c1a9507d93259deef13,6aaf4e428e1e4843910fb14260956013,10*
G04 Gerber Generator version 0.2*
G04 Scale: 100 percent, Rotated: No, Reflected: No *
G04 Dimensions in millimeters *
G04 leading zeros omitted , absolute positions ,4 integer and 5 decimal *
%FSLAX45Y45*%
%MOMM*%

%AMMACRO1*21,1,$1,$2,0,0,$3*%
%ADD10C,0.7500*%
%ADD11C,0.4000*%
%ADD12C,1.0000*%
%ADD13C,1.5000*%
%ADD14C,1.6000*%
%ADD15C,1.3000*%
%ADD16C,2.0000*%
%ADD17C,3.0000*%
%ADD18C,2.8000*%
%ADD19C,2.7940*%
%ADD20C,1.8000*%
%ADD21C,2.4000*%
%ADD22R,3.0000X3.0000*%
%ADD23C,3.5000*%
%ADD24MACRO1,1.6X1.6X0.0000*%
%ADD25R,1.8000X1.6000*%
%ADD26C,1.4000*%
%ADD27O,1.9999959999999999X2.999994*%
%ADD28R,1.5000X1.5000*%
%ADD29R,2.0000X2.0000*%
%ADD30R,0.0163X2.0000*%

%LPD*%
D10*
X3140008Y4675619D02*
G01*
X3078261Y4613871D01*
X2442575Y4613871D01*
X2044710Y5011737D01*
X2044710Y5240820D01*
X3302010Y781799D02*
G01*
X2532923Y781799D01*
X2286010Y1028712D01*
X4318010Y781799D02*
G01*
X3302010Y781799D01*
X3302010Y781799D02*
G01*
X3302010Y1028712D01*
X5334010Y1028712D02*
G01*
X5087096Y781799D01*
X4318010Y781799D01*
X4318010Y781799D02*
G01*
X4318010Y1028712D01*
X7289810Y8342261D02*
G01*
X7289810Y8521712D01*
X7289810Y7734312D02*
G01*
X7289810Y8342261D01*
X7289810Y8342261D02*
G01*
X5546658Y8342261D01*
X5537210Y8332812D01*
X2044710Y5240820D02*
G01*
X1460814Y5240820D01*
X1393022Y5308612D01*
X7289810Y7734312D02*
G01*
X7543810Y7734312D01*
X7797810Y7734312D02*
G01*
X8051810Y7734312D01*
X7543810Y7734312D02*
G01*
X7797810Y7734312D01*
X7035810Y7734312D02*
G01*
X7289810Y7734312D01*
D11*
X4508510Y7778711D02*
G01*
X4216410Y8070811D01*
X4216410Y8208200D01*
X10198110Y2657513D02*
G01*
X10125034Y2657513D01*
X9637709Y3144837D01*
X9637709Y3225812D01*
X9105910Y2657513D02*
G01*
X8892753Y2444356D01*
X8509949Y2444356D01*
X8140862Y2075268D01*
X4444146Y2075268D01*
X4233402Y2286012D01*
X1366403Y4835105D02*
G01*
X716417Y4835105D01*
X6540510Y7778711D02*
G01*
X6149121Y8170100D01*
X6070610Y8170100D01*
X3492510Y7778711D02*
G01*
X3382223Y7888998D01*
X1253246Y5976937D02*
G01*
X1239885Y5963577D01*
X1239885Y5247474D01*
X1611284Y4876076D01*
X1611284Y3397135D01*
X1762592Y3245827D01*
X1762592Y2132037D01*
X2006610Y1888020D01*
X3965839Y2411641D02*
G01*
X3810010Y2255812D01*
X3810010Y1028712D01*
D12*
X7113203Y2239225D02*
G01*
X7113203Y2279459D01*
X6885899Y2506764D01*
X6343939Y2506764D01*
X5395097Y3455606D01*
X5330962Y3455606D01*
X7045462Y3455606D02*
G01*
X7504516Y2996552D01*
X7504516Y2664879D01*
X7930169Y2239225D01*
X8078403Y2239225D01*
D13*
X11087110Y1110703D02*
G01*
X10496001Y1110703D01*
X10414010Y1028712D01*
D10*
X4114810Y5765812D02*
G01*
X4114810Y5598248D01*
X3922659Y5498325D02*
G01*
X2298100Y5498325D01*
X4114810Y5598248D02*
G01*
X4022582Y5598248D01*
X3922659Y5498325D01*
X3922659Y5498325D02*
G01*
X3922659Y4956467D01*
X3641811Y4675619D01*
X5280314Y5765812D02*
G01*
X5803910Y5765812D01*
X1435110Y6883412D02*
G01*
X1856292Y6462229D01*
X4583897Y6462229D01*
X5280314Y5765812D01*
X5280314Y5765812D02*
G01*
X5280314Y4726216D01*
X5330911Y4675619D01*
D11*
X5448310Y6290805D02*
G01*
X5559231Y6290805D01*
X6057910Y5792127D01*
X6057910Y5765812D01*
X4254510Y6978713D02*
G01*
X3752910Y7480312D01*
X2540010Y7480312D01*
X6540510Y6978713D02*
G01*
X7029409Y6978713D01*
X7035810Y6972312D01*
X7543810Y6972312D02*
G01*
X7402230Y7113892D01*
X5857453Y7113892D01*
X5592632Y7378712D01*
X7797810Y6972312D02*
G01*
X7411171Y7358951D01*
X5750493Y7358951D01*
X5330733Y7778711D01*
X5270510Y7778711D01*
X8051810Y6972312D02*
G01*
X8974617Y6972312D01*
X5528802Y2705112D02*
G01*
X5109702Y2286012D01*
X4478792Y2286012D01*
X673110Y7137412D02*
G01*
X1077528Y7541831D01*
X1539377Y7541831D01*
X1934093Y7147115D01*
X3578108Y7147115D01*
X3746510Y6978713D01*
X673110Y6883412D02*
G01*
X532571Y7023950D01*
X532571Y7457528D01*
X697036Y7621993D01*
X1597289Y7621993D01*
X1630029Y7589253D01*
D14*
G01*
X893013Y5308600D03*
G01*
X1393012Y5308600D03*
G01*
X3568700Y8195513D03*
G01*
X3568700Y8695512D03*
G01*
X4216400Y8708186D03*
G01*
X4216400Y8208187D03*
D15*
G01*
X5537200Y8332800D03*
G01*
X5537200Y8532799D03*
G01*
X9637699Y3225800D03*
G01*
X9437700Y3225800D03*
G01*
X9537700Y3862400D03*
G01*
X9537700Y4062399D03*
G01*
X8928100Y3862400D03*
G01*
X8928100Y4062399D03*
D14*
G01*
X11254993Y6096000D03*
G01*
X11605006Y6096000D03*
G01*
X6070600Y8670086D03*
G01*
X6070600Y8170087D03*
G01*
X5139486Y8102600D03*
G01*
X4639487Y8102600D03*
G01*
X4512513Y6654800D03*
G01*
X5012512Y6654800D03*
D16*
G01*
X8712200Y5829300D03*
G01*
X8712200Y6337300D03*
D17*
G01*
X1778000Y1028700D03*
G01*
X2286000Y1028700D03*
G01*
X2794000Y1028700D03*
G01*
X3302000Y1028700D03*
G01*
X3810000Y1028700D03*
G01*
X4318000Y1028700D03*
G01*
X4826000Y1028700D03*
G01*
X5334000Y1028700D03*
G01*
X5842000Y1028700D03*
G01*
X6350000Y1028700D03*
G01*
X6858000Y1028700D03*
G01*
X7366000Y1028700D03*
G01*
X7874000Y1028700D03*
G01*
X8382000Y1028700D03*
G01*
X8890000Y1028700D03*
G01*
X9398000Y1028700D03*
G01*
X9906000Y1028700D03*
G01*
X10414000Y1028700D03*
D18*
G01*
X11137900Y7010400D03*
G01*
X11137900Y7518400D03*
D19*
G01*
X3641852Y3455593D03*
G01*
X4241800Y4875606D03*
G01*
X4841798Y4675606D03*
G01*
X3641801Y4675606D03*
G01*
X4841747Y3455593D03*
G01*
X1940052Y3455593D03*
G01*
X2540000Y4875606D03*
G01*
X3139998Y4675606D03*
G01*
X1940001Y4675606D03*
G01*
X3139947Y3455593D03*
G01*
X7045452Y3455593D03*
G01*
X7645400Y4875606D03*
G01*
X8245398Y4675606D03*
G01*
X7045401Y4675606D03*
G01*
X8245347Y3455593D03*
G01*
X5330952Y3455593D03*
G01*
X5930900Y4875606D03*
G01*
X6530898Y4675606D03*
G01*
X5330901Y4675606D03*
G01*
X6530847Y3455593D03*
D20*
G01*
X9105900Y1787499D03*
G01*
X9105900Y2657500D03*
G01*
X9664700Y1787499D03*
G01*
X9664700Y2657500D03*
G01*
X10198100Y1787499D03*
G01*
X10198100Y2657500D03*
D21*
G01*
X11087100Y1110691D03*
G01*
X11087100Y2470708D03*
D22*
G01*
X11645900Y2984500D03*
D17*
G01*
X10121900Y2984500D03*
D23*
G01*
X10515600Y7250506D03*
G01*
X10515600Y6750507D03*
G01*
X10515600Y6330518D03*
G01*
X10515600Y5830519D03*
D21*
G01*
X10617200Y4406900D03*
D24*
G01*
X4114800Y5765800D03*
D14*
G01*
X4368800Y5765800D03*
D24*
G01*
X7518400Y5778500D03*
D14*
G01*
X7772400Y5778500D03*
D24*
G01*
X5803900Y5765800D03*
D14*
G01*
X6057900Y5765800D03*
D24*
G01*
X2413000Y5765800D03*
D14*
G01*
X2667000Y5765800D03*
D20*
G01*
X2286000Y7480300D03*
G01*
X2540000Y7480300D03*
D14*
G01*
X7797800Y8521700D03*
G01*
X7543800Y8521700D03*
G01*
X7289800Y8521700D03*
G01*
X7035800Y8521700D03*
G01*
X6781800Y8521700D03*
D25*
G01*
X6527800Y8521700D03*
D14*
G01*
X859307Y7950200D03*
G01*
X1909318Y7950200D03*
G01*
X10058400Y7272807D03*
G01*
X10058400Y8322818D03*
G01*
X9677400Y7272807D03*
G01*
X9677400Y8322818D03*
G01*
X9296400Y7272807D03*
G01*
X9296400Y8322818D03*
G01*
X8915400Y7272807D03*
G01*
X8915400Y8322818D03*
G01*
X2844800Y1888007D03*
G01*
X2844800Y2938018D03*
G01*
X2425700Y1888007D03*
G01*
X2425700Y2938018D03*
G01*
X2006600Y1888007D03*
G01*
X2006600Y2938018D03*
G01*
X8974607Y6972300D03*
G01*
X10024618Y6972300D03*
G01*
X1587500Y1888007D03*
G01*
X1587500Y2938018D03*
D26*
G01*
X2167407Y6654800D03*
G01*
X3217392Y6654800D03*
G01*
X3759200Y5240807D03*
G01*
X3759200Y6290792D03*
G01*
X7162800Y5240807D03*
G01*
X7162800Y6290792D03*
G01*
X5448300Y5240807D03*
G01*
X5448300Y6290792D03*
G01*
X2044700Y5240807D03*
G01*
X2044700Y6290792D03*
D20*
G01*
X8548293Y2239213D03*
G01*
X8698306Y2739212D03*
G01*
X7113193Y2239213D03*
G01*
X7263206Y2739212D03*
G01*
X7595793Y2239213D03*
G01*
X7745806Y2739212D03*
G01*
X8078393Y2239213D03*
G01*
X8228406Y2739212D03*
D14*
G01*
X6824192Y2705100D03*
G01*
X5774181Y2705100D03*
G01*
X5528792Y2286000D03*
G01*
X4478781Y2286000D03*
G01*
X4233392Y2286000D03*
G01*
X3183381Y2286000D03*
D26*
G01*
X8534400Y7272807D03*
G01*
X8534400Y8322792D03*
G01*
X5761507Y2298700D03*
G01*
X6811492Y2298700D03*
G01*
X5528792Y2705100D03*
G01*
X4478807Y2705100D03*
G01*
X3183407Y2705100D03*
G01*
X4233392Y2705100D03*
D14*
G01*
X8051800Y7734300D03*
G01*
X8051800Y6972300D03*
G01*
X7797800Y7734300D03*
G01*
X7797800Y6972300D03*
G01*
X7543800Y7734300D03*
G01*
X7543800Y6972300D03*
G01*
X7035800Y7734300D03*
G01*
X7289800Y7734300D03*
G01*
X7289800Y6972300D03*
G01*
X7035800Y6972300D03*
D20*
G01*
X716406Y4835093D03*
G01*
X1366393Y4835093D03*
G01*
X716406Y4385106D03*
G01*
X1366393Y4385106D03*
D27*
G01*
X1016000Y3410000D03*
G01*
X1016000Y2939999D03*
G01*
X10668000Y8566200D03*
G01*
X10668000Y8096199D03*
G01*
X1016000Y2089200D03*
G01*
X1016000Y1619199D03*
D28*
G01*
X6540500Y7778699D03*
D13*
G01*
X6286500Y7778699D03*
G01*
X6032500Y7778699D03*
G01*
X5778500Y7778699D03*
G01*
X5524500Y7778699D03*
G01*
X5270500Y7778699D03*
G01*
X5016500Y7778699D03*
G01*
X4762500Y7778699D03*
G01*
X4508500Y7778699D03*
G01*
X4254500Y7778699D03*
G01*
X4000500Y7778699D03*
G01*
X3746500Y7778699D03*
G01*
X3492500Y7778699D03*
G01*
X3238500Y7778699D03*
G01*
X6540500Y6978700D03*
G01*
X6286500Y6978700D03*
G01*
X6032500Y6978700D03*
G01*
X5778500Y6978700D03*
G01*
X5524500Y6978700D03*
G01*
X5270500Y6978700D03*
G01*
X5016500Y6978700D03*
G01*
X4762500Y6978700D03*
G01*
X4508500Y6978700D03*
G01*
X4254500Y6978700D03*
G01*
X4000500Y6978700D03*
G01*
X3746500Y6978700D03*
G01*
X3492500Y6978700D03*
G01*
X3238500Y6978700D03*
D16*
G01*
X11708663Y4746904D03*
G01*
X11303736Y4576902D03*
G01*
X11708663Y4406900D03*
G01*
X11303736Y4236897D03*
D29*
G01*
X11708663Y4066895D03*
D14*
G01*
X673100Y7391400D03*
G01*
X673100Y7137400D03*
G01*
X673100Y6883400D03*
G01*
X673100Y6629400D03*
G01*
X673100Y6375400D03*
G01*
X673100Y6121400D03*
G01*
X673100Y5867400D03*
G01*
X673100Y5613400D03*
G01*
X1435100Y5613400D03*
G01*
X1435100Y5867400D03*
G01*
X1435100Y6121400D03*
G01*
X1435100Y6375400D03*
G01*
X1435100Y6629400D03*
G01*
X1435100Y6883400D03*
G01*
X1435100Y7137400D03*
G01*
X1435100Y7391400D03*
G01*
X2848508Y8216900D03*
G01*
X2358491Y8216900D03*
G01*
X9334525Y4715687D03*
G01*
X9334525Y5215686D03*
D10*
G01*
X1253236Y5976924D03*
G01*
X3382213Y7888986D03*
G01*
X3965829Y2411628D03*
D12*
G01*
X2298090Y5498312D03*
D10*
G01*
X5592622Y7378700D03*
G01*
X5723534Y6779666D03*
G01*
X6118809Y2937992D03*
G01*
X1630019Y7589240D03*
M02*
